QalamBadi-Italic.ufo
<glyph name="exclam" format="2">
  <advance width="434"/>
  <unicode hex="0021"/>
  <outline>
    <contour>
      <point x="375.7589385190421" y="1269.0" type="line" smooth="yes"/>
      <point x="345.7589385190421" y="1269.0"/>
      <point x="329.1140338084151" y="1254.0"/>
      <point x="325.9425894836188" y="1219.0" type="curve" smooth="yes"/>
      <point x="249.27941412273407" y="512.0" type="line" smooth="yes"/>
      <point x="245.81327772077165" y="481.0"/>
      <point x="264.8157190487277" y="464.0"/>
      <point x="298.8157190487277" y="464.0" type="curve" smooth="yes"/>
      <point x="333.8157190487277" y="464.0"/>
      <point x="356.8132777207717" y="481.0"/>
      <point x="364.27941412273407" y="512.0" type="curve" smooth="yes"/>
      <point x="537.9425894836188" y="1219.0" type="line" smooth="yes"/>
      <point x="547.1140338084151" y="1254.0"/>
      <point x="535.7589385190421" y="1269.0"/>
      <point x="505.7589385190421" y="1269.0" type="curve" smooth="yes"/>
    </contour>
    <contour>
      <point x="128.49968500665224" y="207.0" type="curve" smooth="yes"/>
      <point x="101.34532997754864" y="53.0" type="line" smooth="yes"/>
      <point x="93.41061584566772" y="8.0"/>
      <point x="127.23673019291535" y="-10.0"/>
      <point x="215.23673019291536" y="-10.0" type="curve" smooth="yes"/>
      <point x="303.23673019291533" y="-10.0"/>
      <point x="343.41061584566773" y="8.0"/>
      <point x="351.34532997754866" y="53.0" type="curve" smooth="yes"/>
      <point x="378.49968500665227" y="207.0" type="line" smooth="yes"/>
      <point x="386.4343991385332" y="252.0"/>
      <point x="352.60828479128554" y="270.0"/>
      <point x="264.60828479128554" y="270.0" type="curve" smooth="yes"/>
      <point x="176.60828479128554" y="270.0"/>
      <point x="136.43439913853317" y="252.0"/>
    </contour>
  </outline>
</glyph>
<glyph name="numbersign" format="2">
  <advance width="1292"/>
  <unicode hex="0023"/>
  <outline>
    <contour>
      <point x="1135.3605293131548" y="1176.0" type="curve" smooth="yes"/>
      <point x="999.6793324534472" y="865.0" type="line"/>
      <point x="738.5175282542284" y="865.0" type="line"/>
      <point x="859.365411969067" y="1142.0" type="line" smooth="yes"/>
      <point x="877.7711451588225" y="1184.0"/>
      <point x="840.1793196765342" y="1209.0"/>
      <point x="801.1793196765342" y="1209.0" type="curve" smooth="yes"/>
      <point x="777.1793196765342" y="1209.0"/>
      <point x="751.4160498694495" y="1199.0"/>
      <point x="741.3605293131548" y="1176.0" type="curve" smooth="yes"/>
      <point x="605.6793324534472" y="865.0" type="line"/>
      <point x="377.5228383128222" y="865.0" type="line" smooth="yes"/>
      <point x="332.5228383128222" y="865.0"/>
      <point x="310.99629869865294" y="845.0"/>
      <point x="301.8272957018127" y="793.0" type="curve" smooth="yes"/>
      <point x="292.65829270497255" y="741.0"/>
      <point x="307.1317530908033" y="721.0"/>
      <point x="352.1317530908033" y="721.0" type="curve" smooth="yes"/>
      <point x="542.8559047021314" y="721.0" type="line"/>
      <point x="435.96878270980744" y="476.0" type="line"/>
      <point x="238.93164281722932" y="476.0" type="line" smooth="yes"/>
      <point x="193.93164281722932" y="476.0"/>
      <point x="172.40510320306004" y="456.0"/>
      <point x="163.23610020621985" y="404.0" type="curve" smooth="yes"/>
      <point x="154.06709720937965" y="352.0"/>
      <point x="168.54055759521037" y="332.0"/>
      <point x="213.54055759521037" y="332.0" type="curve" smooth="yes"/>
      <point x="373.1453244409135" y="332.0" type="line"/>
      <point x="247.93471413188092" y="45.0" type="line" smooth="yes"/>
      <point x="229.5289809421254" y="3.0"/>
      <point x="267.1208064244138" y="-22.0"/>
      <point x="306.1208064244138" y="-22.0" type="curve" smooth="yes"/>
      <point x="330.1208064244138" y="-22.0"/>
      <point x="355.8840762314984" y="-12.0"/>
      <point x="365.9395967877931" y="11.0" type="curve" smooth="yes"/>
      <point x="505.98352024169475" y="332.0" type="line"/>
      <point x="767.1453549584917" y="332.0" type="line"/>
      <point x="641.9347141318809" y="45.0" type="line" smooth="yes"/>
      <point x="623.5289809421254" y="3.0"/>
      <point x="661.1208064244138" y="-22.0"/>
      <point x="700.1208064244138" y="-22.0" type="curve" smooth="yes"/>
      <point x="724.1208064244138" y="-22.0"/>
      <point x="749.8840762314984" y="-12.0"/>
      <point x="759.9395967877931" y="11.0" type="curve" smooth="yes"/>
      <point x="899.9835507592729" y="332.0" type="line"/>
      <point x="1125.5405575952104" y="332.0" type="line" smooth="yes"/>
      <point x="1170.5405575952104" y="332.0"/>
      <point x="1192.0670972093797" y="352.0"/>
      <point x="1201.2361002062198" y="404.0" type="curve" smooth="yes"/>
      <point x="1210.40510320306" y="456.0"/>
      <point x="1195.9316428172294" y="476.0"/>
      <point x="1150.9316428172294" y="476.0" type="curve" smooth="yes"/>
      <point x="962.8069479930106" y="476.0" type="line"/>
      <point x="1069.6940699853344" y="721.0" type="line"/>
      <point x="1264.1317530908032" y="721.0" type="line" smooth="yes"/>
      <point x="1309.1317530908032" y="721.0"/>
      <point x="1330.6582927049726" y="741.0"/>
      <point x="1339.8272957018128" y="793.0" type="curve" smooth="yes"/>
      <point x="1348.996298698653" y="845.0"/>
      <point x="1334.5228383128222" y="865.0"/>
      <point x="1289.5228383128222" y="865.0" type="curve" smooth="yes"/>
      <point x="1132.5175282542284" y="865.0" type="line"/>
      <point x="1253.365411969067" y="1142.0" type="line" smooth="yes"/>
      <point x="1271.7711451588225" y="1184.0"/>
      <point x="1234.179319676534" y="1209.0"/>
      <point x="1195.179319676534" y="1209.0" type="curve" smooth="yes"/>
      <point x="1171.179319676534" y="1209.0"/>
      <point x="1145.4160498694496" y="1199.0"/>
    </contour>
    <contour>
      <point x="675.6940699853345" y="721.0" type="line"/>
      <point x="936.8558741845533" y="721.0" type="line"/>
      <point x="829.9687521922293" y="476.0" type="line"/>
      <point x="568.8069785105887" y="476.0" type="line"/>
    </contour>
  </outline>
</glyph>
<glyph name="dollar" format="2">
  <advance width="1040"/>
  <unicode hex="0024"/>
  <outline>
    <contour>
      <point x="235.7450130155539" y="817.0" type="curve" smooth="yes"/>
      <point x="214.0567943884127" y="694.0"/>
      <point x="266.5955406423625" y="629.0"/>
      <point x="350.07144235614925" y="592.0" type="curve" smooth="yes"/>
      <point x="481.66815049434985" y="533.0"/>
      <point x="690.4314203014344" y="543.0"/>
      <point x="799.8493601309705" y="500.0" type="curve" smooth="yes"/>
      <point x="853.1464935360926" y="479.0"/>
      <point x="883.5040301534218" y="447.0"/>
      <point x="873.1007382916223" y="388.0" type="curve" smooth="yes"/>
      <point x="855.6443672014843" y="289.0"/>
      <point x="759.4778055326002" y="220.0"/>
      <point x="582.4778055326002" y="220.0" type="curve" smooth="yes"/>
      <point x="451.4778055326003" y="220.0"/>
      <point x="329.825576838105" y="256.0"/>
      <point x="235.5815226613214" y="317.0" type="curve" smooth="yes"/>
      <point x="208.75540831407378" y="335.0"/>
      <point x="178.22642737194838" y="332.0"/>
      <point x="143.23375135581665" y="281.0" type="curve" smooth="yes"/>
      <point x="110.59372930110187" y="232.0"/>
      <point x="115.951265918431" y="200.0"/>
      <point x="150.24839932355323" y="179.0" type="curve" smooth="yes"/>
      <point x="237.30314455023773" y="124.04940032958984"/>
      <point x="342.0428756871464" y="91.26187133789062"/>
      <point x="411.75520251561795" y="84.0792427026015" type="curve" smooth="yes"/>
      <point x="436.6143136027291" y="81.51794872110162"/>
      <point x="454.68124901406344" y="56.68661254882812"/>
      <point x="450.1954906248401" y="31.246612548828125" type="curve" smooth="yes"/>
      <point x="416.4735528633836" y="-160.0" type="line" smooth="yes"/>
      <point x="408.3625117507942" y="-206.0"/>
      <point x="426.0122991173334" y="-225.0"/>
      <point x="475.0122991173333" y="-225.0" type="curve" smooth="yes"/>
      <point x="524.0122991173333" y="-225.0"/>
      <point x="548.3625117507942" y="-206.0"/>
      <point x="556.4735528633836" y="-160.0" type="curve" smooth="yes"/>
      <point x="589.3929332708889" y="26.695083618164062" type="line" smooth="yes"/>
      <point x="593.8786916601122" y="52.13508361816406"/>
      <point x="620.56254598482" y="75.63331712780568"/>
      <point x="646.1670914085649" y="76.69132512803985" type="curve" smooth="yes"/>
      <point x="847.2534517313018" y="85.00043487548828"/>
      <point x="995.5413028614424" y="209.01754760742188"/>
      <point x="1027.1007382916223" y="388.0" type="curve" smooth="yes"/>
      <point x="1051.962842571516" y="529.0"/>
      <point x="989.3057312211084" y="599.0"/>
      <point x="895.1824834687386" y="638.0" type="curve" smooth="yes"/>
      <point x="757.0567943884126" y="694.0"/>
      <point x="552.293524581328" y="684.0"/>
      <point x="450.5229307903751" y="725.0" type="curve" smooth="yes"/>
      <point x="405.6968164431275" y="743.0"/>
      <point x="381.457644922256" y="770.0"/>
      <point x="389.7450130155539" y="817.0" type="curve" smooth="yes"/>
      <point x="407.7303650478173" y="919.0"/>
      <point x="505.60467596749135" y="975.0"/>
      <point x="650.6046759674914" y="975.0" type="curve" smooth="yes"/>
      <point x="773.6046759674913" y="975.0"/>
      <point x="885.1385395655288" y="944.0"/>
      <point x="978.4405556265633" y="889.0" type="curve" smooth="yes"/>
      <point x="1007.4429969545195" y="872.0"/>
      <point x="1038.1483048773532" y="876.0"/>
      <point x="1070.3173078741934" y="928.0" type="curve" smooth="yes"/>
      <point x="1102.1336569096168" y="978.0"/>
      <point x="1095.7761202922875" y="1010.0"/>
      <point x="1061.302659906457" y="1030.0" type="curve" smooth="yes"/>
      <point x="979.5489055415906" y="1076.868896484375"/>
      <point x="884.4171418698827" y="1104.3665771484375"/>
      <point x="824.6420510505912" y="1110.7516748046876" type="curve" smooth="yes"/>
      <point x="801.7007834361526" y="1113.20223125"/>
      <point x="785.0314594241368" y="1136.2163002078828"/>
      <point x="789.1754042165147" y="1159.7177789703956" type="curve" smooth="yes"/>
      <point x="822.1983127910403" y="1347.0" type="line" smooth="yes"/>
      <point x="830.3093539036297" y="1393.0"/>
      <point x="812.6595665370905" y="1412.0"/>
      <point x="763.6595665370905" y="1412.0" type="curve" smooth="yes"/>
      <point x="714.6595665370905" y="1412.0"/>
      <point x="690.3093539036297" y="1393.0"/>
      <point x="682.1983127910403" y="1347.0" type="curve" smooth="yes"/>
      <point x="650.6925427959985" y="1168.3218994140625" type="line" smooth="yes"/>
      <point x="646.2067844067752" y="1142.8818994140624"/>
      <point x="619.5106570754408" y="1119.2911415893159"/>
      <point x="593.8922718782655" y="1118.1287976592823" type="curve" smooth="yes"/>
      <point x="435.9213917640203" y="1110.96142578125"/>
      <point x="268.88289455877566" y="1004.9342651367188"/>
    </contour>
  </outline>
</glyph>
<glyph name="percent" format="2">
  <advance width="1312"/>
  <unicode hex="0025"/>
  <outline>
    <contour>
      <point x="716.4343991385332" y="252.0" type="curve" smooth="yes"/>
      <point x="689.809025051555" y="101.0"/>
      <point x="791.1208064244138" y="-22.0"/>
      <point x="942.1208064244138" y="-22.0" type="curve" smooth="yes"/>
      <point x="1093.1208064244138" y="-22.0"/>
      <point x="1237.809025051555" y="101.0"/>
      <point x="1264.434399138533" y="252.0" type="curve" smooth="yes"/>
      <point x="1291.0597732255114" y="403.0"/>
      <point x="1189.7479918526526" y="526.0"/>
      <point x="1038.7479918526526" y="526.0" type="curve" smooth="yes"/>
      <point x="887.7479918526526" y="526.0"/>
      <point x="743.0597732255114" y="403.0"/>
    </contour>
    <contour>
      <point x="256.8657269624148" y="935.0" type="curve" smooth="yes"/>
      <point x="230.24035287543654" y="784.0"/>
      <point x="331.5521342482954" y="661.0"/>
      <point x="482.5521342482954" y="661.0" type="curve" smooth="yes"/>
      <point x="633.5521342482954" y="661.0"/>
      <point x="778.2403528754365" y="784.0"/>
      <point x="804.8657269624148" y="935.0" type="curve" smooth="yes"/>
      <point x="831.4911010493929" y="1086.0"/>
      <point x="730.1793196765342" y="1209.0"/>
      <point x="579.1793196765342" y="1209.0" type="curve" smooth="yes"/>
      <point x="428.1793196765342" y="1209.0"/>
      <point x="283.49110104939297" y="1086.0"/>
    </contour>
    <contour>
      <point x="211.37887858223849" y="229.0" type="line" smooth="yes"/>
      <point x="172.91274218027607" y="198.0"/>
      <point x="169.44660577831365" y="167.0"/>
      <point x="195.6278154149343" y="134.0" type="curve" smooth="yes"/>
      <point x="220.80902505155495" y="101.0"/>
      <point x="251.28004410942958" y="98.0"/>
      <point x="289.74618051139197" y="129.0" type="curve" smooth="yes"/>
      <point x="1310.097574499418" y="959.0" type="line" smooth="yes"/>
      <point x="1348.5637109013803" y="990.0"/>
      <point x="1352.0298473033426" y="1021.0"/>
      <point x="1325.848637666722" y="1054.0" type="curve" smooth="yes"/>
      <point x="1300.6674280301015" y="1087.0"/>
      <point x="1270.196408972227" y="1090.0"/>
      <point x="1231.7302725702643" y="1059.0" type="curve" smooth="yes"/>
    </contour>
    <contour>
      <point x="1134.434399138533" y="252.0" type="curve" smooth="yes"/>
      <point x="1120.5045676625643" y="173.0"/>
      <point x="1044.0433139165143" y="108.0"/>
      <point x="965.0433139165142" y="108.0" type="curve" smooth="yes"/>
      <point x="886.0433139165142" y="108.0"/>
      <point x="832.5045676625645" y="173.0"/>
      <point x="846.4343991385332" y="252.0" type="curve" smooth="yes"/>
      <point x="860.3642306145019" y="331.0"/>
      <point x="936.8254843605521" y="396.0"/>
      <point x="1015.8254843605521" y="396.0" type="curve" smooth="yes"/>
      <point x="1094.825484360552" y="396.0"/>
      <point x="1148.3642306145018" y="331.0"/>
    </contour>
    <contour>
      <point x="674.8657269624148" y="935.0" type="curve" smooth="yes"/>
      <point x="660.935895486446" y="856.0"/>
      <point x="584.4746417403958" y="791.0"/>
      <point x="505.4746417403958" y="791.0" type="curve" smooth="yes"/>
      <point x="426.4746417403958" y="791.0"/>
      <point x="372.93589548644604" y="856.0"/>
      <point x="386.8657269624148" y="935.0" type="curve" smooth="yes"/>
      <point x="400.7955584383835" y="1014.0"/>
      <point x="477.25681218443367" y="1079.0"/>
      <point x="556.2568121844337" y="1079.0" type="curve" smooth="yes"/>
      <point x="635.2568121844337" y="1079.0"/>
      <point x="688.7955584383835" y="1014.0"/>
    </contour>
  </outline>
</glyph>
<glyph name="ampersand" format="2">
  <advance width="1119"/>
  <unicode hex="0026"/>
  <outline>
    <contour>
      <point x="361.2208222517878" y="920.0" type="curve" smooth="yes"/>
      <point x="342.68654702305" y="814.8869018554688"/>
      <point x="362.1381234069221" y="735.7551879882812"/>
      <point x="388.4709260767381" y="692.6865063476563" type="curve" smooth="yes"/>
      <point x="398.57727413587793" y="676.157043359375"/>
      <point x="390.49781642932965" y="650.551797532583"/>
      <point x="371.2805905308908" y="638.2072599076732" type="curve" smooth="yes"/>
      <point x="275.4941196476583" y="576.6770629882812"/>
      <point x="175.3136427942366" y="472.4951477050781"/>
      <point x="148.4246338267088" y="320.0" type="curve" smooth="yes"/>
      <point x="115.98046937635124" y="136.0"/>
      <point x="219.12080642441376" y="-22.0"/>
      <point x="447.1208064244138" y="-22.0" type="curve" smooth="yes"/>
      <point x="575.856463162695" y="-22.0"/>
      <point x="690.7726515510949" y="38.045814514160156"/>
      <point x="754.7168562372311" y="99.6038821068864" type="curve" smooth="yes"/>
      <point x="774.7286320061725" y="118.86889996865457"/>
      <point x="804.7502670365294" y="119.29389973018436"/>
      <point x="818.5926754507565" y="100.5081369186519" type="curve" smooth="yes"/>
      <point x="889.7053079228339" y="4.0" type="line" smooth="yes"/>
      <point x="910.7681524629968" y="-24.0"/>
      <point x="936.7681524629968" y="-24.0"/>
      <point x="984.0" y="0.0" type="curve" smooth="yes"/>
      <point x="1036.7608284791286" y="27.0"/>
      <point x="1048.8743109196741" y="56.0"/>
      <point x="1023.8694282637618" y="90.0" type="curve" smooth="yes"/>
      <point x="924.9695057393745" y="224.25722054196982" type="line" smooth="yes"/>
      <point x="911.549677592257" y="242.4747153710344"/>
      <point x="913.8719963464858" y="277.60968036499025"/>
      <point x="929.9106094717768" y="299.01246520996096" type="curve" smooth="yes"/>
      <point x="971.7003471746907" y="354.7789306640625"/>
      <point x="1035.7902237035253" y="469.1168518066406"/>
      <point x="1092.2092455987029" y="591.0" type="curve" smooth="yes"/>
      <point x="1113.3202867112923" y="637.0"/>
      <point x="1110.0811151904209" y="664.0"/>
      <point x="1051.668058016797" y="673.0" type="curve" smooth="yes"/>
      <point x="999.0786738624647" y="681.0"/>
      <point x="974.668058016797" y="673.0"/>
      <point x="953.733343884916" y="628.0" type="curve" smooth="yes"/>
      <point x="913.3562051764394" y="537.58935546875"/>
      <point x="867.3520272267367" y="449.12841796875"/>
      <point x="837.5298784033728" y="404.55217529296874" type="curve" smooth="yes"/>
      <point x="826.0843433549575" y="387.4441207763672"/>
      <point x="806.7336650209926" y="384.76305382536844"/>
      <point x="796.35822237366" y="398.84777752488634" type="curve" smooth="yes"/>
      <point x="575.2525595152171" y="699.0" type="line" smooth="yes"/>
      <point x="524.5954481648096" y="769.0"/>
      <point x="499.70404794944284" y="832.0"/>
      <point x="515.2208222517878" y="920.0" type="curve" smooth="yes"/>
      <point x="534.264136168302" y="1028.0"/>
      <point x="623.6625453741892" y="1121.0"/>
      <point x="749.6625453741892" y="1121.0" type="curve" smooth="yes"/>
      <point x="833.6625453741892" y="1121.0"/>
      <point x="906.0780438757691" y="1095.0"/>
      <point x="966.1433297438882" y="1050.0" type="curve" smooth="yes"/>
      <point x="991.7931171104274" y="1031.0"/>
      <point x="1022.7931171104274" y="1031.0"/>
      <point x="1058.6094661458505" y="1081.0" type="curve" smooth="yes"/>
      <point x="1094.6021421619823" y="1132.0"/>
      <point x="1090.5392976218193" y="1160.0"/>
      <point x="1058.4184911974057" y="1182.0" type="curve" smooth="yes"/>
      <point x="981.9401481556627" y="1236.0"/>
      <point x="887.7589385190421" y="1269.0"/>
      <point x="776.7589385190421" y="1269.0" type="curve" smooth="yes"/>
      <point x="559.7589385190421" y="1269.0"/>
      <point x="395.7809104706469" y="1116.0"/>
    </contour>
    <contour>
      <point x="691.5857941714179" y="272.87132270032043" type="line" smooth="yes"/>
      <point x="702.917574526774" y="257.492774537803"/>
      <point x="698.7619561372742" y="229.5514502105713"/>
      <point x="682.7440529171628" y="213.42169647216798" type="curve" smooth="yes"/>
      <point x="641.0082763328653" y="171.3944854736328"/>
      <point x="560.956579452079" y="126.0"/>
      <point x="473.2171995692666" y="126.0" type="curve" smooth="yes"/>
      <point x="353.2171995692666" y="126.0"/>
      <point x="281.97070406452684" y="204.0"/>
      <point x="302.42463382670877" y="320.0" type="curve" smooth="yes"/>
      <point x="319.6696848222606" y="417.8015441894531"/>
      <point x="378.7034674479456" y="486.0810546875"/>
      <point x="440.223177956906" y="526.2621153305607" type="curve" smooth="yes"/>
      <point x="463.3550015154247" y="541.3704634924729"/>
      <point x="496.14347114092715" y="538.1093597487582"/>
      <point x="509.9858792877623" y="519.3235967269122" type="curve" smooth="yes"/>
    </contour>
  </outline>
</glyph>
<glyph name="quotesingle" format="2">
  <advance width="409"/>
  <unicode hex="0027"/>
  <outline>
    <contour>
      <point x="346.39526217495643" y="1269.0" type="line" smooth="yes"/>
      <point x="316.39526217495643" y="1269.0"/>
      <point x="298.75035746432945" y="1254.0"/>
      <point x="296.57891313953314" y="1219.0" type="curve" smooth="yes"/>
      <point x="272.2317718207239" y="769.0" type="line" smooth="yes"/>
      <point x="270.2366544766361" y="735.0"/>
      <point x="291.7101148624668" y="715.0"/>
      <point x="330.7101148624668" y="715.0" type="curve" smooth="yes"/>
      <point x="370.7101148624668" y="715.0"/>
      <point x="398.2366544766361" y="735.0"/>
      <point x="408.2317718207239" y="769.0" type="curve" smooth="yes"/>
      <point x="542.5789131395331" y="1219.0" type="line" smooth="yes"/>
      <point x="552.7503574643295" y="1254.0"/>
      <point x="540.3952621749564" y="1269.0"/>
      <point x="510.39526217495643" y="1269.0" type="curve" smooth="yes"/>
    </contour>
  </outline>
</glyph>
<glyph name="parenleft" format="2">
  <advance width="709"/>
  <unicode hex="0028"/>
  <outline>
    <contour>
      <point x="172.16104902627637" y="517.0" type="curve" smooth="yes"/>
      <point x="97.57473618659571" y="94.0"/>
      <point x="295.2056229161816" y="-203.0"/>
      <point x="495.5778075012473" y="-337.0" type="curve" smooth="yes"/>
      <point x="521.5802488292034" y="-354.0"/>
      <point x="555.2831154240812" y="-333.0"/>
      <point x="578.5729248453351" y="-303.0" type="curve" smooth="yes"/>
      <point x="601.8627342665891" y="-273.0"/>
      <point x="615.7394865142192" y="-234.0"/>
      <point x="597.2080642441377" y="-220.0" type="curve" smooth="yes"/>
      <point x="422.13057173623815" y="-90.0"/>
      <point x="254.74373918343588" y="146.0"/>
      <point x="320.1610490262764" y="517.0" type="curve" smooth="yes"/>
      <point x="385.57835886911687" y="888.0"/>
      <point x="636.8968342391485" y="1128.0"/>
      <point x="857.8193417312489" y="1258.0" type="curve" smooth="yes"/>
      <point x="881.2879194611675" y="1272.0"/>
      <point x="881.1646717087976" y="1311.0"/>
      <point x="868.4544811300516" y="1341.0" type="curve" smooth="yes"/>
      <point x="855.7442905513055" y="1371.0"/>
      <point x="829.4471571461833" y="1392.0"/>
      <point x="797.4495984741393" y="1375.0" type="curve" smooth="yes"/>
      <point x="549.821783059205" y="1241.0"/>
      <point x="246.7473618659571" y="940.0"/>
    </contour>
  </outline>
</glyph>
<glyph name="parenright" format="2">
  <advance width="709"/>
  <unicode hex="0029"/>
  <outline>
    <contour>
      <point x="334.3646454383046" y="1341.0" type="curve" smooth="yes"/>
      <point x="311.07483601705064" y="1311.0"/>
      <point x="297.1980837694205" y="1272.0"/>
      <point x="315.729506039502" y="1258.0" type="curve" smooth="yes"/>
      <point x="490.8069985474016" y="1128.0"/>
      <point x="657.48852317737" y="888.0"/>
      <point x="592.0712133345295" y="517.0" type="curve" smooth="yes"/>
      <point x="526.653903491689" y="146.0"/>
      <point x="276.0407360444912" y="-90.0"/>
      <point x="55.11822855239076" y="-220.0" type="curve" smooth="yes"/>
      <point x="31.649650822472253" y="-234.0"/>
      <point x="31.772898574842124" y="-273.0"/>
      <point x="44.48308915358817" y="-303.0" type="curve" smooth="yes"/>
      <point x="57.19327973233422" y="-333.0"/>
      <point x="83.49041313745646" y="-354.0"/>
      <point x="115.48797180950037" y="-337.0" type="curve" smooth="yes"/>
      <point x="363.11578722443465" y="-203.0"/>
      <point x="665.4849004948488" y="94.0"/>
      <point x="740.0712133345295" y="517.0" type="curve" smooth="yes"/>
      <point x="814.6575261742103" y="940.0"/>
      <point x="617.7319473674581" y="1241.0"/>
      <point x="417.3597627823924" y="1375.0" type="curve" smooth="yes"/>
      <point x="391.3573214544363" y="1392.0"/>
      <point x="357.65445485955854" y="1371.0"/>
    </contour>
  </outline>
</glyph>
<glyph name="asterisk" format="2">
  <advance width="1200"/>
  <unicode hex="002A"/>
  <outline>
    <contour>
      <point x="1150.16335081258" y="647.0" type="line" smooth="yes"/>
      <point x="1210.45560156179" y="660.0"/>
      <point x="1244.685007770837" y="701.0"/>
      <point x="1235.9699345361787" y="765.0" type="curve" smooth="yes"/>
      <point x="1226.2548613015206" y="829.0"/>
      <point x="1184.6050739349814" y="848.0"/>
      <point x="1126.3732263979782" y="824.0" type="curve" smooth="yes"/>
      <point x="817.175734500283" y="693.4616951453402" type="line" smooth="yes"/>
      <point x="792.1683254838051" y="682.9039614399895"/>
      <point x="776.5734166322028" y="695.9475393068516"/>
      <point x="783.9950773692142" y="721.2139884790892" type="curve" smooth="yes"/>
      <point x="874.6965844239221" y="1030.0" type="line" smooth="yes"/>
      <point x="891.0998762857215" y="1089.0"/>
      <point x="865.8003015526431" y="1127.0"/>
      <point x="798.8003015526431" y="1127.0" type="curve" smooth="yes"/>
      <point x="731.8003015526431" y="1127.0"/>
      <point x="692.0998762857215" y="1089.0"/>
      <point x="688.6965844239221" y="1030.0" type="curve" smooth="yes"/>
      <point x="669.8790680280081" y="721.2242171219318" type="line" smooth="yes"/>
      <point x="668.3389137050807" y="695.9518938881282"/>
      <point x="648.1092385933325" y="682.9201290201466"/>
      <point x="626.8372060881183" y="693.4970578283538" type="curve" smooth="yes"/>
      <point x="364.3732263979782" y="824.0" type="line" smooth="yes"/>
      <point x="314.6050739349814" y="848.0"/>
      <point x="265.2548613015206" y="829.0"/>
      <point x="233.9699345361788" y="765.0" type="curve" smooth="yes"/>
      <point x="201.68500777083707" y="701.0"/>
      <point x="221.45560156179" y="660.0"/>
      <point x="277.16335081257995" y="647.0" type="curve" smooth="yes"/>
      <point x="572.3922800661327" y="585.0170501408602" type="line" smooth="yes"/>
      <point x="596.4363147799098" y="579.9690346843684"/>
      <point x="599.6689224760974" y="558.7676170799709"/>
      <point x="579.2701687814254" y="539.9076509825679" type="curve" smooth="yes"/>
      <point x="317.62523454532567" y="298.0" type="line" smooth="yes"/>
      <point x="269.86684739415324" y="254.0"/>
      <point x="265.5794793008554" y="207.0"/>
      <point x="313.52640007251676" y="167.0" type="curve" smooth="yes"/>
      <point x="361.64964782488664" y="128.0"/>
      <point x="411.2945525355136" y="143.0"/>
      <point x="451.2872285516453" y="194.0" type="curve" smooth="yes"/>
      <point x="659.2404031673839" y="472.46590327343046" type="line" smooth="yes"/>
      <point x="675.7423108081833" y="494.5632750756217"/>
      <point x="698.1362498267049" y="494.5824538293809"/>
      <point x="706.8870819301957" y="472.5067091324925" type="curve" smooth="yes"/>
      <point x="817.2872285516453" y="194.0" type="line" smooth="yes"/>
      <point x="838.2945525355136" y="143.0"/>
      <point x="883.4733208441781" y="127.0"/>
      <point x="945.5264000725167" y="167.0" type="curve" smooth="yes"/>
      <point x="1006.4031523201469" y="206.0"/>
      <point x="1018.8668473941532" y="254.0"/>
      <point x="986.6252345453257" y="298.0" type="curve" smooth="yes"/>
      <point x="810.3802260122727" y="539.7838711937229" type="line" smooth="yes"/>
      <point x="796.6325144080463" y="558.6438375518701"/>
      <point x="807.3416543039592" y="579.8540652412285"/>
      <point x="833.16563004613" y="584.9120152136343" type="curve" smooth="yes"/>
    </contour>
  </outline>
</glyph>
<glyph name="plus" format="2">
  <advance width="1132"/>
  <unicode hex="002B"/>
  <outline>
    <contour>
      <point x="300.3178453833361" y="654.0" type="line" smooth="yes"/>
      <point x="255.31784538333608" y="654.0"/>
      <point x="233.7913057691668" y="634.0"/>
      <point x="224.62230277232663" y="582.0" type="curve" smooth="yes"/>
      <point x="215.45329977548644" y="530.0"/>
      <point x="229.92676016131713" y="510.0"/>
      <point x="274.92676016131713" y="510.0" type="curve" smooth="yes"/>
      <point x="557.9267601613171" y="510.0" type="line" smooth="yes"/>
      <point x="571.7067601613171" y="510.0"/>
      <point x="581.7720444570597" y="497.78"/>
      <point x="579.342258662897" y="484.0" type="curve" smooth="yes"/>
      <point x="529.4417231224014" y="201.0" type="line" smooth="yes"/>
      <point x="521.5070089905205" y="156.0"/>
      <point x="538.3331233377681" y="138.0"/>
      <point x="590.3331233377681" y="138.0" type="curve" smooth="yes"/>
      <point x="642.3331233377681" y="138.0"/>
      <point x="665.5070089905205" y="156.0"/>
      <point x="673.4417231224014" y="201.0" type="curve" smooth="yes"/>
      <point x="723.342258662897" y="484.0" type="line" smooth="yes"/>
      <point x="725.7720444570597" y="497.78"/>
      <point x="740.1467601613172" y="510.0"/>
      <point x="753.9267601613171" y="510.0" type="curve" smooth="yes"/>
      <point x="1036.9267601613171" y="510.0" type="line" smooth="yes"/>
      <point x="1081.9267601613171" y="510.0"/>
      <point x="1103.4532997754864" y="530.0"/>
      <point x="1112.6223027723265" y="582.0" type="curve" smooth="yes"/>
      <point x="1121.7913057691667" y="634.0"/>
      <point x="1107.3178453833361" y="654.0"/>
      <point x="1062.3178453833361" y="654.0" type="curve" smooth="yes"/>
      <point x="779.3178453833361" y="654.0" type="line" smooth="yes"/>
      <point x="765.5378453833362" y="654.0"/>
      <point x="755.4725610875936" y="666.22"/>
      <point x="757.9023468817562" y="680.0" type="curve" smooth="yes"/>
      <point x="807.8028824222517" y="963.0" type="line" smooth="yes"/>
      <point x="815.7375965541327" y="1008.0"/>
      <point x="798.911482206885" y="1026.0"/>
      <point x="746.911482206885" y="1026.0" type="curve" smooth="yes"/>
      <point x="694.911482206885" y="1026.0"/>
      <point x="671.7375965541327" y="1008.0"/>
      <point x="663.8028824222517" y="963.0" type="curve" smooth="yes"/>
      <point x="613.9023468817562" y="680.0" type="line" smooth="yes"/>
      <point x="611.4725610875936" y="666.22"/>
      <point x="597.0978453833361" y="654.0"/>
      <point x="583.3178453833361" y="654.0" type="curve" smooth="yes"/>
    </contour>
  </outline>
</glyph>
<glyph name="comma" format="2">
  <advance width="560"/>
  <unicode hex="002C"/>
  <outline>
    <contour>
      <point x="291.430775064672" y="294.0" type="line" smooth="yes"/>
      <point x="263.430775064672" y="294.0"/>
      <point x="241.9621973347535" y="280.0"/>
      <point x="232.3776958363334" y="254.0" type="curve" smooth="yes"/>
      <point x="53.38809113485329" y="-228.0" type="line" smooth="yes"/>
      <point x="37.98235794509776" y="-270.0"/>
      <point x="55.7505104080946" y="-294.0"/>
      <point x="111.7505104080946" y="-294.0" type="curve" smooth="yes"/>
      <point x="157.7505104080946" y="-294.0"/>
      <point x="188.04276115730465" y="-281.0"/>
      <point x="204.97991661714167" y="-253.0" type="curve" smooth="yes"/>
      <point x="502.3221752800387" y="231.0" type="line" smooth="yes"/>
      <point x="523.493619604835" y="266.0"/>
      <point x="518.430775064672" y="294.0"/>
      <point x="485.430775064672" y="294.0" type="curve" smooth="yes"/>
    </contour>
  </outline>
</glyph>
<glyph name="period" format="2">
  <advance width="454"/>
  <unicode hex="002E"/>
  <outline>
    <contour>
      <point x="133.7894944279062" y="237.0" type="curve" smooth="yes"/>
      <point x="101.34532997754864" y="53.0" type="line" smooth="yes"/>
      <point x="93.41061584566772" y="8.0"/>
      <point x="130.23673019291536" y="-10.0"/>
      <point x="225.23673019291536" y="-10.0" type="curve" smooth="yes"/>
      <point x="320.23673019291533" y="-10.0"/>
      <point x="363.41061584566773" y="8.0"/>
      <point x="371.34532997754866" y="53.0" type="curve" smooth="yes"/>
      <point x="403.7894944279062" y="237.0" type="line" smooth="yes"/>
      <point x="411.72420855978714" y="282.0"/>
      <point x="374.8980942125395" y="300.0"/>
      <point x="279.8980942125395" y="300.0" type="curve" smooth="yes"/>
      <point x="184.8980942125395" y="300.0"/>
      <point x="141.72420855978712" y="282.0"/>
    </contour>
  </outline>
</glyph>
<glyph name="slash" format="2">
  <advance width="1017"/>
  <unicode hex="002F"/>
  <outline>
    <contour>
      <point x="1006.866514149949" y="1358.0" type="curve" smooth="yes"/>
      <point x="45.161284845941054" y="-285.0" type="line" smooth="yes"/>
      <point x="22.10820561760245" y="-325.0"/>
      <point x="58.8183961963485" y="-355.0"/>
      <point x="121.8183961963485" y="-355.0" type="curve" smooth="yes"/>
      <point x="153.8183961963485" y="-355.0"/>
      <point x="180.46330090697546" y="-340.0"/>
      <point x="193.16616750185324" y="-319.0" type="curve" smooth="yes"/>
      <point x="1154.8713968058612" y="1324.0" type="line" smooth="yes"/>
      <point x="1177.9244760341999" y="1364.0"/>
      <point x="1141.2142854554538" y="1394.0"/>
      <point x="1078.2142854554538" y="1394.0" type="curve" smooth="yes"/>
      <point x="1046.2142854554538" y="1394.0"/>
      <point x="1019.5693807448267" y="1379.0"/>
    </contour>
  </outline>
</glyph>
<glyph name="zero" format="2">
  <advance width="1080"/>
  <unicode hex="0030"/>
  <outline>
    <contour>
      <point x="220.56189956011974" y="593.0" type="curve" smooth="yes"/>
      <point x="155.32091669798768" y="223.0"/>
      <point x="276.1208064244138" y="-22.0"/>
      <point x="536.1208064244138" y="-22.0" type="curve" smooth="yes"/>
      <point x="796.1208064244138" y="-22.0"/>
      <point x="1003.3209166979877" y="223.0"/>
      <point x="1068.5618995601196" y="593.0" type="curve" smooth="yes"/>
      <point x="1133.8028824222517" y="963.0"/>
      <point x="1013.1793196765342" y="1209.0"/>
      <point x="753.1793196765342" y="1209.0" type="curve" smooth="yes"/>
      <point x="493.1793196765342" y="1209.0"/>
      <point x="285.80288242225174" y="963.0"/>
    </contour>
    <contour>
      <point x="377.1790516928417" y="429.95637075746254" type="line" smooth="yes"/>
      <point x="367.5343068424546" y="420.9444240655777"/>
      <point x="358.7588446500873" y="423.4687478088379"/>
      <point x="358.5078555388688" y="435.3272723388672" type="curve" smooth="yes"/>
      <point x="357.8538857073021" y="466.2254943847656"/>
      <point x="362.8167834823333" y="526.39013671875"/>
      <point x="374.56189956011974" y="593.0" type="curve" smooth="yes"/>
      <point x="427.1073398112423" y="891.0"/>
      <point x="570.0829265316813" y="1061.0"/>
      <point x="727.0829265316813" y="1061.0" type="curve" smooth="yes"/>
      <point x="810.4452312191813" y="1061.0"/>
      <point x="872.9516329369985" y="1013.072021484375"/>
      <point x="897.0929490397392" y="946.3962211298277" type="curve" smooth="yes"/>
      <point x="901.4860249398919" y="934.2630031058237"/>
      <point x="895.6313621059438" y="914.3926784260756"/>
      <point x="884.6362196058071" y="904.118934577172" type="curve" smooth="yes"/>
    </contour>
    <contour>
      <point x="914.5618995601197" y="593.0" type="curve" smooth="yes"/>
      <point x="862.0164593089971" y="295.0"/>
      <point x="719.2171995692665" y="126.0"/>
      <point x="562.2171995692665" y="126.0" type="curve" smooth="yes"/>
      <point x="479.0307982020791" y="126.0"/>
      <point x="416.56288924665853" y="173.44515991210938"/>
      <point x="392.38929152198375" y="239.52830897193166" type="curve" smooth="yes"/>
      <point x="387.95781868957147" y="251.6425868330188"/>
      <point x="393.7765191267497" y="271.4981441298472"/>
      <point x="404.7695052181076" y="281.7741755609282" type="curve" smooth="yes"/>
      <point x="911.9746243565818" y="755.899740985739" type="line" smooth="yes"/>
      <point x="921.6183577993396" y="764.9145170572426"/>
      <point x="930.3858715919561" y="762.3903951293945"/>
      <point x="930.6289090217231" y="750.5292687988281" type="curve" smooth="yes"/>
      <point x="931.262160186435" y="719.624267578125"/>
      <point x="926.2874931072051" y="659.4991455078125"/>
    </contour>
  </outline>
</glyph>
<glyph name="one" format="2">
  <advance width="1080"/>
  <unicode hex="0031"/>
  <outline>
    <contour>
      <point x="525.4613286638205" y="968.0" type="line" smooth="yes"/>
      <point x="511.3594624138053" y="950.0"/>
      <point x="500.45255983019507" y="915.0"/>
      <point x="501.988762215942" y="870.0" type="curve" smooth="yes"/>
      <point x="503.53657666018074" y="823.0"/>
      <point x="515.5573553171699" y="823.0"/>
      <point x="527.8495035261333" y="839.0" type="curve" smooth="yes"/>
      <point x="645.8824244932274" y="994.0" type="line"/>
      <point x="496.00449089103216" y="144.0" type="line"/>
      <point x="398.0169315355748" y="144.0" type="line" smooth="yes"/>
      <point x="381.62496063968047" y="144.0"/>
      <point x="371.5416326671534" y="124.0"/>
      <point x="362.37262967031324" y="72.0" type="curve" smooth="yes"/>
      <point x="353.203626673473" y="20.0"/>
      <point x="356.2338754176615" y="0.0"/>
      <point x="372.6258463135559" y="0.0" type="curve" smooth="yes"/>
      <point x="713.5012407457479" y="0.0" type="line" smooth="yes"/>
      <point x="729.8932116416422" y="0.0"/>
      <point x="739.9765396141694" y="20.0"/>
      <point x="749.1455426110095" y="72.0" type="curve" smooth="yes"/>
      <point x="758.3145456078497" y="124.0"/>
      <point x="755.2842968636612" y="144.0"/>
      <point x="738.8923259677669" y="144.0" type="curve" smooth="yes"/>
      <point x="646.0044908910322" y="144.0" type="line"/>
      <point x="824.6237223487071" y="1157.0" type="line" smooth="yes"/>
      <point x="834.1453793069643" y="1211.0"/>
      <point x="785.4376300561744" y="1224.0"/>
      <point x="741.2057825191712" y="1200.0" type="curve" smooth="yes"/>
    </contour>
  </outline>
</glyph>
<glyph name="two" format="2">
  <advance width="1080"/>
  <unicode hex="0032"/>
  <outline>
    <contour>
      <point x="367.07804387576914" y="1095.0" type="curve" smooth="yes"/>
      <point x="331.02252331947443" y="1072.0"/>
      <point x="316.7327138982205" y="1042.0"/>
      <point x="336.6216727856311" y="996.0" type="curve" smooth="yes"/>
      <point x="357.51063167304176" y="950.0"/>
      <point x="390.8053237502079" y="946.0"/>
      <point x="423.5081903450856" y="967.0" type="curve" smooth="yes"/>
      <point x="516.911482206885" y="1026.0"/>
      <point x="622.0829265316813" y="1061.0"/>
      <point x="711.0829265316813" y="1061.0" type="curve" smooth="yes"/>
      <point x="859.0829265316813" y="1061.0"/>
      <point x="924.9767680750042" y="981.0"/>
      <point x="903.4648764285714" y="859.0" type="curve" smooth="yes"/>
      <point x="886.0085053384335" y="760.0"/>
      <point x="823.1366357467155" y="687.0"/>
      <point x="685.1537250424082" y="568.0" type="curve" smooth="yes"/>
      <point x="166.51189164643273" y="122.0" type="line" smooth="yes"/>
      <point x="154.57229485863962" y="111.0"/>
      <point x="146.57473618659571" y="94.0"/>
      <point x="141.99023468817563" y="68.0" type="curve" smooth="yes"/>
      <point x="133.17388565275238" y="18.0"/>
      <point x="148.0" y="0.0"/>
      <point x="193.0" y="0.0" type="curve" smooth="yes"/>
      <point x="887.0" y="0.0" type="line" smooth="yes"/>
      <point x="932.0" y="0.0"/>
      <point x="953.5265396141693" y="20.0"/>
      <point x="962.6955426110095" y="72.0" type="curve" smooth="yes"/>
      <point x="971.8645456078497" y="124.0"/>
      <point x="957.391085222019" y="144.0"/>
      <point x="912.391085222019" y="144.0" type="curve" smooth="yes"/>
      <point x="447.27377565170644" y="144.0" type="line" smooth="yes"/>
      <point x="421.83377565170645" y="144.0"/>
      <point x="417.9413795584781" y="160.06970685379756"/>
      <point x="438.9920818363269" y="178.19086564637777" type="curve" smooth="yes"/>
      <point x="786.1079697979378" y="477.0" type="line" smooth="yes"/>
      <point x="938.2068042707467" y="608.0"/>
      <point x="1031.897464225844" y="714.0"/>
      <point x="1057.4648764285714" y="859.0" type="curve" smooth="yes"/>
      <point x="1096.4331391651422" y="1080.0"/>
      <point x="969.1793196765342" y="1209.0"/>
      <point x="736.1793196765342" y="1209.0" type="curve" smooth="yes"/>
      <point x="617.1793196765342" y="1209.0"/>
      <point x="480.59725950607015" y="1166.0"/>
    </contour>
  </outline>
</glyph>
<glyph name="three" format="2">
  <advance width="1080"/>
  <unicode hex="0033"/>
  <outline>
    <contour>
      <point x="393.49772783672074" y="1113.0" type="curve" smooth="yes"/>
      <point x="356.97118822255146" y="1093.0"/>
      <point x="340.6813788012975" y="1063.0"/>
      <point x="358.0413567465828" y="1014.0" type="curve" smooth="yes"/>
      <point x="375.75398865328486" y="967.0"/>
      <point x="407.048680730451" y="963.0"/>
      <point x="440.2225663832034" y="981.0" type="curve" smooth="yes"/>
      <point x="538.7442233414605" y="1035.0"/>
      <point x="631.3287248398806" y="1061.0"/>
      <point x="718.3287248398806" y="1061.0" type="curve" smooth="yes"/>
      <point x="863.3287248398806" y="1061.0"/>
      <point x="931.9858361902881" y="991.0"/>
      <point x="912.23721435094" y="879.0" type="curve" smooth="yes"/>
      <point x="890.7253227045072" y="757.0"/>
      <point x="800.0877419777486" y="691.0"/>
      <point x="647.0877419777486" y="691.0" type="curve" smooth="yes"/>
      <point x="592.0877419777486" y="691.0" type="line" smooth="yes"/>
      <point x="547.0877419777486" y="691.0"/>
      <point x="525.9138563249962" y="673.0"/>
      <point x="517.097507289573" y="623.0" type="curve" smooth="yes"/>
      <point x="508.28115825414966" y="573.0"/>
      <point x="523.1072726013973" y="555.0"/>
      <point x="568.1072726013973" y="555.0" type="curve" smooth="yes"/>
      <point x="641.1072726013973" y="555.0" type="line" smooth="yes"/>
      <point x="796.1072726013973" y="555.0"/>
      <point x="879.5880569710963" y="484.0"/>
      <point x="855.0786066526197" y="345.0" type="curve" smooth="yes"/>
      <point x="831.8034451991023" y="213.0"/>
      <point x="729.4629978774658" y="126.0"/>
      <point x="560.4629978774658" y="126.0" type="curve" smooth="yes"/>
      <point x="454.46299787746585" y="126.0"/>
      <point x="354.86873106722135" y="168.0"/>
      <point x="281.1536578325631" y="232.0" type="curve" smooth="yes"/>
      <point x="256.0328514081494" y="254.0"/>
      <point x="221.15121650460702" y="249.0"/>
      <point x="184.04017539201766" y="203.0" type="curve" smooth="yes"/>
      <point x="147.92913427942827" y="157.0"/>
      <point x="151.63932485817432" y="127.0"/>
      <point x="179.5838043018796" y="104.0" type="curve" smooth="yes"/>
      <point x="270.18295376803627" y="28.0"/>
      <point x="401.36660473261304" y="-22.0"/>
      <point x="534.366604732613" y="-22.0" type="curve" smooth="yes"/>
      <point x="796.366604732613" y="-22.0"/>
      <point x="970.8156518388828" y="128.0"/>
      <point x="1009.0786066526197" y="345.0" type="curve" smooth="yes"/>
      <point x="1033.5880569710962" y="484.0"/>
      <point x="978.8681010805259" y="582.0"/>
      <point x="869.5081231352407" y="631.0" type="curve"/>
      <point x="970.971818209247" y="679.0"/>
      <point x="1045.2543036466327" y="760.0"/>
      <point x="1066.23721435094" y="879.0" type="curve" smooth="yes"/>
      <point x="1101.6789374733414" y="1080.0"/>
      <point x="974.4251179847334" y="1209.0"/>
      <point x="743.4251179847334" y="1209.0" type="curve" smooth="yes"/>
      <point x="629.4251179847334" y="1209.0"/>
      <point x="511.60632762135407" y="1176.0"/>
    </contour>
  </outline>
</glyph>
<glyph name="four" format="2">
  <advance width="1080"/>
  <unicode hex="0034"/>
  <outline>
    <contour>
      <point x="779.4233738533178" y="1148.0" type="curve" smooth="yes"/>
      <point x="167.93896680109762" y="425.0" type="line" smooth="yes"/>
      <point x="159.17569699401298" y="415.0"/>
      <point x="151.00181134126058" y="397.0"/>
      <point x="147.29894474638283" y="376.0" type="curve" smooth="yes"/>
      <point x="138.48259571095957" y="326.0"/>
      <point x="154.25074817395642" y="302.0"/>
      <point x="199.25074817395642" y="302.0" type="curve" smooth="yes"/>
      <point x="629.2507481739565" y="302.0" type="line" smooth="yes"/>
      <point x="654.6907481739565" y="302.0"/>
      <point x="673.2728114891735" y="279.44"/>
      <point x="668.7870530999501" y="254.0" type="curve" smooth="yes"/>
      <point x="633.6979839389655" y="55.0" type="line" smooth="yes"/>
      <point x="625.5869428263762" y="9.0"/>
      <point x="640.2367301929154" y="-10.0"/>
      <point x="696.2367301929154" y="-10.0" type="curve" smooth="yes"/>
      <point x="698.2367301929154" y="-10.0" type="line" smooth="yes"/>
      <point x="754.2367301929154" y="-10.0"/>
      <point x="775.5869428263762" y="9.0"/>
      <point x="783.6979839389655" y="55.0" type="curve" smooth="yes"/>
      <point x="818.7870530999501" y="254.0" type="line" smooth="yes"/>
      <point x="823.2728114891735" y="279.44"/>
      <point x="849.8107481739564" y="302.0"/>
      <point x="875.2507481739565" y="302.0" type="curve" smooth="yes"/>
      <point x="989.2507481739565" y="302.0" type="line" smooth="yes"/>
      <point x="1034.2507481739565" y="302.0"/>
      <point x="1055.7772877881257" y="322.0"/>
      <point x="1064.9462907849659" y="374.0" type="curve" smooth="yes"/>
      <point x="1074.115293781806" y="426.0"/>
      <point x="1059.6418333959755" y="446.0"/>
      <point x="1014.6418333959754" y="446.0" type="curve" smooth="yes"/>
      <point x="900.6418333959754" y="446.0" type="line" smooth="yes"/>
      <point x="875.2018333959753" y="446.0"/>
      <point x="856.6197700807584" y="468.56"/>
      <point x="861.1055284699817" y="494.0" type="curve" smooth="yes"/>
      <point x="973.425815181274" y="1131.0" type="line" smooth="yes"/>
      <point x="981.7131832745717" y="1178.0"/>
      <point x="962.1793196765342" y="1209.0"/>
      <point x="900.1793196765342" y="1209.0" type="curve" smooth="yes"/>
      <point x="848.1793196765342" y="1209.0"/>
      <point x="813.6527800623649" y="1189.0"/>
    </contour>
    <contour>
      <point x="712.0156568936193" y="493.99513761017477" type="line" smooth="yes"/>
      <point x="707.1682555375243" y="468.55771467678215"/>
      <point x="680.3096165991004" y="446.0"/>
      <point x="654.8696165991004" y="446.0" type="curve" smooth="yes"/>
      <point x="404.64183339597537" y="446.0" type="line" smooth="yes"/>
      <point x="379.20183339597537" y="446.0"/>
      <point x="372.2526147278443" y="464.92953301052614"/>
      <point x="389.85626176165385" y="486.27560215005565" type="curve" smooth="yes"/>
      <point x="773.7019364971188" y="951.7243978499444" type="line" smooth="yes"/>
      <point x="791.3055835309284" y="973.0704669894739"/>
      <point x="802.6177259243734" y="969.4422853232179"/>
      <point x="797.7703245682783" y="944.0048623898252" type="curve" smooth="yes"/>
    </contour>
  </outline>
</glyph>
<glyph name="five" format="2">
  <advance width="1080"/>
  <unicode hex="0035"/>
  <outline>
    <contour>
      <point x="502.3345389074505" y="1187.0" type="line" smooth="yes"/>
      <point x="446.33453890745045" y="1187.0"/>
      <point x="425.9843262739896" y="1168.0"/>
      <point x="415.87328516140025" y="1122.0" type="curve" smooth="yes"/>
      <point x="307.7097948071678" y="622.0" type="line" smooth="yes"/>
      <point x="297.59875369457836" y="576.0"/>
      <point x="315.2485410611175" y="557.0"/>
      <point x="371.2485410611176" y="557.0" type="curve" smooth="yes"/>
      <point x="394.2485410611176" y="557.0"/>
      <point x="410.777522003243" y="560.0"/>
      <point x="423.01181086820225" y="567.0" type="curve" smooth="yes"/>
      <point x="495.94652500008317" y="612.0"/>
      <point x="567.5310264985033" y="638.0"/>
      <point x="662.5310264985033" y="638.0" type="curve" smooth="yes"/>
      <point x="813.5310264985033" y="638.0"/>
      <point x="890.1930205048229" y="534.0"/>
      <point x="864.0966273599701" y="386.0" type="curve" smooth="yes"/>
      <point x="836.5896183694496" y="230.0"/>
      <point x="717.2516123757691" y="126.0"/>
      <point x="552.2516123757691" y="126.0" type="curve" smooth="yes"/>
      <point x="449.2516123757692" y="126.0"/>
      <point x="351.3046916041078" y="166.0"/>
      <point x="277.88431044661564" y="226.0" type="curve" smooth="yes"/>
      <point x="252.76350402220186" y="248.0"/>
      <point x="217.88186911865955" y="243.0"/>
      <point x="180.77082800607016" y="197.0" type="curve" smooth="yes"/>
      <point x="144.65978689348077" y="151.0"/>
      <point x="150.19365049151835" y="120.0"/>
      <point x="178.13812993522367" y="97.0" type="curve" smooth="yes"/>
      <point x="268.44258732421423" y="25.0"/>
      <point x="396.1552192309164" y="-22.0"/>
      <point x="526.1552192309164" y="-22.0" type="curve" smooth="yes"/>
      <point x="784.1552192309164" y="-22.0"/>
      <point x="976.8361138741892" y="152.0"/>
      <point x="1018.0966273599701" y="386.0" type="curve" smooth="yes"/>
      <point x="1059.1808138650424" y="619.0"/>
      <point x="945.627419643356" y="786.0"/>
      <point x="701.627419643356" y="786.0" type="curve" smooth="yes"/>
      <point x="622.627419643356" y="786.0"/>
      <point x="547.1008800291868" y="766.0"/>
      <point x="506.29917267199403" y="745.12" type="curve" smooth="yes"/>
      <point x="490.63975877938867" y="737.1064"/>
      <point x="479.89344761675795" y="744.4832568535674"/>
      <point x="483.43468083660946" y="760.8154401139732" type="curve" smooth="yes"/>
      <point x="534.2203812132686" y="995.0393146980973" type="line" smooth="yes"/>
      <point x="539.7319030805463" y="1020.4584779081057"/>
      <point x="567.1794790760565" y="1043.0"/>
      <point x="592.6194790760566" y="1043.0" type="curve" smooth="yes"/>
      <point x="1010.9434536854316" y="1043.0" type="line" smooth="yes"/>
      <point x="1055.9434536854315" y="1043.0"/>
      <point x="1077.469993299601" y="1063.0"/>
      <point x="1086.638996296441" y="1115.0" type="curve" smooth="yes"/>
      <point x="1095.8079992932812" y="1167.0"/>
      <point x="1081.3345389074505" y="1187.0"/>
      <point x="1036.3345389074505" y="1187.0" type="curve" smooth="yes"/>
    </contour>
  </outline>
</glyph>
<glyph name="six" format="2">
  <advance width="1080"/>
  <unicode hex="0036"/>
  <outline>
    <contour>
      <point x="214.77941412273407" y="512.0" type="curve" smooth="yes"/>
      <point x="189.38832890071512" y="368.0"/>
      <point x="196.16868800349243" y="259.0"/>
      <point x="231.00456766256445" y="173.0" type="curve" smooth="yes"/>
      <point x="284.082060170464" y="43.0"/>
      <point x="401.6208064244138" y="-22.0"/>
      <point x="543.6208064244138" y="-22.0" type="curve" smooth="yes"/>
      <point x="790.6208064244138" y="-22.0"/>
      <point x="979.4804693763513" y="136.0"/>
      <point x="1017.7434241900881" y="353.0" type="curve" smooth="yes"/>
      <point x="1057.9459757916181" y="581.0"/>
      <point x="919.3950228978879" y="731.0"/>
      <point x="698.3950228978879" y="731.0" type="curve" smooth="yes"/>
      <point x="584.3950228978879" y="731.0"/>
      <point x="469.57867386246465" y="681.0"/>
      <point x="402.7486371225335" y="609.6915460471423" type="curve" smooth="yes"/>
      <point x="392.4708530153523" y="598.7250266421569"/>
      <point x="387.0960498665781" y="601.1143552403973"/>
      <point x="391.3128857421629" y="614.7752239157389" type="curve" smooth="yes"/>
      <point x="467.31753038998835" y="861.0"/>
      <point x="676.409040878929" y="1043.0"/>
      <point x="1046.7592535123897" y="1062.0" type="curve" smooth="yes"/>
      <point x="1072.9355804930983" y="1063.0"/>
      <point x="1091.4621201072675" y="1083.0"/>
      <point x="1096.865411969067" y="1142.0" type="curve" smooth="yes"/>
      <point x="1101.5633959080326" y="1197.0"/>
      <point x="1080.8556466572427" y="1210.0"/>
      <point x="1051.679319676534" y="1209.0" type="curve" smooth="yes"/>
      <point x="523.447472139531" y="1185.0"/>
      <point x="271.55670191085983" y="834.0"/>
    </contour>
    <contour>
      <point x="863.7434241900881" y="353.0" type="curve" smooth="yes"/>
      <point x="839.5866278330284" y="216.0"/>
      <point x="722.7171995692665" y="126.0"/>
      <point x="569.7171995692665" y="126.0" type="curve" smooth="yes"/>
      <point x="415.7171995692666" y="126.0"/>
      <point x="333.52622462082155" y="227.0"/>
      <point x="358.3883289007151" y="368.0" type="curve" smooth="yes"/>
      <point x="380.78185545069016" y="495.0"/>
      <point x="502.2986297530351" y="583.0"/>
      <point x="650.2986297530351" y="583.0" type="curve" smooth="yes"/>
      <point x="807.2986297530351" y="583.0"/>
      <point x="888.2528745085648" y="492.0"/>
    </contour>
  </outline>
</glyph>
<glyph name="seven" format="2">
  <advance width="1080"/>
  <unicode hex="0037"/>
  <outline>
    <contour>
      <point x="437.0403275472964" y="1187.0" type="line" smooth="yes"/>
      <point x="398.65446937133316" y="1187.0"/>
      <point x="379.77358648677864" y="1167.0"/>
      <point x="370.6045834899385" y="1115.0" type="curve" smooth="yes"/>
      <point x="361.43558049309826" y="1063.0"/>
      <point x="373.2633841493142" y="1043.0"/>
      <point x="411.64924232527744" y="1043.0" type="curve" smooth="yes"/>
      <point x="888.6863169982829" y="1043.0" type="line" smooth="yes"/>
      <point x="914.126316998283" y="1043.0"/>
      <point x="925.0761637048388" y="1021.8620607927454"/>
      <point x="911.9838631824443" y="998.0256612611604" type="curve" smooth="yes"/>
      <point x="394.5700213521832" y="56.0" type="line" smooth="yes"/>
      <point x="373.6923100139047" y="15.0"/>
      <point x="389.4039392286232" y="-12.0"/>
      <point x="426.3791815589187" y="-20.0" type="curve" smooth="yes"/>
      <point x="464.2074429597911" y="-28.0"/>
      <point x="498.4140532817657" y="-13.0"/>
      <point x="517.7334376266333" y="24.0" type="curve" smooth="yes"/>
      <point x="1090.838697760972" y="1079.0" type="line" smooth="yes"/>
      <point x="1094.8083708183706" y="1087.0"/>
      <point x="1100.0123327407284" y="1102.0"/>
      <point x="1103.0098914127723" y="1119.0" type="curve" smooth="yes"/>
      <point x="1111.8262404481957" y="1169.0"/>
      <point x="1099.6457828305627" y="1187.0"/>
      <point x="1061.2599246545994" y="1187.0" type="curve" smooth="yes"/>
    </contour>
  </outline>
</glyph>
<glyph name="eight" format="2">
  <advance width="1080"/>
  <unicode hex="0038"/>
  <outline>
    <contour>
      <point x="327.99141604274075" y="879.0" type="curve" smooth="yes"/>
      <point x="308.0664672226842" y="766.0"/>
      <point x="362.9023468817562" y="680.0"/>
      <point x="411.7288644412107" y="651.0" type="curve" smooth="yes"/>
      <point x="430.46814514592546" y="639.87"/>
      <point x="426.5834114606593" y="621.3994678027768"/>
      <point x="403.4634736214955" y="611.700995325057" type="curve" smooth="yes"/>
      <point x="320.74066786878427" y="577.0"/>
      <point x="219.93164281722932" y="476.0"/>
      <point x="195.9511734408781" y="340.0" type="curve" smooth="yes"/>
      <point x="159.0988344728089" y="131.0"/>
      <point x="302.1208064244138" y="-22.0"/>
      <point x="536.1208064244138" y="-22.0" type="curve" smooth="yes"/>
      <point x="770.1208064244138" y="-22.0"/>
      <point x="967.0988344728089" y="131.0"/>
      <point x="1003.951173440878" y="340.0" type="curve" smooth="yes"/>
      <point x="1027.9316428172294" y="476.0"/>
      <point x="962.7406678687843" y="577.0"/>
      <point x="891.3362090784223" y="611.8299462425979" type="curve" smooth="yes"/>
      <point x="871.5935971254148" y="621.460074734021"/>
      <point x="874.1845451459255" y="639.87"/>
      <point x="896.8488644412107" y="651.0" type="curve" smooth="yes"/>
      <point x="955.9023468817562" y="680.0"/>
      <point x="1042.0664672226842" y="766.0"/>
      <point x="1061.9914160427406" y="879.0" type="curve" smooth="yes"/>
      <point x="1094.6119074738067" y="1064.0"/>
      <point x="965.1793196765342" y="1209.0"/>
      <point x="753.1793196765342" y="1209.0" type="curve" smooth="yes"/>
      <point x="541.1793196765342" y="1209.0"/>
      <point x="360.6119074738067" y="1064.0"/>
    </contour>
    <contour>
      <point x="850.1275004215865" y="341.0" type="curve" smooth="yes"/>
      <point x="827.91030085232" y="215.0"/>
      <point x="709.2171995692665" y="126.0"/>
      <point x="562.2171995692665" y="126.0" type="curve" smooth="yes"/>
      <point x="415.2171995692666" y="126.0"/>
      <point x="327.91030085231995" y="215.0"/>
      <point x="350.12750042158655" y="341.0" type="curve" smooth="yes"/>
      <point x="372.34469999085314" y="467.0"/>
      <point x="490.68514731248956" y="554.0"/>
      <point x="637.6851473124896" y="554.0" type="curve" smooth="yes"/>
      <point x="784.6851473124896" y="554.0"/>
      <point x="872.3446999908531" y="467.0"/>
    </contour>
    <contour>
      <point x="909.4624351006153" y="876.0" type="curve" smooth="yes"/>
      <point x="891.3007560876434" y="773.0"/>
      <point x="785.1945976309662" y="693.0"/>
      <point x="662.1945976309662" y="693.0" type="curve" smooth="yes"/>
      <point x="539.1945976309662" y="693.0"/>
      <point x="461.30075608764344" y="773.0"/>
      <point x="479.4624351006153" y="876.0" type="curve" smooth="yes"/>
      <point x="499.5637109013803" y="990.0"/>
      <point x="604.0829265316813" y="1061.0"/>
      <point x="727.0829265316813" y="1061.0" type="curve" smooth="yes"/>
      <point x="850.0829265316813" y="1061.0"/>
      <point x="929.5637109013803" y="990.0"/>
    </contour>
  </outline>
</glyph>
<glyph name="nine" format="2">
  <advance width="1080"/>
  <unicode hex="0039"/>
  <outline>
    <contour>
      <point x="271.55670191085983" y="834.0" type="curve" smooth="yes"/>
      <point x="231.35415030932978" y="606.0"/>
      <point x="369.90510320306004" y="456.0"/>
      <point x="590.90510320306" y="456.0" type="curve" smooth="yes"/>
      <point x="704.90510320306" y="456.0"/>
      <point x="819.7214522384833" y="506.0"/>
      <point x="870.1428351062818" y="559.8002226821988" type="curve" smooth="yes"/>
      <point x="889.1172057656934" y="580.0461046606334"/>
      <point x="899.0399192711226" y="575.6350364792665"/>
      <point x="891.2549915008121" y="550.4149712324819" type="curve" smooth="yes"/>
      <point x="821.9825957109596" y="326.0"/>
      <point x="612.891085222019" y="144.0"/>
      <point x="242.54087258855813" y="125.0" type="curve" smooth="yes"/>
      <point x="216.36454560784966" y="124.0"/>
      <point x="197.83800599368035" y="104.0"/>
      <point x="192.43471413188092" y="45.0" type="curve" smooth="yes"/>
      <point x="187.73673019291536" y="-10.0"/>
      <point x="208.44447944370532" y="-23.0"/>
      <point x="237.62080642441376" y="-22.0" type="curve" smooth="yes"/>
      <point x="765.8526539614169" y="2.0"/>
      <point x="1017.7434241900881" y="353.0"/>
      <point x="1074.520711978214" y="675.0" type="curve" smooth="yes"/>
      <point x="1099.9117972002327" y="819.0"/>
      <point x="1093.1314380974554" y="928.0"/>
      <point x="1058.2955584383835" y="1014.0" type="curve" smooth="yes"/>
      <point x="1005.2180659304839" y="1144.0"/>
      <point x="887.6793196765342" y="1209.0"/>
      <point x="745.6793196765342" y="1209.0" type="curve" smooth="yes"/>
      <point x="498.6793196765342" y="1209.0"/>
      <point x="309.8196567245967" y="1051.0"/>
    </contour>
    <contour>
      <point x="930.9117972002329" y="819.0" type="curve" smooth="yes"/>
      <point x="908.5182706502578" y="692.0"/>
      <point x="787.0014963479128" y="604.0"/>
      <point x="639.0014963479128" y="604.0" type="curve" smooth="yes"/>
      <point x="482.00149634791285" y="604.0"/>
      <point x="401.0472515923832" y="695.0"/>
      <point x="425.55670191085983" y="834.0" type="curve" smooth="yes"/>
      <point x="449.7134982679195" y="971.0"/>
      <point x="566.5829265316813" y="1061.0"/>
      <point x="719.5829265316813" y="1061.0" type="curve" smooth="yes"/>
      <point x="873.5829265316813" y="1061.0"/>
      <point x="955.7739014801264" y="960.0"/>
    </contour>
  </outline>
</glyph>
<glyph name="less" format="2">
  <advance width="1172"/>
  <unicode hex="003C"/>
  <outline>
    <contour>
      <point x="461.2647908851941" y="571.7648753088056" type="line" smooth="yes"/>
      <point x="449.8877254851498" y="577.7194913951387"/>
      <point x="451.74991776295036" y="588.2805086048613"/>
      <point x="465.22690211455694" y="594.2351246911944" type="curve" smooth="yes"/>
      <point x="1168.5759175411608" y="905.0" type="line" smooth="yes"/>
      <point x="1214.10245715533" y="925.0"/>
      <point x="1229.2159395958756" y="954.0"/>
      <point x="1214.326980708465" y="1000.0" type="curve" smooth="yes"/>
      <point x="1200.0853678596375" y="1044.0"/>
      <point x="1173.553945589556" y="1058.0"/>
      <point x="1129.0274059753867" y="1038.0" type="curve" smooth="yes"/>
      <point x="284.8468263254615" y="657.0" type="line" smooth="yes"/>
      <point x="250.02559463412604" y="641.0"/>
      <point x="231.8517089813737" y="623.0"/>
      <point x="224.79862975303507" y="583.0" type="curve" smooth="yes"/>
      <point x="217.74555052469648" y="543.0"/>
      <point x="229.5716648719441" y="525.0"/>
      <point x="258.75043318060864" y="509.0" type="curve" smooth="yes"/>
      <point x="968.5698535306835" y="128.0" type="line" smooth="yes"/>
      <point x="1006.0433139165142" y="108.0"/>
      <point x="1037.5118916464328" y="122.0"/>
      <point x="1067.2702787976052" y="166.0" type="curve" smooth="yes"/>
      <point x="1098.3813199101946" y="212.0"/>
      <point x="1093.49480235074" y="241.0"/>
      <point x="1055.0213419649094" y="261.0" type="curve" smooth="yes"/>
    </contour>
  </outline>
</glyph>
<glyph name="greater" format="2">
  <advance width="1172"/>
  <unicode hex="003E"/>
  <outline>
    <contour>
      <point x="898.2341804458023" y="603.7417686606666" type="line" smooth="yes"/>
      <point x="919.2379934920381" y="592.7486312705133"/>
      <point x="915.8001000560986" y="573.2513687294867"/>
      <point x="890.9195135608247" y="562.2582313393334" type="curve" smooth="yes"/>
      <point x="209.08672859397018" y="261.0" type="line" smooth="yes"/>
      <point x="163.56018897980087" y="241.0"/>
      <point x="148.4467065392554" y="212.0"/>
      <point x="163.335665426666" y="166.0" type="curve" smooth="yes"/>
      <point x="177.57727827549354" y="122.0"/>
      <point x="204.10870054557503" y="108.0"/>
      <point x="248.63524015974434" y="128.0" type="curve" smooth="yes"/>
      <point x="1092.8158198096696" y="509.0" type="line" smooth="yes"/>
      <point x="1127.6370515010049" y="525.0"/>
      <point x="1145.8109371537573" y="543.0"/>
      <point x="1152.864016382096" y="583.0" type="curve" smooth="yes"/>
      <point x="1159.9170956104344" y="623.0"/>
      <point x="1148.090981263187" y="641.0"/>
      <point x="1118.9122129545224" y="657.0" type="curve" smooth="yes"/>
      <point x="409.0927926044475" y="1038.0" type="line" smooth="yes"/>
      <point x="371.61933221861676" y="1058.0"/>
      <point x="340.1507544886982" y="1044.0"/>
      <point x="310.3923673375258" y="1000.0" type="curve" smooth="yes"/>
      <point x="279.2813262249364" y="954.0"/>
      <point x="284.1678437843909" y="925.0"/>
      <point x="322.6413041702216" y="905.0" type="curve" smooth="yes"/>
    </contour>
  </outline>
</glyph>
<glyph name="question" format="2">
  <advance width="888"/>
  <unicode hex="003F"/>
  <outline>
    <contour>
      <point x="340.16749307250046" y="1191.0" type="curve" smooth="yes"/>
      <point x="299.6409534583312" y="1171.0"/>
      <point x="281.8801249792026" y="1144.0"/>
      <point x="296.53479500165395" y="1091.0" type="curve" smooth="yes"/>
      <point x="310.3657920048138" y="1039.0"/>
      <point x="341.1894650241053" y="1038.0"/>
      <point x="374.01069671544076" y="1054.0" type="curve" smooth="yes"/>
      <point x="465.7690838666132" y="1098.0"/>
      <point x="555.8246044229079" y="1121.0"/>
      <point x="646.8246044229079" y="1121.0" type="curve" smooth="yes"/>
      <point x="771.8246044229079" y="1121.0"/>
      <point x="827.8343697347323" y="1053.0"/>
      <point x="810.7306526060112" y="956.0" type="curve" smooth="yes"/>
      <point x="793.0979545351647" y="856.0"/>
      <point x="718.2816054997414" y="806.0"/>
      <point x="555.3493326958167" y="744.0" type="curve" smooth="yes"/>
      <point x="481.4121772359796" y="716.0" type="line" smooth="yes"/>
      <point x="456.8252344096034" y="707.0"/>
      <point x="446.004002718268" y="691.0"/>
      <point x="442.4195012198479" y="665.0" type="curve" smooth="yes"/>
      <point x="412.7459305604433" y="440.0" type="line" smooth="yes"/>
      <point x="409.27979415848085" y="409.0"/>
      <point x="430.7532545443115" y="389.0"/>
      <point x="472.7532545443115" y="389.0" type="curve" smooth="yes"/>
      <point x="514.7532545443115" y="389.0"/>
      <point x="543.2797941584809" y="409.0"/>
      <point x="550.7459305604433" y="440.0" type="curve" smooth="yes"/>
      <point x="584.8032872849741" y="585.0443444175946" type="line" smooth="yes"/>
      <point x="588.0334024825809" y="598.8008418762695"/>
      <point x="603.0268534659402" y="615.614057366995"/>
      <point x="616.7042468240364" y="620.8171433340319" type="curve" smooth="yes"/>
      <point x="811.7093106411019" y="695.0"/>
      <point x="933.6971040013213" y="780.0"/>
      <point x="964.7306526060112" y="956.0" type="curve" smooth="yes"/>
      <point x="997.3511440370772" y="1141.0"/>
      <point x="891.9209975677608" y="1269.0"/>
      <point x="671.9209975677608" y="1269.0" type="curve" smooth="yes"/>
      <point x="556.9209975677608" y="1269.0"/>
      <point x="447.51282305004906" y="1244.0"/>
    </contour>
    <contour>
      <point x="318.6086648270323" y="167.0" type="curve" smooth="yes"/>
      <point x="298.50738902626733" y="53.0" type="line" smooth="yes"/>
      <point x="290.5726748943864" y="8.0"/>
      <point x="321.398789241634" y="-10.0"/>
      <point x="402.398789241634" y="-10.0" type="curve" smooth="yes"/>
      <point x="483.398789241634" y="-10.0"/>
      <point x="520.5726748943864" y="8.0"/>
      <point x="528.5073890262673" y="53.0" type="curve" smooth="yes"/>
      <point x="548.6086648270323" y="167.0" type="line" smooth="yes"/>
      <point x="556.5433789589133" y="212.0"/>
      <point x="525.7172646116657" y="230.0"/>
      <point x="444.7172646116656" y="230.0" type="curve" smooth="yes"/>
      <point x="363.7172646116656" y="230.0"/>
      <point x="326.54337895891325" y="212.0"/>
    </contour>
  </outline>
</glyph>
<glyph name="at" format="2">
  <advance width="1304"/>
  <unicode hex="0040"/>
  <outline>
    <contour>
      <point x="160.59119549559287" y="389.0" type="curve" smooth="yes"/>
      <point x="101.52165695825711" y="54.0"/>
      <point x="257.0219719516049" y="-153.0"/>
      <point x="577.0219719516049" y="-153.0" type="curve" smooth="yes"/>
      <point x="687.0219719516049" y="-153.0"/>
      <point x="796.7248385464826" y="-132.0"/>
      <point x="872.190974948445" y="-101.0" type="curve" smooth="yes"/>
      <point x="894.7779177748213" y="-92.0"/>
      <point x="907.3044573889905" y="-72.0"/>
      <point x="902.6522286944953" y="-36.0" type="curve" smooth="yes"/>
      <point x="898.0" y="0.0"/>
      <point x="882.4685777299185" y="14.0"/>
      <point x="858.2342888649592" y="7.0" type="curve" smooth="yes"/>
      <point x="787.5314222700815" y="-14.0"/>
      <point x="692.710190578746" y="-30.0"/>
      <point x="596.710190578746" y="-30.0" type="curve" smooth="yes"/>
      <point x="347.71019057874605" y="-30.0"/>
      <point x="238.45148843422584" y="133.0"/>
      <point x="283.59119549559284" y="389.0" type="curve" smooth="yes"/>
      <point x="340.19215630301017" y="710.0"/>
      <point x="588.392266576584" y="955.0"/>
      <point x="865.392266576584" y="955.0" type="curve" smooth="yes"/>
      <point x="1108.392266576584" y="955.0"/>
      <point x="1230.6509687211042" y="792.0"/>
      <point x="1184.629626756195" y="531.0" type="curve" smooth="yes"/>
      <point x="1156.5936368235489" y="372.0"/>
      <point x="1077.3739959263262" y="263.0"/>
      <point x="976.3739959263263" y="263.0" type="curve" smooth="yes"/>
      <point x="916.3739959263263" y="263.0"/>
      <point x="896.0719798652918" y="318.0"/>
      <point x="933.2361002062198" y="404.0" type="curve" smooth="yes"/>
      <point x="1063.4868483801763" y="706.0" type="line" smooth="yes"/>
      <point x="1072.0133879943455" y="726.0"/>
      <point x="1055.0109466663894" y="743.0"/>
      <point x="1032.5978894927657" y="752.0" type="curve" smooth="yes"/>
      <point x="1010.1848323191418" y="761.0"/>
      <point x="982.3611592998503" y="762.0"/>
      <point x="972.8925815699317" y="748.0" type="curve" smooth="yes"/>
      <point x="946.3766590002415" y="708.3286946031365" type="line" smooth="yes"/>
      <point x="938.1125400763218" y="695.9644864634741"/>
      <point x="928.0003187798278" y="696.2515860266433"/>
      <point x="924.8612945396163" y="708.9395447375389" type="curve" smooth="yes"/>
      <point x="916.187273647098" y="744.0"/>
      <point x="884.416679856145" y="785.0"/>
      <point x="820.416679856145" y="785.0" type="curve" smooth="yes"/>
      <point x="640.416679856145" y="785.0"/>
      <point x="459.5112616597372" y="536.0"/>
      <point x="427.948732112922" y="357.0" type="curve" smooth="yes"/>
      <point x="402.7339738716115" y="214.0"/>
      <point x="466.2751614535174" y="132.0"/>
      <point x="564.2751614535174" y="132.0" type="curve" smooth="yes"/>
      <point x="654.2751614535174" y="132.0"/>
      <point x="721.9731453924829" y="187.0"/>
      <point x="777.384099519063" y="245.42086242251523" type="curve" smooth="yes"/>
      <point x="787.729104514239" y="256.32780533858215"/>
      <point x="799.1123688609164" y="254.53577898296163"/>
      <point x="801.6038108949725" y="241.6080403892801" type="curve" smooth="yes"/>
      <point x="813.0915104889407" y="182.0"/>
      <point x="868.1567963570596" y="137.0"/>
      <point x="955.1567963570596" y="137.0" type="curve" smooth="yes"/>
      <point x="1123.1567963570596" y="137.0"/>
      <point x="1264.1927862897057" y="296.0"/>
      <point x="1305.629626756195" y="531.0" type="curve" smooth="yes"/>
      <point x="1362.230587563612" y="852.0"/>
      <point x="1202.0804852037252" y="1078.0"/>
      <point x="892.0804852037252" y="1078.0" type="curve" smooth="yes"/>
      <point x="541.0804852037252" y="1078.0"/>
      <point x="229.71137193331114" y="781.0"/>
    </contour>
    <contour>
      <point x="852.9194361774488" y="561.0" type="curve" smooth="yes"/>
      <point x="829.8206017046399" y="430.0"/>
      <point x="715.9029768684517" y="266.0"/>
      <point x="612.9029768684517" y="266.0" type="curve" smooth="yes"/>
      <point x="574.9029768684517" y="266.0"/>
      <point x="551.8401323282887" y="294.0"/>
      <point x="563.3013860743389" y="359.0" type="curve" smooth="yes"/>
      <point x="589.5741061999003" y="508.0"/>
      <point x="721.02315330617" y="658.0"/>
      <point x="794.02315330617" y="658.0" type="curve" smooth="yes"/>
      <point x="841.02315330617" y="658.0"/>
      <point x="863.8517089813737" y="623.0"/>
    </contour>
  </outline>
</glyph>
<glyph name="A" format="2">
  <advance width="1133"/>
  <unicode hex="0041"/>
  <outline>
    <contour>
      <point x="656.1062302757008" y="1144.0" type="curve" smooth="yes"/>
      <point x="75.19963072472794" y="84.0" type="line" smooth="yes"/>
      <point x="51.441243573555475" y="40.0"/>
      <point x="60.20939603655232" y="16.0"/>
      <point x="111.03551038379995" y="-2.0" type="curve" smooth="yes"/>
      <point x="160.86162473104756" y="-20.0"/>
      <point x="187.97754849954916" y="-8.0"/>
      <point x="211.73593565072161" y="36.0" type="curve" smooth="yes"/>
      <point x="372.60420518604155" y="330.0" type="line"/>
      <point x="876.547930771979" y="330.0" type="line"/>
      <point x="933.7359356507216" y="36.0" type="line" smooth="yes"/>
      <point x="941.9775484995491" y="-8.0"/>
      <point x="964.8616247310475" y="-20.0"/>
      <point x="1021.0355103838" y="-2.0" type="curve" smooth="yes"/>
      <point x="1078.2093960365523" y="16.0"/>
      <point x="1095.4412435735555" y="40.0"/>
      <point x="1087.199630724728" y="84.0" type="curve" smooth="yes"/>
      <point x="880.1062302757008" y="1144.0" type="line" smooth="yes"/>
      <point x="871.3935983689987" y="1191.0"/>
      <point x="842.567484021751" y="1209.0"/>
      <point x="779.567484021751" y="1209.0" type="curve" smooth="yes"/>
      <point x="716.567484021751" y="1209.0"/>
      <point x="681.3935983689987" y="1191.0"/>
    </contour>
    <contour>
      <point x="450.2226768826699" y="474.0" type="line"/>
      <point x="748.2972052241458" y="1043.0" type="line"/>
      <point x="752.2972052241458" y="1043.0" type="line"/>
      <point x="849.375295290873" y="474.0" type="line"/>
    </contour>
  </outline>
</glyph>
<glyph name="B" format="2">
  <advance width="1009"/>
  <unicode hex="0042"/>
  <outline>
    <contour>
      <point x="342.3001261009479" y="1187.0" type="line" smooth="yes"/>
      <point x="297.3001261009479" y="1187.0"/>
      <point x="276.1262404481955" y="1169.0"/>
      <point x="267.30989141277234" y="1119.0" type="curve" smooth="yes"/>
      <point x="81.99023468817562" y="68.0" type="line" smooth="yes"/>
      <point x="73.17388565275238" y="18.0"/>
      <point x="88.0" y="0.0"/>
      <point x="133.0" y="0.0" type="curve" smooth="yes"/>
      <point x="555.0" y="0.0" type="line" smooth="yes"/>
      <point x="801.0" y="0.0"/>
      <point x="961.2171995692665" y="126.0"/>
      <point x="998.2458655180442" y="336.0" type="curve" smooth="yes"/>
      <point x="1023.6369507400632" y="480.0"/>
      <point x="966.5643408880758" y="576.0"/>
      <point x="871.6098697743296" y="613.9131794953263" type="curve" smooth="yes"/>
      <point x="859.5480445540629" y="618.7291943628034"/>
      <point x="860.508830357858" y="629.1176385408276"/>
      <point x="873.6540948887869" y="636.0162522145267" type="curve" smooth="yes"/>
      <point x="940.31540405538" y="671.0"/>
      <point x="1005.2452355313487" y="750.0"/>
      <point x="1024.288549447863" y="858.0" type="curve" smooth="yes"/>
      <point x="1058.3196567245966" y="1051.0"/>
      <point x="957.3001261009479" y="1187.0"/>
      <point x="718.3001261009479" y="1187.0" type="curve" smooth="yes"/>
    </contour>
    <contour>
      <point x="844.2458655180442" y="336.0" type="curve" smooth="yes"/>
      <point x="821.4996850066523" y="207.0"/>
      <point x="715.391085222019" y="144.0"/>
      <point x="560.391085222019" y="144.0" type="curve" smooth="yes"/>
      <point x="271.39108522201894" y="144.0" type="line" smooth="yes"/>
      <point x="257.61108522201897" y="144.0"/>
      <point x="247.5458009262764" y="156.22"/>
      <point x="249.97558672043905" y="170.0" type="curve" smooth="yes"/>
      <point x="309.0451252577748" y="505.0" type="line" smooth="yes"/>
      <point x="311.47491105193745" y="518.78"/>
      <point x="325.84962675619494" y="531.0"/>
      <point x="339.6296267561949" y="531.0" type="curve" smooth="yes"/>
      <point x="623.6296267561949" y="531.0" type="line" smooth="yes"/>
      <point x="790.6296267561949" y="531.0"/>
      <point x="867.3446999908531" y="467.0"/>
    </contour>
    <contour>
      <point x="870.2885494478629" y="858.0" type="curve" smooth="yes"/>
      <point x="849.834619685681" y="742.0"/>
      <point x="762.0207119782139" y="675.0"/>
      <point x="606.0207119782139" y="675.0" type="curve" smooth="yes"/>
      <point x="365.02071197821385" y="675.0" type="line" smooth="yes"/>
      <point x="351.2407119782139" y="675.0"/>
      <point x="341.1754276824713" y="687.22"/>
      <point x="343.60521347663393" y="701.0" type="curve" smooth="yes"/>
      <point x="399.3245393805089" y="1017.0" type="line" smooth="yes"/>
      <point x="401.7543251746715" y="1030.78"/>
      <point x="416.129040878929" y="1043.0"/>
      <point x="429.909040878929" y="1043.0" type="curve" smooth="yes"/>
      <point x="670.909040878929" y="1043.0" type="line" smooth="yes"/>
      <point x="827.909040878929" y="1043.0"/>
      <point x="891.6241141135872" y="979.0"/>
    </contour>
  </outline>
</glyph>
<glyph name="C" format="2">
  <advance width="1044"/>
  <unicode hex="0043"/>
  <outline>
    <contour>
      <point x="164.73822654082818" y="594.0" type="curve" smooth="yes"/>
      <point x="99.49724367869615" y="224.0"/>
      <point x="261.1208064244138" y="-22.0"/>
      <point x="570.1208064244138" y="-22.0" type="curve" smooth="yes"/>
      <point x="703.1208064244138" y="-22.0"/>
      <point x="827.7632698070846" y="10.0"/>
      <point x="960.9298314759687" y="79.0" type="curve" smooth="yes"/>
      <point x="1002.809025051555" y="101.0"/>
      <point x="1017.4514884342259" y="133.0"/>
      <point x="1003.2678374696491" y="183.0" type="curve" smooth="yes"/>
      <point x="988.4368404664892" y="235.0"/>
      <point x="954.0841865050724" y="233.0"/>
      <point x="922.0866278330284" y="216.0" type="curve" smooth="yes"/>
      <point x="814.8596629519375" y="158.0"/>
      <point x="707.2171995692665" y="126.0"/>
      <point x="596.2171995692665" y="126.0" type="curve" smooth="yes"/>
      <point x="379.2171995692666" y="126.0"/>
      <point x="267.9560560967903" y="306.0"/>
      <point x="318.7382265408282" y="594.0" type="curve" smooth="yes"/>
      <point x="369.5203969848661" y="882.0"/>
      <point x="544.0829265316813" y="1061.0"/>
      <point x="761.0829265316813" y="1061.0" type="curve" smooth="yes"/>
      <point x="872.0829265316813" y="1061.0"/>
      <point x="968.4404631490105" y="1029.0"/>
      <point x="1055.2134982679195" y="971.0" type="curve" smooth="yes"/>
      <point x="1081.2159395958756" y="954.0"/>
      <point x="1114.8632856344586" y="952.0"/>
      <point x="1148.0322886312988" y="1004.0" type="curve" smooth="yes"/>
      <point x="1179.848637666722" y="1054.0"/>
      <point x="1176.491101049393" y="1086.0"/>
      <point x="1142.3702946249791" y="1108.0" type="curve" smooth="yes"/>
      <point x="1033.5368562938634" y="1177.0"/>
      <point x="920.1793196765342" y="1209.0"/>
      <point x="787.1793196765342" y="1209.0" type="curve" smooth="yes"/>
      <point x="478.1793196765342" y="1209.0"/>
      <point x="229.97920940296024" y="964.0"/>
    </contour>
  </outline>
</glyph>
<glyph name="D" format="2">
  <advance width="1065"/>
  <unicode hex="0044"/>
  <outline>
    <contour>
      <point x="342.3001261009479" y="1187.0" type="line" smooth="yes"/>
      <point x="297.3001261009479" y="1187.0"/>
      <point x="276.1262404481955" y="1169.0"/>
      <point x="267.30989141277234" y="1119.0" type="curve" smooth="yes"/>
      <point x="81.99023468817562" y="68.0" type="line" smooth="yes"/>
      <point x="73.17388565275238" y="18.0"/>
      <point x="88.0" y="0.0"/>
      <point x="133.0" y="0.0" type="curve" smooth="yes"/>
      <point x="469.0" y="0.0" type="line" smooth="yes"/>
      <point x="784.0" y="0.0"/>
      <point x="1034.3209166979877" y="223.0"/>
      <point x="1099.5618995601196" y="593.0" type="curve" smooth="yes"/>
      <point x="1164.8028824222517" y="963.0"/>
      <point x="993.3001261009479" y="1187.0"/>
      <point x="678.3001261009479" y="1187.0" type="curve" smooth="yes"/>
    </contour>
    <contour>
      <point x="945.5618995601197" y="593.0" type="curve" smooth="yes"/>
      <point x="893.0164593089971" y="295.0"/>
      <point x="712.391085222019" y="144.0"/>
      <point x="475.39108522201894" y="144.0" type="curve" smooth="yes"/>
      <point x="271.39108522201894" y="144.0" type="line" smooth="yes"/>
      <point x="257.61108522201897" y="144.0"/>
      <point x="247.5458009262764" y="156.22"/>
      <point x="249.97558672043905" y="170.0" type="curve" smooth="yes"/>
      <point x="399.3245393805089" y="1017.0" type="line" smooth="yes"/>
      <point x="401.7543251746715" y="1030.78"/>
      <point x="416.129040878929" y="1043.0"/>
      <point x="429.909040878929" y="1043.0" type="curve" smooth="yes"/>
      <point x="633.909040878929" y="1043.0" type="line" smooth="yes"/>
      <point x="870.909040878929" y="1043.0"/>
      <point x="998.1073398112424" y="891.0"/>
    </contour>
  </outline>
</glyph>
<glyph name="E" format="2">
  <advance width="831"/>
  <unicode hex="0045"/>
  <outline>
    <contour>
      <point x="342.3001261009479" y="1187.0" type="line" smooth="yes"/>
      <point x="297.3001261009479" y="1187.0"/>
      <point x="276.1262404481955" y="1169.0"/>
      <point x="267.30989141277234" y="1119.0" type="curve" smooth="yes"/>
      <point x="81.99023468817562" y="68.0" type="line" smooth="yes"/>
      <point x="73.17388565275238" y="18.0"/>
      <point x="88.0" y="0.0"/>
      <point x="133.0" y="0.0" type="curve" smooth="yes"/>
      <point x="709.7926315789473" y="0.0" type="line" smooth="yes"/>
      <point x="746.405037593985" y="0.0"/>
      <point x="764.5765396141693" y="20.0"/>
      <point x="773.7455426110095" y="72.0" type="curve" smooth="yes"/>
      <point x="782.9145456078496" y="124.0"/>
      <point x="771.796122816004" y="144.0"/>
      <point x="735.1837168009663" y="144.0" type="curve" smooth="yes"/>
      <point x="245.39108522201894" y="144.0" type="line"/>
      <point x="315.2165695825711" y="540.0" type="line"/>
      <point x="687.0358928908418" y="540.0" type="line" smooth="yes"/>
      <point x="723.6482989058793" y="540.0"/>
      <point x="741.8198009260637" y="560.0"/>
      <point x="750.9888039229039" y="612.0" type="curve" smooth="yes"/>
      <point x="760.1578069197441" y="664.0"/>
      <point x="749.0393841278983" y="684.0"/>
      <point x="712.4269781128608" y="684.0" type="curve" smooth="yes"/>
      <point x="340.60765480459" y="684.0" type="line"/>
      <point x="403.909040878929" y="1043.0" type="line"/>
      <point x="877.4294920067485" y="1043.0" type="line" smooth="yes"/>
      <point x="914.0418980217861" y="1043.0"/>
      <point x="932.2134000419703" y="1063.0"/>
      <point x="941.3824030388106" y="1115.0" type="curve" smooth="yes"/>
      <point x="950.5514060356508" y="1167.0"/>
      <point x="939.432983243805" y="1187.0"/>
      <point x="902.8205772287674" y="1187.0" type="curve" smooth="yes"/>
    </contour>
  </outline>
</glyph>
<glyph name="F" format="2">
  <advance width="849"/>
  <unicode hex="0046"/>
  <outline>
    <contour>
      <point x="351.3001261009479" y="1187.0" type="line" smooth="yes"/>
      <point x="309.3001261009479" y="1187.0"/>
      <point x="285.1262404481955" y="1169.0"/>
      <point x="276.30989141277234" y="1119.0" type="curve" smooth="yes"/>
      <point x="88.69798393896558" y="55.0" type="line" smooth="yes"/>
      <point x="80.58694282637619" y="9.0"/>
      <point x="95.23673019291535" y="-10.0"/>
      <point x="151.23673019291536" y="-10.0" type="curve" smooth="yes"/>
      <point x="153.23673019291536" y="-10.0" type="line" smooth="yes"/>
      <point x="209.23673019291536" y="-10.0"/>
      <point x="230.58694282637617" y="9.0"/>
      <point x="238.69798393896556" y="55.0" type="curve" smooth="yes"/>
      <point x="308.69979528022617" y="452.0" type="line" smooth="yes"/>
      <point x="313.1855536694495" y="477.44"/>
      <point x="339.72349035423247" y="500.0"/>
      <point x="365.1634903542325" y="500.0" type="curve" smooth="yes"/>
      <point x="708.9004670984185" y="500.0" type="line" smooth="yes"/>
      <point x="746.6481415170232" y="500.0"/>
      <point x="765.2737508986343" y="520.0"/>
      <point x="774.4427538954744" y="572.0" type="curve" smooth="yes"/>
      <point x="783.6117568923147" y="624.0"/>
      <point x="772.0392267390421" y="644.0"/>
      <point x="734.2915523204374" y="644.0" type="curve" smooth="yes"/>
      <point x="390.5545755762514" y="644.0" type="line" smooth="yes"/>
      <point x="365.11457557625147" y="644.0"/>
      <point x="346.5325122610344" y="666.56"/>
      <point x="351.01827065025776" y="692.0" type="curve" smooth="yes"/>
      <point x="404.4453458049227" y="995.0" type="line" smooth="yes"/>
      <point x="408.931104194146" y="1020.44"/>
      <point x="435.469040878929" y="1043.0"/>
      <point x="460.909040878929" y="1043.0" type="curve" smooth="yes"/>
      <point x="901.1122966928824" y="1043.0" type="line" smooth="yes"/>
      <point x="938.8599711114871" y="1043.0"/>
      <point x="957.4855804930983" y="1063.0"/>
      <point x="966.6545834899384" y="1115.0" type="curve" smooth="yes"/>
      <point x="975.8235864867786" y="1167.0"/>
      <point x="964.2510563335061" y="1187.0"/>
      <point x="926.5033819149014" y="1187.0" type="curve" smooth="yes"/>
    </contour>
  </outline>
</glyph>
<glyph name="G" format="2">
  <advance width="1093"/>
  <unicode hex="0047"/>
  <outline>
    <contour>
      <point x="164.73822654082818" y="594.0" type="curve" smooth="yes"/>
      <point x="99.49724367869615" y="224.0"/>
      <point x="265.1208064244138" y="-22.0"/>
      <point x="580.1208064244138" y="-22.0" type="curve" smooth="yes"/>
      <point x="734.1208064244138" y="-22.0"/>
      <point x="888.9395967877931" y="11.0"/>
      <point x="1010.0481965724264" y="74.0" type="curve" smooth="yes"/>
      <point x="1035.3404473216365" y="87.0"/>
      <point x="1052.5722948586397" y="111.0"/>
      <point x="1058.2147582413104" y="143.0" type="curve" smooth="yes"/>
      <point x="1125.7479918526526" y="526.0" type="line" smooth="yes"/>
      <point x="1134.5643408880758" y="576.0"/>
      <point x="1119.7382265408282" y="594.0"/>
      <point x="1074.7382265408282" y="594.0" type="curve" smooth="yes"/>
      <point x="720.7382265408282" y="594.0" type="line" smooth="yes"/>
      <point x="675.7382265408282" y="594.0"/>
      <point x="654.2116869266589" y="574.0"/>
      <point x="645.0426839298187" y="522.0" type="curve" smooth="yes"/>
      <point x="635.8736809329786" y="470.0"/>
      <point x="650.3471413188092" y="450.0"/>
      <point x="695.3471413188092" y="450.0" type="curve" smooth="yes"/>
      <point x="936.3471413188092" y="450.0" type="line" smooth="yes"/>
      <point x="950.1271413188092" y="450.0"/>
      <point x="960.1924256145518" y="437.78"/>
      <point x="957.7626398203892" y="424.0" type="curve" smooth="yes"/>
      <point x="919.7952161939081" y="208.67604064941406" type="line" smooth="yes"/>
      <point x="917.3654303997455" y="194.89604064941406"/>
      <point x="903.208827860614" y="177.56805600663589"/>
      <point x="889.6747852595856" y="171.80798821797111" type="curve" smooth="yes"/>
      <point x="821.0926160101099" y="142.61952209472656"/>
      <point x="719.252966170829" y="126.0"/>
      <point x="606.2171995692665" y="126.0" type="curve" smooth="yes"/>
      <point x="384.2171995692666" y="126.0"/>
      <point x="267.9560560967903" y="306.0"/>
      <point x="318.7382265408282" y="594.0" type="curve" smooth="yes"/>
      <point x="369.5203969848661" y="882.0"/>
      <point x="564.0829265316813" y="1061.0"/>
      <point x="781.0829265316813" y="1061.0" type="curve" smooth="yes"/>
      <point x="892.0829265316813" y="1061.0"/>
      <point x="989.6747520139697" y="1036.0"/>
      <point x="1077.8004410942956" y="980.0" type="curve" smooth="yes"/>
      <point x="1104.8028824222517" y="963.0"/>
      <point x="1138.6265554415434" y="962.0"/>
      <point x="1170.971885419092" y="1015.0" type="curve" smooth="yes"/>
      <point x="1200.788234454515" y="1065.0"/>
      <point x="1197.430697837186" y="1097.0"/>
      <point x="1162.1335644320638" y="1118.0" type="curve" smooth="yes"/>
      <point x="1051.7711451588225" y="1184.0"/>
      <point x="940.1793196765342" y="1209.0"/>
      <point x="807.1793196765342" y="1209.0" type="curve" smooth="yes"/>
      <point x="498.1793196765342" y="1209.0"/>
      <point x="229.97920940296024" y="964.0"/>
    </contour>
  </outline>
</glyph>
<glyph name="H" format="2">
  <advance width="1030"/>
  <unicode hex="0048"/>
  <outline>
    <contour>
      <point x="1089.0633959080326" y="1197.0" type="line" smooth="yes"/>
      <point x="1033.0633959080326" y="1197.0"/>
      <point x="1011.7131832745717" y="1178.0"/>
      <point x="1003.6021421619823" y="1132.0" type="curve" smooth="yes"/>
      <point x="929.1921563030102" y="710.0" type="line" smooth="yes"/>
      <point x="926.7623705088475" y="696.22"/>
      <point x="912.38765480459" y="684.0"/>
      <point x="898.6076548045901" y="684.0" type="curve" smooth="yes"/>
      <point x="372.60765480459" y="684.0" type="line" smooth="yes"/>
      <point x="358.82765480459005" y="684.0"/>
      <point x="348.7623705088475" y="696.22"/>
      <point x="351.19215630301017" y="710.0" type="curve" smooth="yes"/>
      <point x="425.60214216198233" y="1132.0" type="line" smooth="yes"/>
      <point x="433.71318327457175" y="1178.0"/>
      <point x="419.0633959080326" y="1197.0"/>
      <point x="363.0633959080326" y="1197.0" type="curve" smooth="yes"/>
      <point x="361.0633959080326" y="1197.0" type="line" smooth="yes"/>
      <point x="305.0633959080326" y="1197.0"/>
      <point x="283.71318327457175" y="1178.0"/>
      <point x="275.60214216198233" y="1132.0" type="curve" smooth="yes"/>
      <point x="85.69798393896558" y="55.0" type="line" smooth="yes"/>
      <point x="77.58694282637619" y="9.0"/>
      <point x="92.23673019291535" y="-10.0"/>
      <point x="148.23673019291536" y="-10.0" type="curve" smooth="yes"/>
      <point x="150.23673019291536" y="-10.0" type="line" smooth="yes"/>
      <point x="206.23673019291536" y="-10.0"/>
      <point x="227.58694282637617" y="9.0"/>
      <point x="235.69798393896556" y="55.0" type="curve" smooth="yes"/>
      <point x="316.632068084151" y="514.0" type="line" smooth="yes"/>
      <point x="319.0618538783136" y="527.78"/>
      <point x="333.4365695825711" y="540.0"/>
      <point x="347.2165695825711" y="540.0" type="curve" smooth="yes"/>
      <point x="873.2165695825711" y="540.0" type="line" smooth="yes"/>
      <point x="886.996569582571" y="540.0"/>
      <point x="897.0618538783136" y="527.78"/>
      <point x="894.632068084151" y="514.0" type="curve" smooth="yes"/>
      <point x="813.6979839389655" y="55.0" type="line" smooth="yes"/>
      <point x="805.5869428263762" y="9.0"/>
      <point x="820.2367301929154" y="-10.0"/>
      <point x="876.2367301929154" y="-10.0" type="curve" smooth="yes"/>
      <point x="878.2367301929154" y="-10.0" type="line" smooth="yes"/>
      <point x="934.2367301929154" y="-10.0"/>
      <point x="955.5869428263762" y="9.0"/>
      <point x="963.6979839389655" y="55.0" type="curve" smooth="yes"/>
      <point x="1153.6021421619823" y="1132.0" type="line" smooth="yes"/>
      <point x="1161.7131832745717" y="1178.0"/>
      <point x="1147.0633959080326" y="1197.0"/>
      <point x="1091.0633959080326" y="1197.0" type="curve" smooth="yes"/>
    </contour>
  </outline>
</glyph>
<glyph name="I" format="2">
  <advance width="520"/>
  <unicode hex="0049"/>
  <outline>
    <contour>
      <point x="128.18887283263837" y="144.0" type="line" smooth="yes"/>
      <point x="114.76188168219592" y="144.0"/>
      <point x="105.86454560784966" y="124.0"/>
      <point x="96.69554261100947" y="72.0" type="curve" smooth="yes"/>
      <point x="87.5265396141693" y="20.0"/>
      <point x="89.37079646017696" y="0.0"/>
      <point x="102.79778761061942" y="0.0" type="curve" smooth="yes"/>
      <point x="417.5022123893805" y="0.0" type="line" smooth="yes"/>
      <point x="430.929203539823" y="0.0"/>
      <point x="439.82653961416923" y="20.0"/>
      <point x="448.99554261100945" y="72.0" type="curve" smooth="yes"/>
      <point x="458.1645456078496" y="124.0"/>
      <point x="456.32028876184194" y="144.0"/>
      <point x="442.8932976113994" y="144.0" type="curve" smooth="yes"/>
      <point x="395.12901442555875" y="144.0" type="line" smooth="yes"/>
      <point x="376.79741194768263" y="144.0"/>
      <point x="363.40751423096555" y="160.2563267256637"/>
      <point x="366.63987034743724" y="178.5879292035398" type="curve" smooth="yes"/>
      <point x="513.4021967046278" y="1010.918442477876" type="line" smooth="yes"/>
      <point x="516.4003241170075" y="1027.9216679646017"/>
      <point x="534.1373729143272" y="1043.0"/>
      <point x="551.1405984010529" y="1043.0" type="curve" smooth="yes"/>
      <point x="595.4437016458907" y="1043.0" type="line" smooth="yes"/>
      <point x="608.8706927963331" y="1043.0"/>
      <point x="617.7680288706792" y="1063.0"/>
      <point x="626.9370318675195" y="1115.0" type="curve" smooth="yes"/>
      <point x="636.1060348643597" y="1167.0"/>
      <point x="634.2617780183521" y="1187.0"/>
      <point x="620.8347868679095" y="1187.0" type="curve" smooth="yes"/>
      <point x="318.06546533398625" y="1187.0" type="line" smooth="yes"/>
      <point x="304.6384741835438" y="1187.0"/>
      <point x="295.7411381091975" y="1167.0"/>
      <point x="286.5721351123573" y="1115.0" type="curve" smooth="yes"/>
      <point x="277.4031321155171" y="1063.0"/>
      <point x="279.24738896152485" y="1043.0"/>
      <point x="292.6743801119673" y="1043.0" type="curve" smooth="yes"/>
      <point x="336.97748335680507" y="1043.0" type="line" smooth="yes"/>
      <point x="353.9807088435307" y="1043.0"/>
      <point x="366.4003241170075" y="1027.9216679646017"/>
      <point x="363.4021967046279" y="1010.9184424778762" type="curve" smooth="yes"/>
      <point x="216.63987034743724" y="178.58792920353983" type="line" smooth="yes"/>
      <point x="213.40751423096555" y="160.2563267256637"/>
      <point x="194.2847584963552" y="144.0"/>
      <point x="175.9531560184791" y="144.0" type="curve" smooth="yes"/>
    </contour>
  </outline>
</glyph>
<glyph name="J" format="2">
  <advance width="683"/>
  <unicode hex="004A"/>
  <outline>
    <contour>
      <point x="445.89596975356943" y="1187.0" type="line" smooth="yes"/>
      <point x="419.431462729658" y="1187.0"/>
      <point x="405.3191203059241" y="1167.0"/>
      <point x="396.15011730908395" y="1115.0" type="curve" smooth="yes"/>
      <point x="386.98111431224373" y="1063.0"/>
      <point x="394.04037750763905" y="1043.0"/>
      <point x="420.5048845315505" y="1043.0" type="curve" smooth="yes"/>
      <point x="584.809040878929" y="1043.0" type="line" smooth="yes"/>
      <point x="610.249040878929" y="1043.0"/>
      <point x="628.831104194146" y="1020.44"/>
      <point x="624.3453458049227" y="995.0" type="curve" smooth="yes"/>
      <point x="512.9066939971727" y="363.0" type="line" smooth="yes"/>
      <point x="485.9286659487776" y="210.0"/>
      <point x="429.9501886431821" y="126.0"/>
      <point x="340.55896491797006" y="126.0" type="curve" smooth="yes"/>
      <point x="279.39654868493034" y="126.0"/>
      <point x="225.99355026423908" y="160.0"/>
      <point x="188.11351011294946" y="222.0" type="curve" smooth="yes"/>
      <point x="176.34944566885883" y="242.0"/>
      <point x="157.05934828473738" y="246.0"/>
      <point x="129.60012123524115" y="197.0" type="curve" smooth="yes"/>
      <point x="104.43417559613104" y="151.0"/>
      <point x="102.1439861692732" y="118.0"/>
      <point x="118.14299013389535" y="92.0" type="curve" smooth="yes"/>
      <point x="164.31658234553953" y="17.0"/>
      <point x="236.24525101355684" y="-22.0"/>
      <point x="313.8744716170304" y="-22.0" type="curve" smooth="yes"/>
      <point x="458.02080642441376" y="-22.0"/>
      <point x="617.2380059936803" y="104.0"/>
      <point x="657.6168845759188" y="333.0" type="curve" smooth="yes"/>
      <point x="796.2098914127723" y="1119.0" type="line" smooth="yes"/>
      <point x="805.0262404481955" y="1169.0"/>
      <point x="787.200126100948" y="1187.0"/>
      <point x="745.200126100948" y="1187.0" type="curve" smooth="yes"/>
    </contour>
  </outline>
</glyph>
<glyph name="K" format="2">
  <advance width="1004"/>
  <unicode hex="004B"/>
  <outline>
    <contour>
      <point x="347.0633959080326" y="1197.0" type="line" smooth="yes"/>
      <point x="291.0633959080326" y="1197.0"/>
      <point x="269.71318327457175" y="1178.0"/>
      <point x="261.60214216198233" y="1132.0" type="curve" smooth="yes"/>
      <point x="71.69798393896558" y="55.0" type="line" smooth="yes"/>
      <point x="63.58694282637619" y="9.0"/>
      <point x="78.23673019291535" y="-10.0"/>
      <point x="134.23673019291536" y="-10.0" type="curve" smooth="yes"/>
      <point x="136.23673019291536" y="-10.0" type="line" smooth="yes"/>
      <point x="192.23673019291536" y="-10.0"/>
      <point x="213.58694282637617" y="9.0"/>
      <point x="221.69798393896556" y="55.0" type="curve" smooth="yes"/>
      <point x="267.9992277663179" y="317.58740234375" type="line" smooth="yes"/>
      <point x="272.48498615554126" y="343.02740234375"/>
      <point x="294.8457058007044" y="381.9882028669813"/>
      <point x="315.57522701134593" y="400.48272260594416" type="curve" smooth="yes"/>
      <point x="443.78370688750454" y="514.8681074721809" type="line" smooth="yes"/>
      <point x="464.513228098146" y="533.3626272111437"/>
      <point x="493.398155054903" y="531.8144498531138"/>
      <point x="505.2409982848598" y="511.5741130933939" type="curve" smooth="yes"/>
      <point x="801.0579618842507" y="6.0" type="line" smooth="yes"/>
      <point x="820.2391715208714" y="-27.0"/>
      <point x="850.5918254822884" y="-25.0"/>
      <point x="899.0" y="0.0" type="curve" smooth="yes"/>
      <point x="952.9371554598371" y="28.0"/>
      <point x="962.6979839389655" y="55.0"/>
      <point x="941.2220822251787" y="92.0" type="curve" smooth="yes"/>
      <point x="629.90239289185" y="622.7863640119109" type="line" smooth="yes"/>
      <point x="618.0390135639207" y="643.0129034635278"/>
      <point x="625.9014413247612" y="677.350446458662"/>
      <point x="646.6309625957659" y="695.8449661292177" type="curve" smooth="yes"/>
      <point x="1092.9017168950606" y="1094.0" type="line" smooth="yes"/>
      <point x="1130.72050725844" y="1127.0"/>
      <point x="1133.8339896989855" y="1156.0"/>
      <point x="1092.3001261009479" y="1187.0" type="curve" smooth="yes"/>
      <point x="1056.884627599368" y="1213.0"/>
      <point x="1020.4136085414934" y="1216.0"/>
      <point x="993.0054340237818" y="1191.0" type="curve" smooth="yes"/>
      <point x="354.0086581783101" y="618.8669779624969" type="line" smooth="yes"/>
      <point x="333.31166440994684" y="600.3356894812407"/>
      <point x="318.9356632246719" y="606.4622827148437"/>
      <point x="323.42142161389523" y="631.9022827148438" type="curve" smooth="yes"/>
      <point x="411.60214216198233" y="1132.0" type="line" smooth="yes"/>
      <point x="419.71318327457175" y="1178.0"/>
      <point x="405.0633959080326" y="1197.0"/>
      <point x="349.0633959080326" y="1197.0" type="curve" smooth="yes"/>
    </contour>
  </outline>
</glyph>
<glyph name="L" format="2">
  <advance width="831"/>
  <unicode hex="004C"/>
  <outline>
    <contour>
      <point x="355.0633959080326" y="1197.0" type="line" smooth="yes"/>
      <point x="299.0633959080326" y="1197.0"/>
      <point x="277.71318327457175" y="1178.0"/>
      <point x="269.60214216198233" y="1132.0" type="curve" smooth="yes"/>
      <point x="81.99023468817562" y="68.0" type="line" smooth="yes"/>
      <point x="73.17388565275238" y="18.0"/>
      <point x="87.0" y="0.0"/>
      <point x="133.0" y="0.0" type="curve" smooth="yes"/>
      <point x="708.2032558139534" y="0.0" type="line" smooth="yes"/>
      <point x="745.9509302325581" y="0.0"/>
      <point x="764.5765396141693" y="20.0"/>
      <point x="773.7455426110095" y="72.0" type="curve" smooth="yes"/>
      <point x="782.9145456078496" y="124.0"/>
      <point x="771.3420154545771" y="144.0"/>
      <point x="733.5943410359724" y="144.0" type="curve" smooth="yes"/>
      <point x="271.39108522201894" y="144.0" type="line" smooth="yes"/>
      <point x="257.61108522201897" y="144.0"/>
      <point x="247.5458009262764" y="156.22"/>
      <point x="249.97558672043905" y="170.0" type="curve" smooth="yes"/>
      <point x="419.60214216198233" y="1132.0" type="line" smooth="yes"/>
      <point x="427.71318327457175" y="1178.0"/>
      <point x="413.0633959080326" y="1197.0"/>
      <point x="357.0633959080326" y="1197.0" type="curve" smooth="yes"/>
    </contour>
  </outline>
</glyph>
<glyph name="M" format="2">
  <advance width="1106"/>
  <unicode hex="004D"/>
  <outline>
    <contour>
      <point x="1126.1025299914388" y="1197.0" type="line" smooth="yes"/>
      <point x="1079.1025299914388" y="1197.0"/>
      <point x="1046.5759903772696" y="1177.0"/>
      <point x="1017.6412762453886" y="1132.0" type="curve" smooth="yes"/>
      <point x="680.0454825330457" y="605.52600810827" type="line" smooth="yes"/>
      <point x="665.2528723285601" y="582.457223810887"/>
      <point x="646.2312431710687" y="582.457223810887"/>
      <point x="639.5739311341281" y="605.52600810827" type="curve" smooth="yes"/>
      <point x="487.64127624538855" y="1132.0" type="line" smooth="yes"/>
      <point x="474.5759903772695" y="1177.0"/>
      <point x="450.10252999143876" y="1197.0"/>
      <point x="403.10252999143876" y="1197.0" type="curve" smooth="yes"/>
      <point x="401.10252999143876" y="1197.0" type="line" smooth="yes"/>
      <point x="354.10252999143876" y="1197.0"/>
      <point x="323.4576252808118" y="1182.0"/>
      <point x="313.64127624538855" y="1132.0" type="curve" smooth="yes"/>
      <point x="93.73711802237175" y="55.0" type="line" smooth="yes"/>
      <point x="84.62607690978236" y="9.0"/>
      <point x="99.27586427632151" y="-10.0"/>
      <point x="155.27586427632153" y="-10.0" type="curve" smooth="yes"/>
      <point x="157.27586427632153" y="-10.0" type="line" smooth="yes"/>
      <point x="213.27586427632153" y="-10.0"/>
      <point x="233.62607690978234" y="9.0"/>
      <point x="242.73711802237173" y="55.0" type="curve" smooth="yes"/>
      <point x="397.39064136119026" y="820.0160048454491" type="line" smooth="yes"/>
      <point x="402.53180670908694" y="845.447522277361"/>
      <point x="412.9802832852545" y="847.5366261001474"/>
      <point x="419.6214425870787" y="824.4609065960583" type="curve" smooth="yes"/>
      <point x="535.4491199423784" y="422.0" type="line" smooth="yes"/>
      <point x="549.1617518490805" y="375.0"/>
      <point x="571.1641931770366" y="358.0"/>
      <point x="616.1641931770367" y="358.0" type="curve" smooth="yes"/>
      <point x="661.1641931770367" y="358.0"/>
      <point x="689.1617518490806" y="375.0"/>
      <point x="719.4491199423785" y="422.0" type="curve" smooth="yes"/>
      <point x="977.2062303242269" y="824.4609065960583" type="line" smooth="yes"/>
      <point x="991.985133521714" y="847.5366261001474"/>
      <point x="1001.6968793589649" y="845.447522277361"/>
      <point x="997.8695193396543" y="820.0160048454491" type="curve" smooth="yes"/>
      <point x="882.7371180223718" y="55.0" type="line" smooth="yes"/>
      <point x="875.6260769097825" y="9.0"/>
      <point x="889.2758642763216" y="-10.0"/>
      <point x="945.2758642763216" y="-10.0" type="curve" smooth="yes"/>
      <point x="947.2758642763216" y="-10.0" type="line" smooth="yes"/>
      <point x="1003.2758642763216" y="-10.0"/>
      <point x="1024.6260769097823" y="9.0"/>
      <point x="1031.7371180223718" y="55.0" type="curve" smooth="yes"/>
      <point x="1191.6412762453886" y="1132.0" type="line" smooth="yes"/>
      <point x="1199.457625280812" y="1182.0"/>
      <point x="1175.1025299914388" y="1197.0"/>
      <point x="1128.1025299914388" y="1197.0" type="curve" smooth="yes"/>
    </contour>
  </outline>
</glyph>
<glyph name="N" format="2">
  <advance width="1030"/>
  <unicode hex="004E"/>
  <outline>
    <contour>
      <point x="1091.0633959080326" y="1197.0" type="line" smooth="yes"/>
      <point x="1037.0633959080326" y="1197.0"/>
      <point x="1015.7131832745717" y="1178.0"/>
      <point x="1007.6021421619823" y="1132.0" type="curve" smooth="yes"/>
      <point x="858.6058434633294" y="287.0" type="line"/>
      <point x="854.6058434633294" y="287.0" type="line"/>
      <point x="446.1262404481955" y="1169.0" type="line" smooth="yes"/>
      <point x="437.3001261009479" y="1187.0"/>
      <point x="418.0633959080326" y="1197.0"/>
      <point x="389.0633959080326" y="1197.0" type="curve" smooth="yes"/>
      <point x="362.0633959080326" y="1197.0" type="line" smooth="yes"/>
      <point x="306.0633959080326" y="1197.0"/>
      <point x="283.71318327457175" y="1178.0"/>
      <point x="275.60214216198233" y="1132.0" type="curve" smooth="yes"/>
      <point x="85.69798393896558" y="55.0" type="line" smooth="yes"/>
      <point x="77.58694282637619" y="9.0"/>
      <point x="92.23673019291535" y="-10.0"/>
      <point x="146.23673019291536" y="-10.0" type="curve" smooth="yes"/>
      <point x="148.23673019291536" y="-10.0" type="line" smooth="yes"/>
      <point x="202.23673019291536" y="-10.0"/>
      <point x="223.58694282637617" y="9.0"/>
      <point x="231.69798393896556" y="55.0" type="curve" smooth="yes"/>
      <point x="384.39714923249625" y="921.0" type="line"/>
      <point x="388.39714923249625" y="921.0" type="line"/>
      <point x="800.8187903633793" y="33.0" type="line" smooth="yes"/>
      <point x="816.8236730192915" y="-1.0"/>
      <point x="837.1208064244138" y="-22.0"/>
      <point x="875.1208064244138" y="-22.0" type="curve" smooth="yes"/>
      <point x="927.1208064244138" y="-22.0"/>
      <point x="954.3526539614169" y="2.0"/>
      <point x="960.5240982862132" y="37.0" type="curve" smooth="yes"/>
      <point x="1153.6021421619823" y="1132.0" type="line" smooth="yes"/>
      <point x="1161.7131832745717" y="1178.0"/>
      <point x="1147.0633959080326" y="1197.0"/>
      <point x="1093.0633959080326" y="1197.0" type="curve" smooth="yes"/>
    </contour>
  </outline>
</glyph>
<glyph name="O" format="2">
  <advance width="1184"/>
  <unicode hex="004F"/>
  <outline>
    <contour>
      <point x="172.56189956011974" y="593.0" type="curve" smooth="yes"/>
      <point x="107.32091669798768" y="223.0"/>
      <point x="273.1208064244138" y="-22.0"/>
      <point x="588.1208064244138" y="-22.0" type="curve" smooth="yes"/>
      <point x="903.1208064244138" y="-22.0"/>
      <point x="1155.3209166979877" y="223.0"/>
      <point x="1220.5618995601196" y="593.0" type="curve" smooth="yes"/>
      <point x="1285.8028824222517" y="963.0"/>
      <point x="1120.179319676534" y="1209.0"/>
      <point x="805.1793196765342" y="1209.0" type="curve" smooth="yes"/>
      <point x="490.1793196765342" y="1209.0"/>
      <point x="237.80288242225177" y="963.0"/>
    </contour>
    <contour>
      <point x="1066.5618995601196" y="593.0" type="curve" smooth="yes"/>
      <point x="1015.4270751546649" y="303.0"/>
      <point x="838.2171995692665" y="126.0"/>
      <point x="614.2171995692665" y="126.0" type="curve" smooth="yes"/>
      <point x="390.2171995692666" y="126.0"/>
      <point x="275.42707515466486" y="303.0"/>
      <point x="326.56189956011974" y="593.0" type="curve" smooth="yes"/>
      <point x="377.69672396557456" y="883.0"/>
      <point x="555.0829265316813" y="1061.0"/>
      <point x="779.0829265316813" y="1061.0" type="curve" smooth="yes"/>
      <point x="1003.0829265316813" y="1061.0"/>
      <point x="1117.6967239655746" y="883.0"/>
    </contour>
  </outline>
</glyph>
<glyph name="P" format="2">
  <advance width="885"/>
  <unicode hex="0050"/>
  <outline>
    <contour>
      <point x="342.3001261009479" y="1187.0" type="line" smooth="yes"/>
      <point x="297.3001261009479" y="1187.0"/>
      <point x="276.1262404481955" y="1169.0"/>
      <point x="267.30989141277234" y="1119.0" type="curve" smooth="yes"/>
      <point x="79.69798393896558" y="55.0" type="line" smooth="yes"/>
      <point x="71.58694282637619" y="9.0"/>
      <point x="86.23673019291535" y="-10.0"/>
      <point x="142.23673019291536" y="-10.0" type="curve" smooth="yes"/>
      <point x="144.23673019291536" y="-10.0" type="line" smooth="yes"/>
      <point x="200.23673019291536" y="-10.0"/>
      <point x="221.58694282637617" y="9.0"/>
      <point x="229.69798393896556" y="55.0" type="curve" smooth="yes"/>
      <point x="289.2965034184267" y="393.0" type="line"/>
      <point x="510.24082656253154" y="393.0" type="line" smooth="yes"/>
      <point x="752.8463578580191" y="393.0"/>
      <point x="912.7588203317812" y="553.0"/>
      <point x="954.1956607982704" y="788.0" type="curve" smooth="yes"/>
      <point x="995.8088282454681" y="1024.0"/>
      <point x="892.8499805405404" y="1187.0"/>
      <point x="650.2444492450527" y="1187.0" type="curve" smooth="yes"/>
    </contour>
    <contour>
      <point x="314.6875886404457" y="537.0" type="line"/>
      <point x="403.909040878929" y="1043.0" type="line"/>
      <point x="606.6579491758722" y="1043.0" type="line" smooth="yes"/>
      <point x="777.3482694087689" y="1043.0"/>
      <point x="849.151262479815" y="949.0"/>
      <point x="820.7626185857522" y="788.0" type="curve" smooth="yes"/>
      <point x="792.7266286531062" y="629.0"/>
      <point x="688.1268171702857" y="537.0"/>
      <point x="517.4364969373889" y="537.0" type="curve" smooth="yes"/>
    </contour>
  </outline>
</glyph>
<glyph name="Q" format="2">
  <advance width="1184"/>
  <unicode hex="0051"/>
  <outline>
    <contour>
      <point x="627.8980942125395" y="300.0" type="curve" smooth="yes"/>
      <point x="722.7510631673042" y="95.0" type="line"/>
      <point x="741.5216569582572" y="54.0" type="line"/>
      <point x="830.1958576043572" y="-135.0" type="line" smooth="yes"/>
      <point x="848.4954323374355" y="-173.0"/>
      <point x="873.4374704531848" y="-179.0"/>
      <point x="925.7272798744388" y="-149.0" type="curve" smooth="yes"/>
      <point x="979.0170892956927" y="-119.0"/>
      <point x="988.7779177748213" y="-92.0"/>
      <point x="970.4783430417428" y="-54.0" type="curve" smooth="yes"/>
      <point x="768.1805796499251" y="381.0" type="line" smooth="yes"/>
      <point x="750.0573318975553" y="420.0"/>
      <point x="725.115293781806" y="426.0"/>
      <point x="672.8254843605521" y="396.0" type="curve" smooth="yes"/>
      <point x="620.3593479585898" y="365.0"/>
      <point x="609.7748464601697" y="339.0"/>
    </contour>
    <component base="O"/>
  </outline>
</glyph>
<glyph name="R" format="2">
  <advance width="954"/>
  <unicode hex="0052"/>
  <outline>
    <contour>
      <point x="342.3001261009479" y="1187.0" type="line" smooth="yes"/>
      <point x="297.3001261009479" y="1187.0"/>
      <point x="276.1262404481955" y="1169.0"/>
      <point x="267.30989141277234" y="1119.0" type="curve" smooth="yes"/>
      <point x="79.69798393896558" y="55.0" type="line" smooth="yes"/>
      <point x="71.58694282637619" y="9.0"/>
      <point x="86.23673019291535" y="-10.0"/>
      <point x="142.23673019291536" y="-10.0" type="curve" smooth="yes"/>
      <point x="144.23673019291536" y="-10.0" type="line" smooth="yes"/>
      <point x="200.23673019291536" y="-10.0"/>
      <point x="221.58694282637617" y="9.0"/>
      <point x="229.69798393896556" y="55.0" type="curve" smooth="yes"/>
      <point x="303.40266187510395" y="473.0" type="line"/>
      <point x="525.2382331641664" y="473.0" type="line"/>
      <point x="742.2922507492101" y="13.0" type="line" smooth="yes"/>
      <point x="757.4734603858307" y="-20.0"/>
      <point x="784.1208064244138" y="-22.0"/>
      <point x="837.0" y="0.0" type="curve" smooth="yes"/>
      <point x="892.0555205562947" y="23.0"/>
      <point x="903.6400220547148" y="49.0"/>
      <point x="885.516774302345" y="88.0" type="curve" smooth="yes"/>
      <point x="692.4524928757608" y="490.392333984375" type="line"/>
      <point x="871.8457563400177" y="534.12158203125"/>
      <point x="982.9295226462478" y="657.468994140625"/>
      <point x="1012.998740026609" y="828.0" type="curve" smooth="yes"/>
      <point x="1051.0853678596375" y="1044.0"/>
      <point x="934.3001261009479" y="1187.0"/>
      <point x="664.3001261009479" y="1187.0" type="curve" smooth="yes"/>
    </contour>
    <contour>
      <point x="403.909040878929" y="1043.0" type="line"/>
      <point x="617.909040878929" y="1043.0" type="line" smooth="yes"/>
      <point x="804.909040878929" y="1043.0"/>
      <point x="883.8608443065026" y="969.0"/>
      <point x="858.998740026609" y="828.0" type="curve" smooth="yes"/>
      <point x="834.4892897081323" y="689.0"/>
      <point x="729.7937470971228" y="617.0"/>
      <point x="542.7937470971228" y="617.0" type="curve" smooth="yes"/>
      <point x="328.7937470971229" y="617.0" type="line"/>
    </contour>
  </outline>
</glyph>
<glyph name="S" format="2">
  <advance width="1031"/>
  <unicode hex="0053"/>
  <outline>
    <contour>
      <point x="225.59997344833215" y="863.0" type="curve" smooth="yes"/>
      <point x="201.0905231298555" y="724.0"/>
      <point x="257.2186535381376" y="651.0"/>
      <point x="344.6365933676736" y="608.0" type="curve" smooth="yes"/>
      <point x="470.70432056374875" y="546.0"/>
      <point x="661.3516666023319" y="544.0"/>
      <point x="775.1826636054917" y="492.0" type="curve" smooth="yes"/>
      <point x="841.7165272035293" y="461.0"/>
      <point x="882.4291591102315" y="414.0"/>
      <point x="867.088711788595" y="327.0" type="curve" smooth="yes"/>
      <point x="846.2821280649961" y="209.0"/>
      <point x="740.6469886661935" y="126.0"/>
      <point x="545.6469886661935" y="126.0" type="curve" smooth="yes"/>
      <point x="414.64698866619347" y="126.0"/>
      <point x="296.5817027980744" y="171.0"/>
      <point x="212.33764862129073" y="232.0" type="curve" smooth="yes"/>
      <point x="187.51153427404313" y="250.0"/>
      <point x="153.68786125475157" y="251.0"/>
      <point x="117.5188582579114" y="199.0" type="curve" smooth="yes"/>
      <point x="84.05516318390508" y="151.0"/>
      <point x="86.06004583981726" y="117.0"/>
      <point x="119.00452528352258" y="94.0" type="curve" smooth="yes"/>
      <point x="224.13265569180464" y="21.0"/>
      <point x="366.55059552134065" y="-22.0"/>
      <point x="519.5505955213407" y="-22.0" type="curve" smooth="yes"/>
      <point x="813.5505955213407" y="-22.0"/>
      <point x="984.7653537626512" y="121.0"/>
      <point x="1021.088711788595" y="327.0" type="curve" smooth="yes"/>
      <point x="1052.1222603932847" y="503.0"/>
      <point x="977.9337267727958" y="587.0"/>
      <point x="869.2210948660937" y="634.0" type="curve" smooth="yes"/>
      <point x="728.9770406893101" y="695.0"/>
      <point x="532.8007137086015" y="694.0"/>
      <point x="436.32237066685866" y="748.0" type="curve" smooth="yes"/>
      <point x="392.55421820386186" y="772.0"/>
      <point x="369.72566252865806" y="807.0"/>
      <point x="379.59997344833215" y="863.0" type="curve" smooth="yes"/>
      <point x="401.1118650947649" y="985.0"/>
      <point x="506.51271562860825" y="1061.0"/>
      <point x="666.5127156286082" y="1061.0" type="curve" smooth="yes"/>
      <point x="797.5127156286082" y="1061.0"/>
      <point x="908.5175982845204" y="1027.0"/>
      <point x="995.2906334034295" y="969.0" type="curve" smooth="yes"/>
      <point x="1021.2930747313856" y="952.0"/>
      <point x="1056.2930747313856" y="952.0"/>
      <point x="1089.4620777282257" y="1004.0" type="curve" smooth="yes"/>
      <point x="1121.278426763649" y="1054.0"/>
      <point x="1119.0972171270284" y="1087.0"/>
      <point x="1084.9764107026147" y="1109.0" type="curve" smooth="yes"/>
      <point x="976.1429723714987" y="1178.0"/>
      <point x="845.6091087734611" y="1209.0"/>
      <point x="692.609108773461" y="1209.0" type="curve" smooth="yes"/>
      <point x="452.609108773461" y="1209.0"/>
      <point x="263.86292826206903" y="1080.0"/>
    </contour>
  </outline>
</glyph>
<glyph name="T" format="2">
  <advance width="944"/>
  <unicode hex="0054"/>
  <outline>
    <contour>
      <point x="336.33573761173926" y="1187.0" type="line" smooth="yes"/>
      <point x="302.0245865326026" y="1187.0"/>
      <point x="284.77358648677864" y="1167.0"/>
      <point x="275.6045834899385" y="1115.0" type="curve" smooth="yes"/>
      <point x="266.43558049309826" y="1063.0"/>
      <point x="276.63350131058365" y="1043.0"/>
      <point x="310.9446523897203" y="1043.0" type="curve" smooth="yes"/>
      <point x="532.8590408789289" y="1043.0" type="line" smooth="yes"/>
      <point x="558.299040878929" y="1043.0"/>
      <point x="576.881104194146" y="1020.44"/>
      <point x="572.3953458049226" y="995.0" type="curve" smooth="yes"/>
      <point x="406.6479839389656" y="55.0" type="line" smooth="yes"/>
      <point x="398.53694282637616" y="9.0"/>
      <point x="413.1867301929153" y="-10.0"/>
      <point x="469.1867301929153" y="-10.0" type="curve" smooth="yes"/>
      <point x="471.1867301929153" y="-10.0" type="line" smooth="yes"/>
      <point x="527.1867301929154" y="-10.0"/>
      <point x="548.5369428263763" y="9.0"/>
      <point x="556.6479839389656" y="55.0" type="curve" smooth="yes"/>
      <point x="722.3953458049227" y="995.0" type="line" smooth="yes"/>
      <point x="726.881104194146" y="1020.44"/>
      <point x="753.419040878929" y="1043.0"/>
      <point x="778.859040878929" y="1043.0" type="curve" smooth="yes"/>
      <point x="1000.7734293681377" y="1043.0" type="line" smooth="yes"/>
      <point x="1035.0845804472742" y="1043.0"/>
      <point x="1052.3355804930984" y="1063.0"/>
      <point x="1061.5045834899386" y="1115.0" type="curve" smooth="yes"/>
      <point x="1070.6735864867787" y="1167.0"/>
      <point x="1060.4756656692932" y="1187.0"/>
      <point x="1026.1645145901566" y="1187.0" type="curve" smooth="yes"/>
    </contour>
  </outline>
</glyph>
<glyph name="U" format="2">
  <advance width="1046"/>
  <unicode hex="0055"/>
  <outline>
    <contour>
      <point x="1097.0633959080326" y="1197.0" type="line" smooth="yes"/>
      <point x="1041.0633959080326" y="1197.0"/>
      <point x="1019.7131832745717" y="1178.0"/>
      <point x="1011.6021421619823" y="1132.0" type="curve" smooth="yes"/>
      <point x="888.3495826467654" y="433.0" type="line" smooth="yes"/>
      <point x="851.6735706594046" y="225.0"/>
      <point x="727.2171995692665" y="126.0"/>
      <point x="545.2171995692665" y="126.0" type="curve" smooth="yes"/>
      <point x="363.2171995692666" y="126.0"/>
      <point x="273.6735706594046" y="225.0"/>
      <point x="310.3495826467653" y="433.0" type="curve" smooth="yes"/>
      <point x="433.60214216198233" y="1132.0" type="line" smooth="yes"/>
      <point x="441.71318327457175" y="1178.0"/>
      <point x="427.0633959080326" y="1197.0"/>
      <point x="371.0633959080326" y="1197.0" type="curve" smooth="yes"/>
      <point x="369.0633959080326" y="1197.0" type="line" smooth="yes"/>
      <point x="313.0633959080326" y="1197.0"/>
      <point x="291.71318327457175" y="1178.0"/>
      <point x="283.60214216198233" y="1132.0" type="curve" smooth="yes"/>
      <point x="156.82304303259605" y="413.0" type="line" smooth="yes"/>
      <point x="106.56985353068352" y="128.0"/>
      <point x="259.1208064244138" y="-22.0"/>
      <point x="519.1208064244138" y="-22.0" type="curve" smooth="yes"/>
      <point x="779.1208064244138" y="-22.0"/>
      <point x="984.5698535306835" y="128.0"/>
      <point x="1034.823043032596" y="413.0" type="curve" smooth="yes"/>
      <point x="1161.6021421619823" y="1132.0" type="line" smooth="yes"/>
      <point x="1169.7131832745717" y="1178.0"/>
      <point x="1155.0633959080326" y="1197.0"/>
      <point x="1099.0633959080326" y="1197.0" type="curve" smooth="yes"/>
    </contour>
  </outline>
</glyph>
<glyph name="V" format="2">
  <advance width="1150"/>
  <unicode hex="0056"/>
  <outline>
    <contour>
      <point x="1138.769029603463" y="1151.0" type="curve" smooth="yes"/>
      <point x="631.5965956885104" y="226.97994151196716" type="line" smooth="yes"/>
      <point x="618.5117381809889" y="203.14057251062457"/>
      <point x="602.7599390554255" y="203.14057251062457"/>
      <point x="598.0821294639074" y="226.97994151196716" type="curve" smooth="yes"/>
      <point x="416.76902960346297" y="1151.0" type="line" smooth="yes"/>
      <point x="408.52741675463545" y="1195.0"/>
      <point x="385.643340523137" y="1207.0"/>
      <point x="329.46945487038465" y="1189.0" type="curve" smooth="yes"/>
      <point x="272.2955692176323" y="1171.0"/>
      <point x="254.06372168062913" y="1147.0"/>
      <point x="263.3053345294567" y="1103.0" type="curve" smooth="yes"/>
      <point x="475.3987349784838" y="43.0" type="line" smooth="yes"/>
      <point x="485.11136688518593" y="-4.0"/>
      <point x="513.9374812324336" y="-22.0"/>
      <point x="570.9374812324336" y="-22.0" type="curve" smooth="yes"/>
      <point x="627.9374812324336" y="-22.0"/>
      <point x="663.1113668851859" y="-4.0"/>
      <point x="689.3987349784838" y="43.0" type="curve" smooth="yes"/>
      <point x="1275.3053345294566" y="1103.0" type="line" smooth="yes"/>
      <point x="1300.0637216806292" y="1147.0"/>
      <point x="1290.2955692176322" y="1171.0"/>
      <point x="1239.4694548703847" y="1189.0" type="curve" smooth="yes"/>
      <point x="1189.643340523137" y="1207.0"/>
      <point x="1162.5274167546354" y="1195.0"/>
    </contour>
  </outline>
</glyph>
<glyph name="W" format="2">
  <advance width="1195"/>
  <unicode hex="0057"/>
  <outline>
    <contour>
      <point x="1191.2725759440045" y="1139.0" type="curve" smooth="yes"/>
      <point x="938.3780617160425" y="305.6167608229736" type="line" smooth="yes"/>
      <point x="930.7197971546589" y="280.3798775867976"/>
      <point x="920.1772817130138" y="279.27586858575177"/>
      <point x="915.947177797649" y="303.2678055015995" type="curve" smooth="yes"/>
      <point x="820.4324436157159" y="845.0" type="line" smooth="yes"/>
      <point x="816.016945114136" y="871.0"/>
      <point x="797.4855228440545" y="885.0"/>
      <point x="753.4855228440545" y="885.0" type="curve" smooth="yes"/>
      <point x="709.4855228440545" y="885.0"/>
      <point x="686.016945114136" y="871.0"/>
      <point x="672.4324436157159" y="845.0" type="curve" smooth="yes"/>
      <point x="385.87370501683506" y="303.2678055015995" type="line" smooth="yes"/>
      <point x="373.1827495060314" y="279.27586858575177"/>
      <point x="363.0295672120452" y="280.3798775867976"/>
      <point x="364.27118949771557" y="305.6167608229736" type="curve" smooth="yes"/>
      <point x="405.27257594400464" y="1139.0" type="line" smooth="yes"/>
      <point x="407.55994403730244" y="1186.0"/>
      <point x="390.3811757286379" y="1202.0"/>
      <point x="333.3232138443871" y="1196.0" type="curve" smooth="yes"/>
      <point x="276.0889249794279" y="1189.0"/>
      <point x="254.56238536525854" y="1169.0"/>
      <point x="253.27501727196068" y="1122.0" type="curve" smooth="yes"/>
      <point x="212.018205087527" y="43.0" type="line" smooth="yes"/>
      <point x="210.37818303281222" y="-6.0"/>
      <point x="235.55695134147678" y="-22.0"/>
      <point x="286.5569513414768" y="-22.0" type="curve" smooth="yes"/>
      <point x="337.5569513414768" y="-22.0"/>
      <point x="374.0834909556461" y="-2.0"/>
      <point x="398.018205087527" y="43.0" type="curve" smooth="yes"/>
      <point x="684.3779027706968" y="583.7407431985697" type="line" smooth="yes"/>
      <point x="697.0808966670519" y="607.7281493033278"/>
      <point x="712.1091324834721" y="607.7281493033278"/>
      <point x="716.3528725928676" y="583.7407431985697" type="curve" smooth="yes"/>
      <point x="812.018205087527" y="43.0" type="line" smooth="yes"/>
      <point x="820.0834909556461" y="-2.0"/>
      <point x="849.5569513414767" y="-22.0"/>
      <point x="900.5569513414767" y="-22.0" type="curve" smooth="yes"/>
      <point x="951.5569513414767" y="-22.0"/>
      <point x="982.3781830328122" y="-6.0"/>
      <point x="998.018205087527" y="43.0" type="curve" smooth="yes"/>
      <point x="1337.2750172719607" y="1122.0" type="line" smooth="yes"/>
      <point x="1352.5623853652587" y="1169.0"/>
      <point x="1338.088924979428" y="1189.0"/>
      <point x="1283.3232138443873" y="1196.0" type="curve" smooth="yes"/>
      <point x="1228.3811757286378" y="1202.0"/>
      <point x="1205.5599440373023" y="1186.0"/>
    </contour>
  </outline>
</glyph>
<glyph name="X" format="2">
  <advance width="1049"/>
  <unicode hex="0058"/>
  <outline>
    <contour>
      <point x="1027.1808062399032" y="1172.0" type="curve" smooth="yes"/>
      <point x="671.1953829659168" y="746.445404929052" type="line" smooth="yes"/>
      <point x="661.5754808915034" y="734.9455140227091"/>
      <point x="648.0844299816927" y="734.9302775928695"/>
      <point x="642.4910193280214" y="746.4129869932231" type="curve" smooth="yes"/>
      <point x="435.18080623990306" y="1172.0" type="line" smooth="yes"/>
      <point x="415.05755848753324" y="1211.0"/>
      <point x="385.88123150682475" y="1210.0"/>
      <point x="330.82571095053004" y="1187.0" type="curve" smooth="yes"/>
      <point x="281.1228443556523" y="1166.0"/>
      <point x="264.18568889581525" y="1138.0"/>
      <point x="285.1326096674767" y="1098.0" type="curve" smooth="yes"/>
      <point x="526.3094296980872" y="626.0808081524671" type="line" smooth="yes"/>
      <point x="532.1129339909905" y="614.7248865699407"/>
      <point x="528.4733052559096" y="594.6540959638463"/>
      <point x="518.5655387723831" y="583.3769983522661" type="curve" smooth="yes"/>
      <point x="84.2186861326355" y="89.0" type="line" smooth="yes"/>
      <point x="50.1656069042969" y="49.0"/>
      <point x="56.22845144445988" y="21.0"/>
      <point x="98.52558484958212" y="0.0" type="curve" smooth="yes"/>
      <point x="145.47006429328744" y="-23.0"/>
      <point x="174.1174103318705" y="-25.0"/>
      <point x="208.1704895602091" y="15.0" type="curve" smooth="yes"/>
      <point x="590.2673085964916" y="465.06486658636754" type="line" smooth="yes"/>
      <point x="599.9745267814936" y="476.49882164617867"/>
      <point x="613.6730447295064" y="476.53368503983074"/>
      <point x="619.4130914646041" y="465.13904401966977" type="curve" smooth="yes"/>
      <point x="846.1704895602091" y="15.0" type="line" smooth="yes"/>
      <point x="865.1174103318706" y="-25.0"/>
      <point x="895.4700642932875" y="-23.0"/>
      <point x="950.5255848495822" y="0.0" type="curve" smooth="yes"/>
      <point x="1000.2284514444599" y="21.0"/>
      <point x="1017.3419338850055" y="50.0"/>
      <point x="996.2186861326355" y="89.0" type="curve" smooth="yes"/>
      <point x="735.1397276530421" y="582.8295059390921" type="line" smooth="yes"/>
      <point x="729.1854701453111" y="594.0919533626624"/>
      <point x="732.6107099877235" y="614.1438175923182"/>
      <point x="742.4274719986005" y="625.4930468532534" type="curve" smooth="yes"/>
      <point x="1151.1326096674768" y="1098.0" type="line" smooth="yes"/>
      <point x="1186.1856888958152" y="1138.0"/>
      <point x="1179.1228443556524" y="1166.0"/>
      <point x="1136.82571095053" y="1187.0" type="curve" smooth="yes"/>
      <point x="1089.8812315068249" y="1210.0"/>
      <point x="1061.0575584875332" y="1211.0"/>
    </contour>
  </outline>
</glyph>
<glyph name="Y" format="2">
  <advance width="894"/>
  <unicode hex="0059"/>
  <outline>
    <contour>
      <point x="933.0405010589986" y="1172.0" type="curve" smooth="yes"/>
      <point x="577.3010783400517" y="668.9842436438421" type="line" smooth="yes"/>
      <point x="568.6934665795937" y="656.813075469637"/>
      <point x="557.2264508924018" y="656.8096822207508"/>
      <point x="552.903172622622" y="668.9770239653607" type="curve" smooth="yes"/>
      <point x="374.1699417216432" y="1172.0" type="line" smooth="yes"/>
      <point x="363.8491047427585" y="1205.0"/>
      <point x="342.44268284031716" y="1210.0"/>
      <point x="299.9594781357748" y="1187.0" type="curve" smooth="yes"/>
      <point x="255.76283908459405" y="1163.0"/>
      <point x="245.62213482471083" y="1136.0"/>
      <point x="258.551451353461" y="1096.0" type="curve" smooth="yes"/>
      <point x="450.1816652312736" y="509.9668056271077" type="line" smooth="yes"/>
      <point x="454.20658900003775" y="497.6580006344867"/>
      <point x="455.6211453171373" y="474.52264526367185"/>
      <point x="453.1913595229746" y="460.7426452636719" type="curve" smooth="yes"/>
      <point x="381.64798393896564" y="55.0" type="line" smooth="yes"/>
      <point x="373.5369428263762" y="9.0"/>
      <point x="388.1867301929154" y="-10.0"/>
      <point x="444.1867301929154" y="-10.0" type="curve" smooth="yes"/>
      <point x="446.1867301929154" y="-10.0" type="line" smooth="yes"/>
      <point x="502.1867301929154" y="-10.0"/>
      <point x="523.5369428263763" y="9.0"/>
      <point x="531.6479839389656" y="55.0" type="curve" smooth="yes"/>
      <point x="603.3166577940256" y="461.4532470703125" type="line" smooth="yes"/>
      <point x="605.7464435881882" y="475.2332470703125"/>
      <point x="615.3244370230302" y="498.3660255509647"/>
      <point x="623.6953672298597" y="510.67192468872145" type="curve" smooth="yes"/>
      <point x="1021.8572903594943" y="1096.0" type="line" smooth="yes"/>
      <point x="1048.8927653449218" y="1136.0"/>
      <point x="1048.2737180432955" y="1163.0"/>
      <point x="1012.540774066121" y="1187.0" type="curve" smooth="yes"/>
      <point x="978.1686104741682" y="1210.0"/>
      <point x="955.7674724476071" y="1205.0"/>
    </contour>
  </outline>
</glyph>
<glyph name="Z" format="2">
  <advance width="1016"/>
  <unicode hex="005A"/>
  <outline>
    <contour>
      <point x="360.3001261009479" y="1187.0" type="line" smooth="yes"/>
      <point x="315.3001261009479" y="1187.0"/>
      <point x="293.77358648677864" y="1167.0"/>
      <point x="284.6045834899385" y="1115.0" type="curve" smooth="yes"/>
      <point x="275.43558049309826" y="1063.0"/>
      <point x="289.909040878929" y="1043.0"/>
      <point x="334.909040878929" y="1043.0" type="curve" smooth="yes"/>
      <point x="852.4111771093977" y="1043.0" type="line" smooth="yes"/>
      <point x="877.8511771093978" y="1043.0"/>
      <point x="884.3552511644732" y="1024.4073060948274"/>
      <point x="866.2496325457287" y="1003.441076797505" type="curve" smooth="yes"/>
      <point x="95.57229485863961" y="111.0" type="line" smooth="yes"/>
      <point x="85.45637109013803" y="99.0"/>
      <point x="77.164120340928" y="86.0"/>
      <point x="73.99023468817562" y="68.0" type="curve" smooth="yes"/>
      <point x="65.17388565275238" y="18.0"/>
      <point x="80.0" y="0.0"/>
      <point x="125.0" y="0.0" type="curve" smooth="yes"/>
      <point x="891.0" y="0.0" type="line" smooth="yes"/>
      <point x="936.0" y="0.0"/>
      <point x="957.5265396141693" y="20.0"/>
      <point x="966.6955426110095" y="72.0" type="curve" smooth="yes"/>
      <point x="975.8645456078497" y="124.0"/>
      <point x="961.391085222019" y="144.0"/>
      <point x="916.391085222019" y="144.0" type="curve" smooth="yes"/>
      <point x="355.89108522201894" y="144.0" type="line" smooth="yes"/>
      <point x="330.45108522201895" y="144.0"/>
      <point x="323.9499620664229" y="162.59038580993774"/>
      <point x="342.05890829521894" y="183.55401236156965" type="curve" smooth="yes"/>
      <point x="1116.4331391651422" y="1080.0" type="line" smooth="yes"/>
      <point x="1125.196408972227" y="1090.0"/>
      <point x="1130.4886597214368" y="1103.0"/>
      <point x="1133.3098914127722" y="1119.0" type="curve" smooth="yes"/>
      <point x="1142.1262404481956" y="1169.0"/>
      <point x="1127.3001261009479" y="1187.0"/>
      <point x="1082.3001261009479" y="1187.0" type="curve" smooth="yes"/>
    </contour>
  </outline>
</glyph>
<glyph name="bracketleft" format="2">
  <advance width="681"/>
  <unicode hex="005B"/>
  <outline>
    <contour>
      <point x="385.9206175320139" y="1372.0" type="line" smooth="yes"/>
      <point x="340.9206175320139" y="1372.0"/>
      <point x="319.7467318792616" y="1354.0"/>
      <point x="310.9303828438383" y="1304.0" type="curve" smooth="yes"/>
      <point x="34.27335011225678" y="-265.0" type="line" smooth="yes"/>
      <point x="25.457001076833535" y="-315.0"/>
      <point x="40.28311542408116" y="-333.0"/>
      <point x="85.28311542408116" y="-333.0" type="curve" smooth="yes"/>
      <point x="499.2831154240812" y="-333.0" type="line" smooth="yes"/>
      <point x="544.2831154240812" y="-333.0"/>
      <point x="565.8096550382504" y="-313.0"/>
      <point x="574.9786580350907" y="-261.0" type="curve" smooth="yes"/>
      <point x="584.1476610319309" y="-209.0"/>
      <point x="569.6742006461001" y="-189.0"/>
      <point x="524.6742006461001" y="-189.0" type="curve" smooth="yes"/>
      <point x="245.67420064610013" y="-189.0" type="line" smooth="yes"/>
      <point x="220.23420064610013" y="-189.0"/>
      <point x="201.65213733088308" y="-166.44"/>
      <point x="206.13789572010643" y="-141.0" type="curve" smooth="yes"/>
      <point x="439.0658372359887" y="1180.0" type="line" smooth="yes"/>
      <point x="443.55159562521203" y="1205.44"/>
      <point x="470.089532309995" y="1228.0"/>
      <point x="495.529532309995" y="1228.0" type="curve" smooth="yes"/>
      <point x="774.5295323099949" y="1228.0" type="line" smooth="yes"/>
      <point x="819.5295323099949" y="1228.0"/>
      <point x="841.0560719241643" y="1248.0"/>
      <point x="850.2250749210045" y="1300.0" type="curve" smooth="yes"/>
      <point x="859.3940779178447" y="1352.0"/>
      <point x="844.9206175320139" y="1372.0"/>
      <point x="799.9206175320139" y="1372.0" type="curve" smooth="yes"/>
    </contour>
  </outline>
</glyph>
<glyph name="backslash" format="2">
  <advance width="1017"/>
  <unicode hex="005C"/>
  <outline>
    <contour>
      <point x="328.8713968058612" y="1324.0" type="curve" smooth="yes"/>
      <point x="711.1661675018532" y="-319.0" type="line" smooth="yes"/>
      <point x="716.4633009069755" y="-340.0"/>
      <point x="737.8183961963485" y="-355.0"/>
      <point x="769.8183961963485" y="-355.0" type="curve" smooth="yes"/>
      <point x="832.8183961963485" y="-355.0"/>
      <point x="880.1082056176025" y="-325.0"/>
      <point x="871.161284845941" y="-285.0" type="curve" smooth="yes"/>
      <point x="488.866514149949" y="1358.0" type="line" smooth="yes"/>
      <point x="483.5693807448268" y="1379.0"/>
      <point x="462.21428545545376" y="1394.0"/>
      <point x="430.21428545545376" y="1394.0" type="curve" smooth="yes"/>
      <point x="367.21428545545376" y="1394.0"/>
      <point x="319.9244760341998" y="1364.0"/>
    </contour>
  </outline>
</glyph>
<glyph name="bracketright" format="2">
  <advance width="681"/>
  <unicode hex="005D"/>
  <outline>
    <contour>
      <point x="110.67420064610012" y="-189.0" type="line" smooth="yes"/>
      <point x="65.67420064610012" y="-189.0"/>
      <point x="44.147661031930824" y="-209.0"/>
      <point x="34.97865803509064" y="-261.0" type="curve" smooth="yes"/>
      <point x="25.80965503825046" y="-313.0"/>
      <point x="40.28311542408116" y="-333.0"/>
      <point x="85.28311542408116" y="-333.0" type="curve" smooth="yes"/>
      <point x="499.2831154240812" y="-333.0" type="line" smooth="yes"/>
      <point x="544.2831154240812" y="-333.0"/>
      <point x="565.4570010768335" y="-315.0"/>
      <point x="574.2733501122568" y="-265.0" type="curve" smooth="yes"/>
      <point x="850.9303828438383" y="1304.0" type="line" smooth="yes"/>
      <point x="859.7467318792616" y="1354.0"/>
      <point x="844.9206175320139" y="1372.0"/>
      <point x="799.9206175320139" y="1372.0" type="curve" smooth="yes"/>
      <point x="385.9206175320139" y="1372.0" type="line" smooth="yes"/>
      <point x="340.9206175320139" y="1372.0"/>
      <point x="319.39407791784464" y="1352.0"/>
      <point x="310.2250749210045" y="1300.0" type="curve" smooth="yes"/>
      <point x="301.05607192416426" y="1248.0"/>
      <point x="315.529532309995" y="1228.0"/>
      <point x="360.529532309995" y="1228.0" type="curve" smooth="yes"/>
      <point x="661.5295323099949" y="1228.0" type="line" smooth="yes"/>
      <point x="675.3095323099949" y="1228.0"/>
      <point x="685.3748166057376" y="1215.78"/>
      <point x="682.945030811575" y="1202.0" type="curve" smooth="yes"/>
      <point x="442.2587021445202" y="-163.0" type="line" smooth="yes"/>
      <point x="439.8289163503576" y="-176.78"/>
      <point x="425.4542006461001" y="-189.0"/>
      <point x="411.67420064610013" y="-189.0" type="curve" smooth="yes"/>
    </contour>
  </outline>
</glyph>
<glyph name="asciicircum" format="2">
  <advance width="921"/>
  <unicode hex="005E"/>
  <outline>
    <contour>
      <point x="599.3846164802587" y="1172.0" type="curve" smooth="yes"/>
      <point x="187.17537088155592" y="581.0" type="line" smooth="yes"/>
      <point x="163.1802535374681" y="547.0"/>
      <point x="185.41942505833953" y="520.0"/>
      <point x="219.47982827054642" y="509.0" type="curve" smooth="yes"/>
      <point x="253.36390450204485" y="497.0"/>
      <point x="297.89288544417025" y="500.0"/>
      <point x="316.6537139232988" y="527.0" type="curve" smooth="yes"/>
      <point x="609.4508430711633" y="963.9604352596821" type="line" smooth="yes"/>
      <point x="624.7359485150286" y="986.7714045720505"/>
      <point x="644.7116865001286" y="986.7714045720505"/>
      <point x="651.9524132522272" y="963.9604352596821" type="curve" smooth="yes"/>
      <point x="790.6537139232987" y="527.0" type="line" smooth="yes"/>
      <point x="799.7165584634618" y="499.0"/>
      <point x="846.1875775213364" y="496.0"/>
      <point x="885.6561552512549" y="510.0" type="curve" smooth="yes"/>
      <point x="920.7720790197565" y="522.0"/>
      <point x="950.3565805181765" y="548.0"/>
      <point x="939.1753708815559" y="581.0" type="curve" smooth="yes"/>
      <point x="735.3846164802587" y="1172.0" type="line" smooth="yes"/>
      <point x="726.6164640172618" y="1196.0"/>
      <point x="712.9087147664719" y="1209.0"/>
      <point x="673.9087147664719" y="1209.0" type="curve" smooth="yes"/>
      <point x="634.9087147664719" y="1209.0"/>
      <point x="616.6164640172618" y="1196.0"/>
    </contour>
  </outline>
</glyph>
<glyph name="underscore" format="2">
  <advance width="1272"/>
  <unicode hex="005F"/>
  <outline>
    <contour>
      <point x="111.09458180359222" y="-249.0" type="line" smooth="yes"/>
      <point x="66.09458180359222" y="-249.0"/>
      <point x="44.56804218942292" y="-269.0"/>
      <point x="35.39903919258274" y="-321.0" type="curve" smooth="yes"/>
      <point x="26.23003619574257" y="-373.0"/>
      <point x="40.70349658157326" y="-393.0"/>
      <point x="85.70349658157326" y="-393.0" type="curve" smooth="yes"/>
      <point x="1047.7034965815733" y="-393.0" type="line" smooth="yes"/>
      <point x="1092.7034965815733" y="-393.0"/>
      <point x="1114.2300361957425" y="-373.0"/>
      <point x="1123.3990391925827" y="-321.0" type="curve" smooth="yes"/>
      <point x="1132.5680421894228" y="-269.0"/>
      <point x="1118.0945818035923" y="-249.0"/>
      <point x="1073.0945818035923" y="-249.0" type="curve" smooth="yes"/>
    </contour>
  </outline>
</glyph>
<glyph name="a" format="2">
  <advance width="995"/>
  <unicode hex="0061"/>
  <outline>
    <contour>
      <point x="325.75956850573755" y="855.0" type="curve" smooth="yes"/>
      <point x="288.5856828529852" y="837.0"/>
      <point x="269.29587343173125" y="807.0"/>
      <point x="283.18483231914183" y="761.0" type="curve" smooth="yes"/>
      <point x="297.07379120655247" y="715.0"/>
      <point x="321.95786743805087" y="703.0"/>
      <point x="362.3080800715117" y="722.0" type="curve" smooth="yes"/>
      <point x="466.9481021262265" y="771.0"/>
      <point x="585.2379115474805" y="801.0"/>
      <point x="686.2379115474805" y="801.0" type="curve" smooth="yes"/>
      <point x="849.2379115474805" y="801.0"/>
      <point x="905.6582927049726" y="741.0"/>
      <point x="883.0884391742891" y="613.0" type="curve" smooth="yes"/>
      <point x="872.7486977776437" y="554.3604125976562" type="line" smooth="yes"/>
      <point x="870.318911983481" y="540.5804125976563"/>
      <point x="857.3282111581638" y="532.3709213084499"/>
      <point x="845.1089087876069" y="536.893409854664" type="curve" smooth="yes"/>
      <point x="780.0299486145451" y="560.9797973632812"/>
      <point x="681.3038931192638" y="579.0"/>
      <point x="573.0933218302013" y="579.0" type="curve" smooth="yes"/>
      <point x="354.0933218302012" y="579.0"/>
      <point x="157.1055284699817" y="494.0"/>
      <point x="117.60828479128554" y="270.0" type="curve" smooth="yes"/>
      <point x="84.81146637951106" y="84.0"/>
      <point x="206.12080642441376" y="-22.0"/>
      <point x="406.1208064244138" y="-22.0" type="curve" smooth="yes"/>
      <point x="550.509783475195" y="-22.0"/>
      <point x="687.0965802368356" y="33.59513473510742"/>
      <point x="784.0897574896935" y="106.3726023051531" type="curve" smooth="yes"/>
      <point x="796.1023804515926" y="115.38610513908601"/>
      <point x="804.6003681286419" y="111.15921142578125"/>
      <point x="802.1705823344793" y="97.37921142578125" type="curve" smooth="yes"/>
      <point x="794.6979839389655" y="55.0" type="line" smooth="yes"/>
      <point x="786.5869428263762" y="9.0"/>
      <point x="799.2367301929154" y="-10.0"/>
      <point x="852.2367301929154" y="-10.0" type="curve" smooth="yes"/>
      <point x="854.2367301929154" y="-10.0" type="line" smooth="yes"/>
      <point x="907.2367301929154" y="-10.0"/>
      <point x="926.5869428263762" y="9.0"/>
      <point x="934.6979839389655" y="55.0" type="curve" smooth="yes"/>
      <point x="1033.088439174289" y="613.0" type="line" smooth="yes"/>
      <point x="1071.7040479494428" y="832.0"/>
      <point x="966.8053237502079" y="946.0"/>
      <point x="715.8053237502079" y="946.0" type="curve" smooth="yes"/>
      <point x="586.8053237502079" y="946.0"/>
      <point x="448.16286036753695" y="914.0"/>
    </contour>
    <contour>
      <point x="829.726738668325" y="310.3707580566406" type="line" smooth="yes"/>
      <point x="827.2969528741622" y="296.59075805664065"/>
      <point x="815.1003224231445" y="275.5841715003576"/>
      <point x="803.7764611129679" y="265.67589304327254" type="curve" smooth="yes"/>
      <point x="709.3705412845377" y="183.07154846191406"/>
      <point x="579.5994268175886" y="119.0"/>
      <point x="436.98291070430736" y="119.0" type="curve" smooth="yes"/>
      <point x="315.98291070430736" y="119.0"/>
      <point x="255.03354860468983" y="176.0"/>
      <point x="272.1372657334109" y="273.0" type="curve" smooth="yes"/>
      <point x="293.4728303991352" y="394.0"/>
      <point x="405.23121755030763" y="438.0"/>
      <point x="549.2312175503076" y="438.0" type="curve" smooth="yes"/>
      <point x="651.9760295620264" y="438.0"/>
      <point x="757.4381407810534" y="422.6141662597656"/>
      <point x="820.9324710085713" y="400.7360187792964" type="curve" smooth="yes"/>
      <point x="833.2877013130127" y="396.47879534238257"/>
      <point x="842.0895105957128" y="380.4835217285156"/>
      <point x="839.6597248015502" y="366.7035217285156" type="curve" smooth="yes"/>
    </contour>
  </outline>
</glyph>
<glyph name="b" format="2">
  <advance width="1033"/>
  <unicode hex="0062"/>
  <outline>
    <contour>
      <point x="375.1042684965907" y="1322.0" type="line" smooth="yes"/>
      <point x="319.1042684965907" y="1322.0"/>
      <point x="297.75405586312985" y="1303.0"/>
      <point x="289.6430147505405" y="1257.0" type="curve" smooth="yes"/>
      <point x="77.69798393896558" y="55.0" type="line" smooth="yes"/>
      <point x="69.58694282637619" y="9.0"/>
      <point x="82.23673019291535" y="-10.0"/>
      <point x="135.23673019291536" y="-10.0" type="curve" smooth="yes"/>
      <point x="137.23673019291536" y="-10.0" type="line" smooth="yes"/>
      <point x="190.23673019291536" y="-10.0"/>
      <point x="209.58694282637617" y="9.0"/>
      <point x="217.69798393896556" y="55.0" type="curve" smooth="yes"/>
      <point x="227.20906127838018" y="108.94" type="line" smooth="yes"/>
      <point x="230.85934716761068" y="129.6418"/>
      <point x="242.69391523594896" y="133.42862412076082"/>
      <point x="252.38899333867448" y="116.99707259736343" type="curve" smooth="yes"/>
      <point x="297.22940620904706" y="41.0"/>
      <point x="398.1208064244138" y="-22.0"/>
      <point x="531.1208064244138" y="-22.0" type="curve" smooth="yes"/>
      <point x="778.1208064244138" y="-22.0"/>
      <point x="993.2123169133544" y="160.0"/>
      <point x="1046.4630650873107" y="462.0" type="curve" smooth="yes"/>
      <point x="1099.7138132612672" y="764.0"/>
      <point x="948.8053237502079" y="946.0"/>
      <point x="701.8053237502079" y="946.0" type="curve" smooth="yes"/>
      <point x="568.8053237502079" y="946.0"/>
      <point x="453.69672396557456" y="883.0"/>
      <point x="391.9937762144442" y="818.7689640330834" type="curve" smooth="yes"/>
      <point x="372.7641019454437" y="798.7514130955492"/>
      <point x="359.6893086180941" y="803.56"/>
      <point x="364.17506700731747" y="829.0" type="curve" smooth="yes"/>
      <point x="439.6430147505405" y="1257.0" type="line" smooth="yes"/>
      <point x="447.75405586312985" y="1303.0"/>
      <point x="433.1042684965907" y="1322.0"/>
      <point x="377.1042684965907" y="1322.0" type="curve" smooth="yes"/>
    </contour>
    <contour>
      <point x="892.4630650873108" y="462.0" type="curve" smooth="yes"/>
      <point x="857.9029768684517" y="266.0"/>
      <point x="728.2171995692665" y="126.0"/>
      <point x="547.2171995692665" y="126.0" type="curve" smooth="yes"/>
      <point x="370.2171995692666" y="126.0"/>
      <point x="262.08174517711626" y="250.0"/>
      <point x="299.46306508731084" y="462.0" type="curve" smooth="yes"/>
      <point x="336.84438499750536" y="674.0"/>
      <point x="488.708930605355" y="798.0"/>
      <point x="665.708930605355" y="798.0" type="curve" smooth="yes"/>
      <point x="846.708930605355" y="798.0"/>
      <point x="927.02315330617" y="658.0"/>
    </contour>
  </outline>
</glyph>
<glyph name="c" format="2">
  <advance width="1062"/>
  <unicode hex="0063"/>
  <outline>
    <contour>
      <point x="149.46306508731084" y="462.0" type="curve" smooth="yes"/>
      <point x="100.62049143106603" y="185.0"/>
      <point x="254.12080642441376" y="-22.0"/>
      <point x="546.1208064244138" y="-22.0" type="curve" smooth="yes"/>
      <point x="698.1208064244138" y="-22.0"/>
      <point x="858.7608284791286" y="27.0"/>
      <point x="980.6906599550973" y="106.0" type="curve" smooth="yes"/>
      <point x="1020.0988344728089" y="131.0"/>
      <point x="1034.4466057783136" y="167.0"/>
      <point x="1014.7339738716115" y="214.0" type="curve" smooth="yes"/>
      <point x="994.3739959263263" y="263.0"/>
      <point x="958.4923610227839" y="258.0"/>
      <point x="927.7894944279062" y="237.0" type="curve" smooth="yes"/>
      <point x="819.9176248361882" y="164.0"/>
      <point x="694.2171995692665" y="126.0"/>
      <point x="572.2171995692665" y="126.0" type="curve" smooth="yes"/>
      <point x="377.2171995692666" y="126.0"/>
      <point x="273.07930384916017" y="267.0"/>
      <point x="307.46306508731084" y="462.0" type="curve" smooth="yes"/>
      <point x="341.8468263254615" y="657.0"/>
      <point x="495.708930605355" y="798.0"/>
      <point x="690.708930605355" y="798.0" type="curve" smooth="yes"/>
      <point x="802.708930605355" y="798.0"/>
      <point x="905.5954481648096" y="769.0"/>
      <point x="992.6052134766339" y="701.0" type="curve" smooth="yes"/>
      <point x="1017.0786738624647" y="681.0"/>
      <point x="1051.5496929203393" y="678.0"/>
      <point x="1086.542368936471" y="729.0" type="curve" smooth="yes"/>
      <point x="1121.0060640104773" y="777.0"/>
      <point x="1117.353835315982" y="813.0"/>
      <point x="1085.4093558722766" y="836.0" type="curve" smooth="yes"/>
      <point x="986.2812254639947" y="909.0"/>
      <point x="858.8053237502079" y="946.0"/>
      <point x="716.8053237502079" y="946.0" type="curve" smooth="yes"/>
      <point x="424.8053237502079" y="946.0"/>
      <point x="198.30563874355562" y="739.0"/>
    </contour>
  </outline>
</glyph>
<glyph name="d" format="2">
  <advance width="1033"/>
  <unicode hex="0064"/>
  <outline>
    <contour>
      <point x="1122.1042684965907" y="1322.0" type="line" smooth="yes"/>
      <point x="1066.1042684965907" y="1322.0"/>
      <point x="1044.75405586313" y="1303.0"/>
      <point x="1036.6430147505405" y="1257.0" type="curve" smooth="yes"/>
      <point x="961.1750670073175" y="829.0" type="line" smooth="yes"/>
      <point x="956.6893086180942" y="803.56"/>
      <point x="941.9187480700724" y="798.7514130955492"/>
      <point x="929.7483424370585" y="818.7689640330834" type="curve" smooth="yes"/>
      <point x="890.6967239655746" y="883.0"/>
      <point x="797.8053237502079" y="946.0"/>
      <point x="664.8053237502079" y="946.0" type="curve" smooth="yes"/>
      <point x="417.8053237502079" y="946.0"/>
      <point x="202.71381326126723" y="764.0"/>
      <point x="149.46306508731084" y="462.0" type="curve" smooth="yes"/>
      <point x="96.2123169133544" y="160.0"/>
      <point x="247.12080642441376" y="-22.0"/>
      <point x="494.1208064244138" y="-22.0" type="curve" smooth="yes"/>
      <point x="627.1208064244138" y="-22.0"/>
      <point x="750.229406209047" y="41.0"/>
      <point x="821.8704877869698" y="116.99707259736343" type="curve" smooth="yes"/>
      <point x="837.3602176266478" y="133.42862412076082"/>
      <point x="847.8593471676106" y="129.6418"/>
      <point x="844.2090612783802" y="108.94" type="curve" smooth="yes"/>
      <point x="834.6979839389655" y="55.0" type="line" smooth="yes"/>
      <point x="826.5869428263762" y="9.0"/>
      <point x="839.2367301929154" y="-10.0"/>
      <point x="892.2367301929154" y="-10.0" type="curve" smooth="yes"/>
      <point x="894.2367301929154" y="-10.0" type="line" smooth="yes"/>
      <point x="947.2367301929154" y="-10.0"/>
      <point x="966.5869428263762" y="9.0"/>
      <point x="974.6979839389655" y="55.0" type="curve" smooth="yes"/>
      <point x="1186.6430147505405" y="1257.0" type="line" smooth="yes"/>
      <point x="1194.75405586313" y="1303.0"/>
      <point x="1180.1042684965907" y="1322.0"/>
      <point x="1124.1042684965907" y="1322.0" type="curve" smooth="yes"/>
    </contour>
    <contour>
      <point x="896.4630650873108" y="462.0" type="curve" smooth="yes"/>
      <point x="859.0817451771162" y="250.0"/>
      <point x="707.2171995692665" y="126.0"/>
      <point x="530.2171995692665" y="126.0" type="curve" smooth="yes"/>
      <point x="349.2171995692666" y="126.0"/>
      <point x="268.9029768684517" y="266.0"/>
      <point x="303.46306508731084" y="462.0" type="curve" smooth="yes"/>
      <point x="338.02315330616995" y="658.0"/>
      <point x="467.708930605355" y="798.0"/>
      <point x="648.708930605355" y="798.0" type="curve" smooth="yes"/>
      <point x="825.708930605355" y="798.0"/>
      <point x="933.8443849975054" y="674.0"/>
    </contour>
  </outline>
</glyph>
<glyph name="e" format="2">
  <advance width="1077"/>
  <unicode hex="0065"/>
  <outline>
    <contour>
      <point x="149.46306508731084" y="462.0" type="curve" smooth="yes"/>
      <point x="96.38864389406285" y="161.0"/>
      <point x="227.12080642441376" y="-22.0"/>
      <point x="519.1208064244138" y="-22.0" type="curve" smooth="yes"/>
      <point x="674.1208064244138" y="-22.0"/>
      <point x="834.644904710627" y="15.0"/>
      <point x="947.4612537460503" y="65.0" type="curve" smooth="yes"/>
      <point x="991.9877933602195" y="85.0"/>
      <point x="1010.4539297621819" y="116.0"/>
      <point x="1001.5649708747713" y="162.0" type="curve" smooth="yes"/>
      <point x="992.8523389680691" y="209.0"/>
      <point x="964.7315325436554" y="231.0"/>
      <point x="919.8523389680691" y="209.0" type="curve" smooth="yes"/>
      <point x="819.5070089905205" y="156.0"/>
      <point x="678.6882186271412" y="123.0"/>
      <point x="544.6882186271412" y="123.0" type="curve" smooth="yes"/>
      <point x="359.68821862714117" y="123.0"/>
      <point x="271.6735706594046" y="225.0"/>
      <point x="290.8828371636917" y="377.05988773386343" type="curve" smooth="yes"/>
      <point x="294.0925858715168" y="402.4681472349158"/>
      <point x="319.4989668010976" y="425.0"/>
      <point x="344.93896680109765" y="425.0" type="curve" smooth="yes"/>
      <point x="1020.9389668010976" y="425.0" type="line" smooth="yes"/>
      <point x="1065.9389668010976" y="425.0"/>
      <point x="1089.9365254731415" y="442.0"/>
      <point x="1094.8712396050225" y="487.0" type="curve" smooth="yes"/>
      <point x="1126.774216473474" y="753.0"/>
      <point x="1006.8053237502079" y="946.0"/>
      <point x="709.8053237502079" y="946.0" type="curve" smooth="yes"/>
      <point x="430.8053237502079" y="946.0"/>
      <point x="200.77421647347413" y="753.0"/>
    </contour>
    <contour>
      <point x="946.1368663084689" y="612.1849719407421" type="curve" smooth="yes"/>
      <point x="946.3954415381302" y="587.1769368121488"/>
      <point x="924.0647441002827" y="565.0"/>
      <point x="898.6247441002827" y="565.0" type="curve" smooth="yes"/>
      <point x="379.6247441002827" y="565.0" type="line" smooth="yes"/>
      <point x="354.1847441002827" y="565.0"/>
      <point x="340.4475865758643" y="587.012158647231"/>
      <point x="350.3967493674775" y="611.8343801004914" type="curve" smooth="yes"/>
      <point x="390.54481026442704" y="712.0"/>
      <point x="518.2379115474805" y="801.0"/>
      <point x="684.2379115474805" y="801.0" type="curve" smooth="yes"/>
      <point x="860.2379115474805" y="801.0"/>
      <point x="945.0737912065524" y="715.0"/>
    </contour>
  </outline>
</glyph>
<glyph name="g" format="2">
  <advance width="1033"/>
  <unicode hex="0067"/>
  <outline>
    <contour>
      <point x="153.87123960502242" y="487.0" type="curve" smooth="yes"/>
      <point x="103.265396141693" y="200.0"/>
      <point x="255.93715545983702" y="28.0"/>
      <point x="502.937155459837" y="28.0" type="curve" smooth="yes"/>
      <point x="635.9371554598371" y="28.0"/>
      <point x="750.9877933602195" y="85.0"/>
      <point x="810.8894917164996" y="146.48135234872063" type="curve" smooth="yes"/>
      <point x="830.2634682654443" y="166.3662356038987"/>
      <point x="843.4662277655746" y="161.44"/>
      <point x="838.9804693763513" y="136.0" type="curve" smooth="yes"/>
      <point x="812.0024413279561" y="-17.0" type="line" smooth="yes"/>
      <point x="786.0823751638118" y="-164.0"/>
      <point x="679.8023310543822" y="-262.0"/>
      <point x="490.8023310543822" y="-262.0" type="curve" smooth="yes"/>
      <point x="382.8023310543822" y="-262.0"/>
      <point x="267.03417859138534" y="-238.0"/>
      <point x="172.3819498968901" y="-202.0" type="curve" smooth="yes"/>
      <point x="140.49787366539164" y="-190.0"/>
      <point x="110.20562291618161" y="-203.0"/>
      <point x="84.38927388075837" y="-253.0" type="curve" smooth="yes"/>
      <point x="58.39659786462665" y="-304.0"/>
      <point x="65.28311542408116" y="-333.0"/>
      <point x="98.99086467487112" y="-346.0" type="curve" smooth="yes"/>
      <point x="206.5851314851156" y="-388.0"/>
      <point x="338.7059379095293" y="-410.0"/>
      <point x="464.7059379095293" y="-410.0" type="curve" smooth="yes"/>
      <point x="735.7059379095293" y="-410.0"/>
      <point x="917.568042189423" y="-269.0"/>
      <point x="959.710190578746" y="-30.0" type="curve" smooth="yes"/>
      <point x="1118.2281462356561" y="869.0" type="line" smooth="yes"/>
      <point x="1126.3391873482456" y="915.0"/>
      <point x="1113.6893999817062" y="934.0"/>
      <point x="1060.6893999817062" y="934.0" type="curve" smooth="yes"/>
      <point x="1058.6893999817062" y="934.0" type="line" smooth="yes"/>
      <point x="1005.6893999817063" y="934.0"/>
      <point x="986.3391873482454" y="915.0"/>
      <point x="978.228146235656" y="869.0" type="curve" smooth="yes"/>
      <point x="968.7170688962415" y="815.06" type="line" smooth="yes"/>
      <point x="965.0667830070109" y="794.3582"/>
      <point x="953.2322149386727" y="790.5713758792392"/>
      <point x="943.5371368359471" y="807.0029274026366" type="curve" smooth="yes"/>
      <point x="898.6967239655746" y="883.0"/>
      <point x="797.8053237502079" y="946.0"/>
      <point x="664.8053237502079" y="946.0" type="curve" smooth="yes"/>
      <point x="417.8053237502079" y="946.0"/>
      <point x="204.4770830683519" y="774.0"/>
    </contour>
    <contour>
      <point x="900.8712396050224" y="487.0" type="curve" smooth="yes"/>
      <point x="866.1348244054549" y="290.0"/>
      <point x="716.0335486046898" y="176.0"/>
      <point x="539.0335486046898" y="176.0" type="curve" smooth="yes"/>
      <point x="358.0335486046898" y="176.0"/>
      <point x="275.9560560967903" y="306.0"/>
      <point x="307.8712396050224" y="487.0" type="curve" smooth="yes"/>
      <point x="339.7864231132546" y="668.0"/>
      <point x="467.708930605355" y="798.0"/>
      <point x="648.708930605355" y="798.0" type="curve" smooth="yes"/>
      <point x="825.708930605355" y="798.0"/>
      <point x="935.6076548045901" y="684.0"/>
    </contour>
  </outline>
</glyph>
<glyph name="h" format="2">
  <advance width="1010"/>
  <unicode hex="0068"/>
  <outline>
    <contour>
      <point x="391.1042684965907" y="1322.0" type="line" smooth="yes"/>
      <point x="335.1042684965907" y="1322.0"/>
      <point x="313.75405586312985" y="1303.0"/>
      <point x="305.6430147505405" y="1257.0" type="curve" smooth="yes"/>
      <point x="93.69798393896558" y="55.0" type="line" smooth="yes"/>
      <point x="85.58694282637619" y="9.0"/>
      <point x="100.23673019291535" y="-10.0"/>
      <point x="156.23673019291536" y="-10.0" type="curve" smooth="yes"/>
      <point x="158.23673019291536" y="-10.0" type="line" smooth="yes"/>
      <point x="214.23673019291536" y="-10.0"/>
      <point x="235.58694282637617" y="9.0"/>
      <point x="243.69798393896556" y="55.0" type="curve" smooth="yes"/>
      <point x="303.12017643771827" y="392.0" type="line" smooth="yes"/>
      <point x="343.3227280392483" y="620.0"/>
      <point x="563.708930605355" y="798.0"/>
      <point x="734.708930605355" y="798.0" type="curve" smooth="yes"/>
      <point x="863.708930605355" y="798.0"/>
      <point x="902.9554261100948" y="720.0"/>
      <point x="882.6778233286213" y="605.0" type="curve" smooth="yes"/>
      <point x="785.6979839389655" y="55.0" type="line" smooth="yes"/>
      <point x="777.5869428263762" y="9.0"/>
      <point x="792.2367301929154" y="-10.0"/>
      <point x="848.2367301929154" y="-10.0" type="curve" smooth="yes"/>
      <point x="850.2367301929154" y="-10.0" type="line" smooth="yes"/>
      <point x="906.2367301929154" y="-10.0"/>
      <point x="927.5869428263762" y="9.0"/>
      <point x="935.6979839389655" y="55.0" type="curve" smooth="yes"/>
      <point x="1035.3227280392482" y="620.0" type="line" smooth="yes"/>
      <point x="1070.5881241809413" y="820.0"/>
      <point x="979.8053237502079" y="946.0"/>
      <point x="775.8053237502079" y="946.0" type="curve" smooth="yes"/>
      <point x="640.8053237502079" y="946.0"/>
      <point x="476.75956850573755" y="855.0"/>
      <point x="394.9805081653028" y="759.6651275371469" type="curve" smooth="yes"/>
      <point x="376.9472146760425" y="738.642609942459"/>
      <point x="364.9333627948778" y="742.56"/>
      <point x="369.4191211841011" y="768.0" type="curve" smooth="yes"/>
      <point x="455.6430147505405" y="1257.0" type="line" smooth="yes"/>
      <point x="463.75405586312985" y="1303.0"/>
      <point x="449.1042684965907" y="1322.0"/>
      <point x="393.1042684965907" y="1322.0" type="curve" smooth="yes"/>
    </contour>
  </outline>
</glyph>
<glyph name="k" format="2">
  <advance width="956"/>
  <unicode hex="006B"/>
  <outline>
    <contour>
      <point x="895.9261301746217" y="924.0" type="curve" smooth="yes"/>
      <point x="306.27584729975797" y="469.94404892300196" type="line" smooth="yes"/>
      <point x="294.37104423852287" y="460.7768411163695"/>
      <point x="285.96867043564725" y="464.8674304199219"/>
      <point x="288.3984562298099" y="478.6474304199219" type="curve" smooth="yes"/>
      <point x="425.6430147505405" y="1257.0" type="line" smooth="yes"/>
      <point x="433.75405586312985" y="1303.0"/>
      <point x="419.1042684965907" y="1322.0"/>
      <point x="363.1042684965907" y="1322.0" type="curve" smooth="yes"/>
      <point x="361.1042684965907" y="1322.0" type="line" smooth="yes"/>
      <point x="305.1042684965907" y="1322.0"/>
      <point x="283.75405586312985" y="1303.0"/>
      <point x="275.6430147505405" y="1257.0" type="curve" smooth="yes"/>
      <point x="63.69798393896558" y="55.0" type="line" smooth="yes"/>
      <point x="55.58694282637619" y="9.0"/>
      <point x="70.23673019291535" y="-10.0"/>
      <point x="126.23673019291535" y="-10.0" type="curve" smooth="yes"/>
      <point x="128.23673019291536" y="-10.0" type="line" smooth="yes"/>
      <point x="184.23673019291536" y="-10.0"/>
      <point x="205.58694282637617" y="9.0"/>
      <point x="213.69798393896556" y="55.0" type="curve" smooth="yes"/>
      <point x="245.00596723653052" y="232.556396484375" type="line" smooth="yes"/>
      <point x="247.43575303069318" y="246.336396484375"/>
      <point x="260.18874736315314" y="266.6277141127437"/>
      <point x="272.13999773112624" y="275.7294127149467" type="curve" smooth="yes"/>
      <point x="435.4226045091151" y="400.08034070302205" type="line" smooth="yes"/>
      <point x="447.3738548770882" y="409.18203930522503"/>
      <point x="464.5840420788936" y="408.2004951472652"/>
      <point x="472.0400240874244" y="397.9919488775755" type="curve" smooth="yes"/>
      <point x="760.5289809421254" y="3.0" type="line" smooth="yes"/>
      <point x="779.7681524629968" y="-24.0"/>
      <point x="809.1208064244138" y="-22.0"/>
      <point x="860.8816349035424" y="5.0" type="curve" smooth="yes"/>
      <point x="914.8187903633793" y="33.0"/>
      <point x="923.7559458232164" y="61.0"/>
      <point x="898.7510631673042" y="95.0" type="curve" smooth="yes"/>
      <point x="602.1191348563931" y="497.0582334705936" type="line" smooth="yes"/>
      <point x="594.6151945739364" y="507.2291580612571"/>
      <point x="598.5590359872951" y="524.3199742945916"/>
      <point x="610.5102867997097" y="533.4216722649222" type="curve" smooth="yes"/>
      <point x="1003.8803749301513" y="833.0" type="line" smooth="yes"/>
      <point x="1044.1701843514052" y="863.0"/>
      <point x="1040.9889747147845" y="896.0"/>
      <point x="998.9261301746217" y="924.0" type="curve" smooth="yes"/>
      <point x="961.3343046923333" y="949.0"/>
      <point x="924.8053237502079" y="946.0"/>
    </contour>
  </outline>
</glyph>
<glyph name="l" format="2">
  <advance width="507"/>
  <unicode hex="006C"/>
  <outline>
    <contour>
      <point x="125.03746680096636" y="144.0" type="line" smooth="yes"/>
      <point x="113.86147995886104" y="144.0"/>
      <point x="105.86454560784966" y="124.0"/>
      <point x="96.69554261100947" y="72.0" type="curve" smooth="yes"/>
      <point x="87.5265396141693" y="20.0"/>
      <point x="88.47039473684208" y="0.0"/>
      <point x="99.6463815789474" y="0.0" type="curve" smooth="yes"/>
      <point x="407.1036184210526" y="0.0" type="line" smooth="yes"/>
      <point x="418.2796052631579" y="0.0"/>
      <point x="426.2765396141693" y="20.0"/>
      <point x="435.4455426110095" y="72.0" type="curve" smooth="yes"/>
      <point x="444.61454560784966" y="124.0"/>
      <point x="443.67069048517686" y="144.0"/>
      <point x="432.49470364307155" y="144.0" type="curve" smooth="yes"/>
      <point x="386.25592074833474" y="144.0" type="line" smooth="yes"/>
      <point x="368.5097947614926" y="144.0"/>
      <point x="355.5475448917081" y="159.73713059210525"/>
      <point x="358.67666570624004" y="177.48325657894736" type="curve" smooth="yes"/>
      <point x="546.7323429486988" y="1244.0" type="line" smooth="yes"/>
      <point x="555.5486919841221" y="1294.0"/>
      <point x="540.7225776368745" y="1312.0"/>
      <point x="495.72257763687446" y="1312.0" type="curve" smooth="yes"/>
      <point x="340.92159079476926" y="1312.0" type="line" smooth="yes"/>
      <point x="329.74560395266394" y="1312.0"/>
      <point x="321.7486696016525" y="1292.0"/>
      <point x="312.57966660481236" y="1240.0" type="curve" smooth="yes"/>
      <point x="303.4106636079722" y="1188.0"/>
      <point x="304.354518730645" y="1168.0"/>
      <point x="315.53050557275026" y="1168.0" type="curve" smooth="yes"/>
      <point x="354.85507794117126" y="1168.0" type="line" smooth="yes"/>
      <point x="369.94757761222394" y="1168.0"/>
      <point x="380.97154712764814" y="1154.6160851973684"/>
      <point x="378.31033222930796" y="1139.5235855263159" type="curve" smooth="yes"/>
      <point x="208.52952548102252" y="176.64878289473683" type="line" smooth="yes"/>
      <point x="205.4783889858559" y="159.34492796052632"/>
      <point x="187.42773620886106" y="144.0"/>
      <point x="170.1238812746505" y="144.0" type="curve" smooth="yes"/>
    </contour>
  </outline>
</glyph>
<glyph name="m" format="2">
  <advance width="1140"/>
  <unicode hex="006D"/>
  <outline>
    <contour>
      <point x="761.8901402419757" y="765.0" type="curve"/>
      <point x="758.5783588691169" y="888.0"/>
      <point x="692.8053237502079" y="946.0"/>
      <point x="605.8053237502079" y="946.0" type="curve" smooth="yes"/>
      <point x="514.8053237502079" y="946.0"/>
      <point x="420.0493779269915" y="885.0"/>
      <point x="339.47952439630797" y="757.0" type="curve"/>
      <point x="359.228146235656" y="869.0" type="line" smooth="yes"/>
      <point x="367.33918734824545" y="915.0"/>
      <point x="356.6893999817063" y="934.0"/>
      <point x="306.6893999817063" y="934.0" type="curve" smooth="yes"/>
      <point x="304.6893999817063" y="934.0" type="line" smooth="yes"/>
      <point x="254.6893999817063" y="934.0"/>
      <point x="237.33918734824545" y="915.0"/>
      <point x="229.22814623565606" y="869.0" type="curve" smooth="yes"/>
      <point x="85.69798393896558" y="55.0" type="line" smooth="yes"/>
      <point x="77.58694282637619" y="9.0"/>
      <point x="92.23673019291535" y="-10.0"/>
      <point x="148.23673019291536" y="-10.0" type="curve" smooth="yes"/>
      <point x="150.23673019291536" y="-10.0" type="line" smooth="yes"/>
      <point x="206.23673019291536" y="-10.0"/>
      <point x="227.58694282637617" y="9.0"/>
      <point x="235.69798393896556" y="55.0" type="curve" smooth="yes"/>
      <point x="306.5814301837685" y="457.0" type="line" smooth="yes"/>
      <point x="342.1994802868784" y="659.0"/>
      <point x="445.708930605355" y="798.0"/>
      <point x="540.708930605355" y="798.0" type="curve" smooth="yes"/>
      <point x="608.708930605355" y="798.0"/>
      <point x="627.0689085506402" y="749.0"/>
      <point x="611.3758072675869" y="660.0" type="curve" smooth="yes"/>
      <point x="504.6979839389656" y="55.0" type="line" smooth="yes"/>
      <point x="496.5869428263762" y="9.0"/>
      <point x="511.23673019291533" y="-10.0"/>
      <point x="567.2367301929154" y="-10.0" type="curve" smooth="yes"/>
      <point x="569.2367301929154" y="-10.0" type="line" smooth="yes"/>
      <point x="625.2367301929154" y="-10.0"/>
      <point x="646.5869428263762" y="9.0"/>
      <point x="654.6979839389655" y="55.0" type="curve" smooth="yes"/>
      <point x="725.5814301837685" y="457.0" type="line" smooth="yes"/>
      <point x="761.1994802868784" y="659.0"/>
      <point x="864.708930605355" y="798.0"/>
      <point x="959.708930605355" y="798.0" type="curve" smooth="yes"/>
      <point x="1027.7089306053551" y="798.0"/>
      <point x="1046.0689085506403" y="749.0"/>
      <point x="1030.3758072675869" y="660.0" type="curve" smooth="yes"/>
      <point x="923.6979839389655" y="55.0" type="line" smooth="yes"/>
      <point x="915.5869428263762" y="9.0"/>
      <point x="930.2367301929154" y="-10.0"/>
      <point x="986.2367301929154" y="-10.0" type="curve" smooth="yes"/>
      <point x="988.2367301929154" y="-10.0" type="line" smooth="yes"/>
      <point x="1044.2367301929153" y="-10.0"/>
      <point x="1065.5869428263761" y="9.0"/>
      <point x="1073.6979839389655" y="55.0" type="curve" smooth="yes"/>
      <point x="1183.5496929203393" y="678.0" type="line" smooth="yes"/>
      <point x="1215.8175303899884" y="861.0"/>
      <point x="1137.805323750208" y="946.0"/>
      <point x="1023.8053237502079" y="946.0" type="curve" smooth="yes"/>
      <point x="931.8053237502079" y="946.0"/>
      <point x="843.4020318884084" y="887.0"/>
    </contour>
  </outline>
</glyph>
<glyph name="n" format="2">
  <advance width="1010"/>
  <unicode hex="006E"/>
  <outline>
    <contour>
      <point x="381.6687755350968" y="746.2993675433032" type="curve" smooth="yes"/>
      <point x="364.08235414298895" y="724.9407027453525"/>
      <point x="352.46478506495924" y="728.56"/>
      <point x="356.9505434541826" y="754.0" type="curve" smooth="yes"/>
      <point x="377.228146235656" y="869.0" type="line" smooth="yes"/>
      <point x="385.33918734824545" y="915.0"/>
      <point x="372.6893999817063" y="934.0"/>
      <point x="319.6893999817063" y="934.0" type="curve" smooth="yes"/>
      <point x="317.6893999817063" y="934.0" type="line" smooth="yes"/>
      <point x="264.6893999817063" y="934.0"/>
      <point x="245.33918734824545" y="915.0"/>
      <point x="237.22814623565606" y="869.0" type="curve" smooth="yes"/>
      <point x="93.69798393896558" y="55.0" type="line" smooth="yes"/>
      <point x="85.58694282637619" y="9.0"/>
      <point x="100.23673019291535" y="-10.0"/>
      <point x="156.23673019291536" y="-10.0" type="curve" smooth="yes"/>
      <point x="158.23673019291536" y="-10.0" type="line" smooth="yes"/>
      <point x="214.23673019291536" y="-10.0"/>
      <point x="235.58694282637617" y="9.0"/>
      <point x="243.69798393896556" y="55.0" type="curve" smooth="yes"/>
      <point x="303.12017643771827" y="392.0" type="line" smooth="yes"/>
      <point x="343.3227280392483" y="620.0"/>
      <point x="563.708930605355" y="798.0"/>
      <point x="734.708930605355" y="798.0" type="curve" smooth="yes"/>
      <point x="863.708930605355" y="798.0"/>
      <point x="902.9554261100948" y="720.0"/>
      <point x="882.6778233286213" y="605.0" type="curve" smooth="yes"/>
      <point x="785.6979839389655" y="55.0" type="line" smooth="yes"/>
      <point x="777.5869428263762" y="9.0"/>
      <point x="792.2367301929154" y="-10.0"/>
      <point x="848.2367301929154" y="-10.0" type="curve" smooth="yes"/>
      <point x="850.2367301929154" y="-10.0" type="line" smooth="yes"/>
      <point x="906.2367301929154" y="-10.0"/>
      <point x="927.5869428263762" y="9.0"/>
      <point x="935.6979839389655" y="55.0" type="curve" smooth="yes"/>
      <point x="1035.3227280392482" y="620.0" type="line" smooth="yes"/>
      <point x="1070.5881241809413" y="820.0"/>
      <point x="979.8053237502079" y="946.0"/>
      <point x="775.8053237502079" y="946.0" type="curve" smooth="yes"/>
      <point x="629.8053237502079" y="946.0"/>
      <point x="460.4673177565275" y="842.0"/>
    </contour>
  </outline>
</glyph>
<glyph name="o" format="2">
  <advance width="1096"/>
  <unicode hex="006F"/>
  <outline>
    <contour>
      <point x="149.46306508731084" y="462.0" type="curve" smooth="yes"/>
      <point x="99.7388565275237" y="180.0"/>
      <point x="268.1208064244138" y="-22.0"/>
      <point x="544.1208064244138" y="-22.0" type="curve" smooth="yes"/>
      <point x="820.1208064244138" y="-22.0"/>
      <point x="1059.7388565275237" y="180.0"/>
      <point x="1109.4630650873107" y="462.0" type="curve" smooth="yes"/>
      <point x="1159.187273647098" y="744.0"/>
      <point x="990.8053237502079" y="946.0"/>
      <point x="714.8053237502079" y="946.0" type="curve" smooth="yes"/>
      <point x="438.8053237502079" y="946.0"/>
      <point x="199.18727364709795" y="744.0"/>
    </contour>
    <contour>
      <point x="955.4630650873108" y="462.0" type="curve" smooth="yes"/>
      <point x="920.7266498877432" y="265.0"/>
      <point x="766.2171995692665" y="126.0"/>
      <point x="570.2171995692665" y="126.0" type="curve" smooth="yes"/>
      <point x="374.2171995692666" y="126.0"/>
      <point x="268.72664988774324" y="265.0"/>
      <point x="303.46306508731084" y="462.0" type="curve" smooth="yes"/>
      <point x="338.1994802868784" y="659.0"/>
      <point x="492.708930605355" y="798.0"/>
      <point x="688.708930605355" y="798.0" type="curve" smooth="yes"/>
      <point x="884.708930605355" y="798.0"/>
      <point x="990.1994802868784" y="659.0"/>
    </contour>
  </outline>
</glyph>
<glyph name="p" format="2">
  <advance width="1017"/>
  <unicode hex="0070"/>
  <outline>
    <contour>
      <point x="366.0556423876518" y="807.0029274026366" type="curve" smooth="yes"/>
      <point x="350.56591254797377" y="790.5713758792392"/>
      <point x="340.06678300701094" y="794.3582"/>
      <point x="343.71706889624147" y="815.06" type="curve" smooth="yes"/>
      <point x="353.228146235656" y="869.0" type="line" smooth="yes"/>
      <point x="361.33918734824545" y="915.0"/>
      <point x="348.6893999817063" y="934.0"/>
      <point x="295.6893999817063" y="934.0" type="curve" smooth="yes"/>
      <point x="293.6893999817063" y="934.0" type="line" smooth="yes"/>
      <point x="240.6893999817063" y="934.0"/>
      <point x="221.33918734824545" y="915.0"/>
      <point x="213.22814623565606" y="869.0" type="curve" smooth="yes"/>
      <point x="1.28311542408116" y="-333.0" type="line" smooth="yes"/>
      <point x="-6.8279256885082305" y="-379.0"/>
      <point x="7.821861678030942" y="-398.0"/>
      <point x="63.82186167803094" y="-398.0" type="curve" smooth="yes"/>
      <point x="65.82186167803094" y="-398.0" type="line" smooth="yes"/>
      <point x="121.82186167803094" y="-398.0"/>
      <point x="143.17207431149177" y="-379.0"/>
      <point x="151.28311542408116" y="-333.0" type="curve" smooth="yes"/>
      <point x="226.75106316730418" y="95.0" type="line" smooth="yes"/>
      <point x="231.23682155652753" y="120.44"/>
      <point x="246.00738210454924" y="125.24858690445079"/>
      <point x="258.17778773756316" y="105.23103596691658" type="curve" smooth="yes"/>
      <point x="297.22940620904706" y="41.0"/>
      <point x="390.1208064244138" y="-22.0"/>
      <point x="523.1208064244138" y="-22.0" type="curve" smooth="yes"/>
      <point x="770.1208064244138" y="-22.0"/>
      <point x="985.2123169133544" y="160.0"/>
      <point x="1038.4630650873107" y="462.0" type="curve" smooth="yes"/>
      <point x="1091.7138132612672" y="764.0"/>
      <point x="940.8053237502079" y="946.0"/>
      <point x="693.8053237502079" y="946.0" type="curve" smooth="yes"/>
      <point x="560.8053237502079" y="946.0"/>
      <point x="437.69672396557456" y="883.0"/>
    </contour>
    <contour>
      <point x="884.4630650873108" y="462.0" type="curve" smooth="yes"/>
      <point x="849.9029768684517" y="266.0"/>
      <point x="720.2171995692665" y="126.0"/>
      <point x="539.2171995692665" y="126.0" type="curve" smooth="yes"/>
      <point x="362.2171995692666" y="126.0"/>
      <point x="254.08174517711626" y="250.0"/>
      <point x="291.46306508731084" y="462.0" type="curve" smooth="yes"/>
      <point x="328.84438499750536" y="674.0"/>
      <point x="480.708930605355" y="798.0"/>
      <point x="657.708930605355" y="798.0" type="curve" smooth="yes"/>
      <point x="838.708930605355" y="798.0"/>
      <point x="919.02315330617" y="658.0"/>
    </contour>
  </outline>
</glyph>
<glyph name="q" format="2">
  <advance width="1017"/>
  <unicode hex="0071"/>
  <outline>
    <contour>
      <point x="141.46306508731084" y="462.0" type="curve" smooth="yes"/>
      <point x="88.2123169133544" y="160.0"/>
      <point x="239.12080642441376" y="-22.0"/>
      <point x="486.1208064244138" y="-22.0" type="curve" smooth="yes"/>
      <point x="619.1208064244138" y="-22.0"/>
      <point x="734.229406209047" y="41.0"/>
      <point x="795.9323539601774" y="105.23103596691658" type="curve" smooth="yes"/>
      <point x="815.162028229178" y="125.24858690445079"/>
      <point x="828.2368215565275" y="120.44"/>
      <point x="823.7510631673042" y="95.0" type="curve" smooth="yes"/>
      <point x="748.2831154240812" y="-333.0" type="line" smooth="yes"/>
      <point x="740.1720743114918" y="-379.0"/>
      <point x="754.8218616780309" y="-398.0"/>
      <point x="810.8218616780309" y="-398.0" type="curve" smooth="yes"/>
      <point x="812.8218616780309" y="-398.0" type="line" smooth="yes"/>
      <point x="868.8218616780309" y="-398.0"/>
      <point x="890.1720743114918" y="-379.0"/>
      <point x="898.2831154240812" y="-333.0" type="curve" smooth="yes"/>
      <point x="1110.2281462356561" y="869.0" type="line" smooth="yes"/>
      <point x="1118.3391873482456" y="915.0"/>
      <point x="1105.6893999817062" y="934.0"/>
      <point x="1052.6893999817062" y="934.0" type="curve" smooth="yes"/>
      <point x="1050.6893999817062" y="934.0" type="line" smooth="yes"/>
      <point x="997.6893999817063" y="934.0"/>
      <point x="978.3391873482454" y="915.0"/>
      <point x="970.228146235656" y="869.0" type="curve" smooth="yes"/>
      <point x="960.7170688962415" y="815.06" type="line" smooth="yes"/>
      <point x="957.0667830070109" y="794.3582"/>
      <point x="945.2322149386727" y="790.5713758792392"/>
      <point x="935.5371368359471" y="807.0029274026366" type="curve" smooth="yes"/>
      <point x="890.6967239655746" y="883.0"/>
      <point x="789.8053237502079" y="946.0"/>
      <point x="656.8053237502079" y="946.0" type="curve" smooth="yes"/>
      <point x="409.8053237502079" y="946.0"/>
      <point x="194.71381326126723" y="764.0"/>
    </contour>
    <contour>
      <point x="888.4630650873108" y="462.0" type="curve" smooth="yes"/>
      <point x="851.0817451771162" y="250.0"/>
      <point x="699.2171995692665" y="126.0"/>
      <point x="522.2171995692665" y="126.0" type="curve" smooth="yes"/>
      <point x="341.2171995692666" y="126.0"/>
      <point x="260.9029768684517" y="266.0"/>
      <point x="295.46306508731084" y="462.0" type="curve" smooth="yes"/>
      <point x="330.02315330616995" y="658.0"/>
      <point x="459.708930605355" y="798.0"/>
      <point x="640.708930605355" y="798.0" type="curve" smooth="yes"/>
      <point x="817.708930605355" y="798.0"/>
      <point x="925.8443849975054" y="674.0"/>
    </contour>
  </outline>
</glyph>
<glyph name="r" format="2">
  <advance width="629"/>
  <unicode hex="0072"/>
  <outline>
    <contour>
      <point x="335.7913057691668" y="634.0" type="curve"/>
      <point x="377.228146235656" y="869.0" type="line" smooth="yes"/>
      <point x="385.33918734824545" y="915.0"/>
      <point x="372.6893999817063" y="934.0"/>
      <point x="319.6893999817063" y="934.0" type="curve" smooth="yes"/>
      <point x="317.6893999817063" y="934.0" type="line" smooth="yes"/>
      <point x="264.6893999817063" y="934.0"/>
      <point x="245.33918734824545" y="915.0"/>
      <point x="237.22814623565606" y="869.0" type="curve" smooth="yes"/>
      <point x="93.69798393896558" y="55.0" type="line" smooth="yes"/>
      <point x="85.58694282637619" y="9.0"/>
      <point x="100.23673019291535" y="-10.0"/>
      <point x="156.23673019291536" y="-10.0" type="curve" smooth="yes"/>
      <point x="158.23673019291536" y="-10.0" type="line" smooth="yes"/>
      <point x="214.23673019291536" y="-10.0"/>
      <point x="235.58694282637617" y="9.0"/>
      <point x="243.69798393896556" y="55.0" type="curve" smooth="yes"/>
      <point x="281.60828479128554" y="270.0" type="line" smooth="yes"/>
      <point x="331.68514731248956" y="554.0"/>
      <point x="477.50458283200436" y="786.0"/>
      <point x="591.0954210407106" y="786.0" type="curve" smooth="yes"/>
      <point x="608.6459368154462" y="786.0"/>
      <point x="625.6260050330071" y="780.0"/>
      <point x="641.5481113663172" y="768.0" type="curve" smooth="yes"/>
      <point x="659.5551353735905" y="754.0"/>
      <point x="673.5372694521134" y="778.0"/>
      <point x="689.0439587009415" y="830.0" type="curve" smooth="yes"/>
      <point x="703.7104796612766" y="880.0"/>
      <point x="702.3514154841753" y="911.0"/>
      <point x="683.856877149826" y="925.0" type="curve" smooth="yes"/>
      <point x="664.874824488401" y="939.0"/>
      <point x="644.6584829620165" y="946.0"/>
      <point x="623.6953668977488" y="946.0" type="curve" smooth="yes"/>
      <point x="536.4303023511462" y="946.0"/>
      <point x="435.1838546600086" y="828.0"/>
    </contour>
  </outline>
</glyph>
<glyph name="s" format="2">
  <advance width="1006"/>
  <unicode hex="0073"/>
  <outline>
    <contour>
      <point x="986.9637981789741" y="277.0" type="curve" smooth="yes"/>
      <point x="1009.1809977482408" y="403.0"/>
      <point x="951.4659245135824" y="467.0"/>
      <point x="862.6373688383787" y="502.0" type="curve" smooth="yes"/>
      <point x="726.1590257966359" y="556.0"/>
      <point x="517.6904480667174" y="542.0"/>
      <point x="413.03821937222216" y="578.0" type="curve" smooth="yes"/>
      <point x="368.68312408284913" y="593.0"/>
      <point x="342.9149716198523" y="617.0"/>
      <point x="350.49703179031627" y="660.0" type="curve" smooth="yes"/>
      <point x="366.89544099620355" y="753.0"/>
      <point x="462.35913607020984" y="801.0"/>
      <point x="601.3591360702098" y="801.0" type="curve" smooth="yes"/>
      <point x="720.3591360702098" y="801.0"/>
      <point x="832.2456536296643" y="772.0"/>
      <point x="928.7239966714072" y="718.0" type="curve" smooth="yes"/>
      <point x="958.7264379993633" y="701.0"/>
      <point x="987.784399883614" y="707.0"/>
      <point x="1019.9534028804543" y="759.0" type="curve" smooth="yes"/>
      <point x="1050.7697519158776" y="809.0"/>
      <point x="1042.23588831784" y="840.0"/>
      <point x="1007.5861009513008" y="859.0" type="curve" smooth="yes"/>
      <point x="897.3420467745171" y="920.0"/>
      <point x="762.9265482729372" y="946.0"/>
      <point x="620.9265482729372" y="946.0" type="curve" smooth="yes"/>
      <point x="408.9265482729372" y="946.0"/>
      <point x="229.82283114421617" y="849.0"/>
      <point x="196.49703179031627" y="660.0" type="curve" smooth="yes"/>
      <point x="176.04310202813434" y="544.0"/>
      <point x="227.28715620491798" y="483.0"/>
      <point x="309.1157118801217" y="448.0" type="curve" smooth="yes"/>
      <point x="444.06507397973917" y="391.0"/>
      <point x="659.7099786903661" y="406.0"/>
      <point x="767.833226442736" y="367.0" type="curve" smooth="yes"/>
      <point x="814.8356677706921" y="350.0"/>
      <point x="841.251166272272" y="324.0"/>
      <point x="832.9637981789741" y="277.0" type="curve" smooth="yes"/>
      <point x="816.9180429345038" y="186.0"/>
      <point x="724.8094431498705" y="123.0"/>
      <point x="555.8094431498705" y="123.0" type="curve" smooth="yes"/>
      <point x="423.80944314987056" y="123.0"/>
      <point x="301.62823351324994" y="156.0"/>
      <point x="203.38417933646627" y="217.0" type="curve" smooth="yes"/>
      <point x="174.55806498921868" y="235.0"/>
      <point x="145.67643008567634" y="230.0"/>
      <point x="111.68375406954462" y="179.0" type="curve" smooth="yes"/>
      <point x="79.04373201482984" y="130.0"/>
      <point x="86.57759561286743" y="99.0"/>
      <point x="120.87472901798967" y="78.0" type="curve" smooth="yes"/>
      <point x="236.5318403683971" y="8.0"/>
      <point x="378.2420309471432" y="-22.0"/>
      <point x="540.2420309471431" y="-22.0" type="curve" smooth="yes"/>
      <point x="799.2420309471431" y="-22.0"/>
      <point x="955.4012686321589" y="98.0"/>
    </contour>
  </outline>
</glyph>
<glyph name="t" format="2">
  <advance width="653"/>
  <unicode hex="0074"/>
  <outline>
    <contour>
      <point x="390.4055475969213" y="1144.0" type="curve" smooth="yes"/>
      <point x="342.0919548828019" y="870.0" type="line" smooth="yes"/>
      <point x="339.66216908863925" y="856.22"/>
      <point x="325.28745338438176" y="844.0"/>
      <point x="311.5074533843818" y="844.0" type="curve" smooth="yes"/>
      <point x="251.50911211262695" y="844.0" type="line" smooth="yes"/>
      <point x="232.44544040213947" y="844.0"/>
      <point x="221.29343210377513" y="824.0"/>
      <point x="212.12442910693497" y="772.0" type="curve" smooth="yes"/>
      <point x="202.95542611009478" y="720.0"/>
      <point x="207.05435518012052" y="700.0"/>
      <point x="226.118026890608" y="700.0" type="curve" smooth="yes"/>
      <point x="286.11636816236285" y="700.0" type="line" smooth="yes"/>
      <point x="299.8963681623628" y="700.0"/>
      <point x="309.9616524581054" y="687.78"/>
      <point x="307.53186666394276" y="674.0" type="curve" smooth="yes"/>
      <point x="247.05171228093926" y="331.0" type="line" smooth="yes"/>
      <point x="206.67283369870077" y="102.0"/>
      <point x="279.80828809085114" y="-22.0"/>
      <point x="409.79206348543534" y="-22.0" type="curve" smooth="yes"/>
      <point x="458.51033563445907" y="-22.0"/>
      <point x="525.6122842680022" y="27.0"/>
      <point x="579.0845989648301" y="90.0" type="curve" smooth="yes"/>
      <point x="596.767491480732" y="111.0"/>
      <point x="606.7882927300323" y="139.0"/>
      <point x="604.66105907599" y="187.0" type="curve" smooth="yes"/>
      <point x="602.5338254219478" y="235.0"/>
      <point x="589.5407781974693" y="243.0"/>
      <point x="573.3051241096418" y="223.0" type="curve" smooth="yes"/>
      <point x="526.39805423565" y="166.0"/>
      <point x="474.93405753721214" y="124.0"/>
      <point x="435.5358026688712" y="124.0" type="curve" smooth="yes"/>
      <point x="379.1920618356526" y="124.0"/>
      <point x="373.42389686600495" y="197.0"/>
      <point x="399.3439630301493" y="344.0" type="curve" smooth="yes"/>
      <point x="457.53186666394276" y="674.0" type="line" smooth="yes"/>
      <point x="459.9616524581054" y="687.78"/>
      <point x="474.3363681623629" y="700.0"/>
      <point x="488.11636816236285" y="700.0" type="curve" smooth="yes"/>
      <point x="636.2312364514822" y="700.0" type="line" smooth="yes"/>
      <point x="655.2949081619696" y="700.0"/>
      <point x="666.446916460334" y="720.0"/>
      <point x="675.6159194571742" y="772.0" type="curve" smooth="yes"/>
      <point x="684.7849224540143" y="824.0"/>
      <point x="680.6859933839886" y="844.0"/>
      <point x="661.6223216735012" y="844.0" type="curve" smooth="yes"/>
      <point x="513.5074533843817" y="844.0" type="line" smooth="yes"/>
      <point x="499.7274533843818" y="844.0"/>
      <point x="489.66216908863925" y="856.22"/>
      <point x="492.0919548828019" y="870.0" type="curve" smooth="yes"/>
      <point x="540.4055475969212" y="1144.0" type="line" smooth="yes"/>
      <point x="548.5165887095106" y="1190.0"/>
      <point x="532.8668013429715" y="1209.0"/>
      <point x="476.8668013429715" y="1209.0" type="curve" smooth="yes"/>
      <point x="420.8668013429715" y="1209.0"/>
      <point x="398.51658870951064" y="1190.0"/>
    </contour>
  </outline>
</glyph>
<glyph name="u" format="2">
  <advance width="1010"/>
  <unicode hex="0075"/>
  <outline>
    <contour>
      <point x="1014.6893999817063" y="934.0" type="line" smooth="yes"/>
      <point x="958.6893999817063" y="934.0"/>
      <point x="937.3391873482454" y="915.0"/>
      <point x="929.228146235656" y="869.0" type="curve" smooth="yes"/>
      <point x="869.8059537369033" y="532.0" type="line" smooth="yes"/>
      <point x="829.6034021353734" y="304.0"/>
      <point x="609.2171995692665" y="126.0"/>
      <point x="438.2171995692666" y="126.0" type="curve" smooth="yes"/>
      <point x="309.2171995692666" y="126.0"/>
      <point x="269.97070406452684" y="204.0"/>
      <point x="290.24830684600033" y="319.0" type="curve" smooth="yes"/>
      <point x="387.228146235656" y="869.0" type="line" smooth="yes"/>
      <point x="395.33918734824545" y="915.0"/>
      <point x="380.6893999817063" y="934.0"/>
      <point x="324.6893999817063" y="934.0" type="curve" smooth="yes"/>
      <point x="322.6893999817063" y="934.0" type="line" smooth="yes"/>
      <point x="266.6893999817063" y="934.0"/>
      <point x="245.33918734824545" y="915.0"/>
      <point x="237.22814623565606" y="869.0" type="curve" smooth="yes"/>
      <point x="137.60340213537336" y="304.0" type="line" smooth="yes"/>
      <point x="102.33800599368035" y="104.0"/>
      <point x="193.12080642441376" y="-22.0"/>
      <point x="397.1208064244138" y="-22.0" type="curve" smooth="yes"/>
      <point x="543.1208064244138" y="-22.0"/>
      <point x="712.4588124180941" y="82.0"/>
      <point x="791.2573546395248" y="177.70063245669672" type="curve" smooth="yes"/>
      <point x="808.8437760316327" y="199.05929725464745"/>
      <point x="820.4613451096624" y="195.44"/>
      <point x="815.9755867204391" y="170.0" type="curve" smooth="yes"/>
      <point x="795.6979839389655" y="55.0" type="line" smooth="yes"/>
      <point x="787.5869428263762" y="9.0"/>
      <point x="800.2367301929154" y="-10.0"/>
      <point x="853.2367301929154" y="-10.0" type="curve" smooth="yes"/>
      <point x="855.2367301929154" y="-10.0" type="line" smooth="yes"/>
      <point x="908.2367301929154" y="-10.0"/>
      <point x="927.5869428263762" y="9.0"/>
      <point x="935.6979839389655" y="55.0" type="curve" smooth="yes"/>
      <point x="1079.2281462356561" y="869.0" type="line" smooth="yes"/>
      <point x="1087.3391873482456" y="915.0"/>
      <point x="1072.6893999817062" y="934.0"/>
      <point x="1016.6893999817063" y="934.0" type="curve" smooth="yes"/>
    </contour>
  </outline>
</glyph>
<glyph name="v" format="2">
  <advance width="1088"/>
  <unicode hex="0076"/>
  <outline>
    <contour>
      <point x="1041.7804602756764" y="894.0" type="curve" smooth="yes"/>
      <point x="596.8659431761628" y="186.72745180167965" type="line" smooth="yes"/>
      <point x="582.2872091075146" y="163.55190234678943"/>
      <point x="563.678296196973" y="163.55190234678943"/>
      <point x="557.2725114516061" y="186.72745180167965" type="curve" smooth="yes"/>
      <point x="361.78046027567643" y="894.0" type="line" smooth="yes"/>
      <point x="349.5388474268489" y="938.0"/>
      <point x="325.9494632725166" y="946.0"/>
      <point x="270.0702696969304" y="924.0" type="curve" smooth="yes"/>
      <point x="214.19107612134417" y="902.0"/>
      <point x="197.78290160363255" y="877.0"/>
      <point x="210.0245144524601" y="833.0" type="curve" smooth="yes"/>
      <point x="433.1972187506474" y="40.0" type="line" smooth="yes"/>
      <point x="445.6151585801834" y="-3.0"/>
      <point x="474.26494594672255" y="-22.0"/>
      <point x="540.2649459467225" y="-22.0" type="curve" smooth="yes"/>
      <point x="606.2649459467225" y="-22.0"/>
      <point x="641.6151585801833" y="-3.0"/>
      <point x="669.1972187506473" y="40.0" type="curve" smooth="yes"/>
      <point x="1172.0245144524602" y="833.0" type="line" smooth="yes"/>
      <point x="1199.7829016036326" y="877.0"/>
      <point x="1192.1910761213442" y="902.0"/>
      <point x="1144.0702696969304" y="924.0" type="curve" smooth="yes"/>
      <point x="1095.9494632725166" y="946.0"/>
      <point x="1069.5388474268489" y="938.0"/>
    </contour>
  </outline>
</glyph>
<glyph name="w" format="2">
  <advance width="1236"/>
  <unicode hex="0077"/>
  <outline>
    <contour>
      <point x="1182.924835919394" y="883.0" type="curve" smooth="yes"/>
      <point x="924.5301556527029" y="256.7139912255829" type="line" smooth="yes"/>
      <point x="914.3152654451467" y="231.95557587602397"/>
      <point x="901.9987029047452" y="231.4342490659628"/>
      <point x="898.3247034390827" y="255.6047852467294" type="curve" smooth="yes"/>
      <point x="824.2390586202088" y="743.0" type="line" smooth="yes"/>
      <point x="819.8235601186288" y="769.0"/>
      <point x="801.5264267135067" y="790.0"/>
      <point x="757.5264267135067" y="790.0" type="curve" smooth="yes"/>
      <point x="713.5264267135067" y="790.0"/>
      <point x="687.8235601186288" y="769.0"/>
      <point x="674.2390586202088" y="743.0" type="curve" smooth="yes"/>
      <point x="428.27156054293874" y="255.6047852467294" type="line" smooth="yes"/>
      <point x="416.0737257435576" y="231.4342490659628"/>
      <point x="403.94101116791705" y="231.95557587602397"/>
      <point x="402.45727421178856" y="256.7139912255829" type="curve" smooth="yes"/>
      <point x="364.9248359193939" y="883.0" type="line" smooth="yes"/>
      <point x="362.21220401269176" y="930.0"/>
      <point x="343.1518008004849" y="941.0"/>
      <point x="286.21220401269176" y="930.0" type="curve" smooth="yes"/>
      <point x="228.27260722489865" y="919.0"/>
      <point x="212.21708666860394" y="896.0"/>
      <point x="215.92971857530608" y="849.0" type="curve" smooth="yes"/>
      <point x="272.8101721242833" y="43.0" type="line" smooth="yes"/>
      <point x="276.52280403098547" y="-4.0"/>
      <point x="292.3489183782331" y="-22.0"/>
      <point x="343.3489183782331" y="-22.0" type="curve" smooth="yes"/>
      <point x="400.3489183782331" y="-22.0"/>
      <point x="433.69913101169396" y="-3.0"/>
      <point x="456.8101721242833" y="43.0" type="curve" smooth="yes"/>
      <point x="693.0070767298301" y="509.41888468937424" type="line" smooth="yes"/>
      <point x="705.2408067739394" y="533.5768758040059"/>
      <point x="719.3834161064511" y="533.5768758040059"/>
      <point x="723.0977348841105" y="509.41888468937424" type="curve" smooth="yes"/>
      <point x="794.8101721242833" y="43.0" type="line" smooth="yes"/>
      <point x="801.6991310116939" y="-3.0"/>
      <point x="828.3489183782331" y="-22.0"/>
      <point x="885.3489183782331" y="-22.0" type="curve" smooth="yes"/>
      <point x="936.3489183782331" y="-22.0"/>
      <point x="958.5228040309854" y="-4.0"/>
      <point x="978.8101721242833" y="43.0" type="curve" smooth="yes"/>
      <point x="1319.929718575306" y="849.0" type="line" smooth="yes"/>
      <point x="1340.2170866686038" y="896.0"/>
      <point x="1332.2726072248986" y="919.0"/>
      <point x="1278.2122040126917" y="930.0" type="curve" smooth="yes"/>
      <point x="1225.1518008004848" y="941.0"/>
      <point x="1202.2122040126917" y="930.0"/>
    </contour>
  </outline>
</glyph>
<glyph name="x" format="2">
  <advance width="1014"/>
  <unicode hex="0078"/>
  <outline>
    <contour>
      <point x="953.4902144600219" y="909.0" type="curve" smooth="yes"/>
      <point x="608.9005814844385" y="576.7216796875" type="line"/>
      <point x="381.4902144600219" y="909.0" type="line" smooth="yes"/>
      <point x="356.8379857655266" y="945.0"/>
      <point x="329.1906397269435" y="947.0"/>
      <point x="274.13511917064886" y="924.0" type="curve" smooth="yes"/>
      <point x="224.43225257577106" y="903.0"/>
      <point x="205.96611617380864" y="872.0"/>
      <point x="231.44201788759545" y="835.0" type="curve" smooth="yes"/>
      <point x="482.04823314457883" y="471.1027526855469" type="line"/>
      <point x="86.90209027908057" y="89.0" type="line" smooth="yes"/>
      <point x="49.377991992867365" y="52.0"/>
      <point x="55.91185559090495" y="21.0"/>
      <point x="98.20898899602719" y="0.0" type="curve" smooth="yes"/>
      <point x="145.1534684397325" y="-23.0"/>
      <point x="173.5061224011494" y="-21.0"/>
      <point x="210.85389370665416" y="15.0" type="curve" smooth="yes"/>
      <point x="571.9269208578289" y="367.03363037109375" type="line"/>
      <point x="808.8538937066542" y="15.0" type="line" smooth="yes"/>
      <point x="833.5061224011495" y="-21.0"/>
      <point x="861.1534684397325" y="-23.0"/>
      <point x="916.2089889960272" y="0.0" type="curve" smooth="yes"/>
      <point x="965.9118555909049" y="21.0"/>
      <point x="983.3779919928674" y="52.0"/>
      <point x="958.9020902790805" y="89.0" type="curve" smooth="yes"/>
      <point x="698.5059968164538" y="471.1027526855469" type="line"/>
      <point x="1077.4420178875955" y="835.0" type="line" smooth="yes"/>
      <point x="1115.9661161738086" y="872.0"/>
      <point x="1108.4322525757711" y="903.0"/>
      <point x="1066.1351191706487" y="924.0" type="curve" smooth="yes"/>
      <point x="1019.1906397269436" y="947.0"/>
      <point x="990.8379857655266" y="945.0"/>
    </contour>
  </outline>
</glyph>
